<svg width="59" height="101" viewBox="0 0 59 101" fill="none" xmlns="http://www.w3.org/2000/svg">
<g clip-path="url(#clip0_1676_2449)">
<g clip-path="url(#clip1_1676_2449)">
<path d="M14.0269 44.591C14.0269 44.591 2.15333 53.8221 2.15333 68.5479C10.1712 60.9365 15.9999 60.9349 15.9999 60.9349M45.0772 44.5926C45.0772 44.5926 56.9508 53.8237 56.9508 68.5495C48.9329 60.9381 43.1042 60.9365 43.1042 60.9365" stroke="url(#paint0_linear_1676_2449)" stroke-width="1.75" stroke-linecap="round" stroke-linejoin="round"/>
<path d="M39.6245 62.8774L37.9806 66.0151C36.3399 69.1497 33.0941 71.1146 29.5546 71.1146C27.8184 71.1148 26.1153 70.6397 24.6299 69.7408C23.1446 68.8418 21.9337 67.5534 21.1285 66.0151L19.4863 62.8757M36.1964 37.1379C36.1964 40.8903 33.1554 43.9313 29.4029 43.9313C25.6505 43.9313 22.6095 40.8903 22.6111 37.1395C22.6127 33.3887 25.6521 30.3461 29.4045 30.3461C33.1554 30.3445 36.1964 33.3854 36.1964 37.1379Z" stroke="#17A2F2" stroke-width="1.75" stroke-linecap="round" stroke-linejoin="round"/>
<path d="M39.7184 62.4634C41.5801 62.4634 43.1853 61.1421 43.5273 59.3127C44.3388 54.9811 44.7744 49.1443 44.7744 41.0071C44.7744 25.6973 38.6295 12.2766 29.4017 4.76205C20.1754 12.275 14.0289 25.6973 14.0289 41.0071C14.0289 49.1411 14.4645 54.9811 15.276 59.3127C15.6196 61.1437 17.2232 62.4634 19.0849 62.4634L39.7184 62.4634Z" stroke="url(#paint1_linear_1676_2449)" stroke-width="1.75" stroke-linecap="round" stroke-linejoin="round"/>
<path d="M18.7617 19.8359C18.7617 19.8359 22.2496 22.7463 29.535 22.7463C36.8205 22.7463 40.0454 19.8343 40.0454 19.8343" stroke="url(#paint2_linear_1676_2449)" stroke-width="1.75" stroke-linecap="round" stroke-linejoin="round"/>
<path d="M36.1366 82.7459C36.1366 86.3789 32.8472 92.4141 29.5578 96.4328C26.2667 92.0899 22.9773 86.3806 22.9789 82.7459C22.9789 79.1128 25.9247 76.167 29.5578 76.167C33.1908 76.167 36.1366 79.1128 36.1366 82.7459Z" stroke="#17A2F2" stroke-width="1.75" stroke-linecap="round" stroke-linejoin="round"/>
</g>
</g>
<defs>
<linearGradient id="paint0_linear_1676_2449" x1="28.7907" y1="29.6429" x2="-1.13291" y2="76.2429" gradientUnits="userSpaceOnUse">
<stop stop-color="#0D52E9"/>
<stop offset="0.49" stop-color="#0F6AE1"/>
<stop offset="1" stop-color="#076CE0"/>
</linearGradient>
<linearGradient id="paint1_linear_1676_2449" x1="28.6092" y1="5.30876" x2="-2.56772" y2="53.8617" gradientUnits="userSpaceOnUse">
<stop stop-color="#0D52E9"/>
<stop offset="0.49" stop-color="#0F6AE1"/>
<stop offset="1" stop-color="#076CE0"/>
</linearGradient>
<linearGradient id="paint2_linear_1676_2449" x1="29.163" y1="9.43469" x2="19.6662" y2="24.2253" gradientUnits="userSpaceOnUse">
<stop stop-color="#0D52E9"/>
<stop offset="0.49" stop-color="#0F6AE1"/>
<stop offset="1" stop-color="#076CE0"/>
</linearGradient>
<clipPath id="clip0_1676_2449">
<rect width="59" height="101" fill="white"/>
</clipPath>
<clipPath id="clip1_1676_2449">
<rect width="71.0408" height="71.0408" fill="white" transform="translate(-20.7344 50.5625) rotate(-45)"/>
</clipPath>
</defs>
</svg>
