<svg width="59" height="38" viewBox="0 0 59 38" fill="none" xmlns="http://www.w3.org/2000/svg">
<g clip-path="url(#clip0_1148_1786)">
<path d="M9.5625 20.9298C9.5625 20.9298 23.1509 34.7672 28.4778 36.2268C31.7351 37.1195 32.7169 35.5124 32.7169 35.5124M24.5952 26.7653C31.9134 34.9761 33.0718 36.8936 35.3059 35.6906C36.4659 35.0653 37.4477 33.727 37.8948 32.968M30.0327 24.4944C37.3524 32.7053 38.5094 34.6228 40.7434 33.4197C41.9034 32.7944 42.8852 31.4561 43.3323 30.6971M34.3164 21.6381C41.6345 29.849 42.793 31.7665 45.027 30.5634C45.2683 30.4328 45.9981 29.8229 46.2024 29.577C47.3717 28.1758 46.6818 26.2291 45.3589 24.9723C42.518 22.2773 35.7637 16.2498 31.9564 13.1047C31.9564 13.1047 27.095 17.7033 23.658 17.4805C20.2209 17.2577 20.2732 13.8652 21.1397 11.9907C22.0063 10.1162 27.0489 4.53737 30.3523 4.49281C33.6557 4.44825 44.0744 6.81286 44.0744 6.81286M13.7954 6.05692H26.4697M49.7624 23.0517L46.164 25.9479" stroke="url(#paint0_linear_1148_1786)" stroke-width="1.5" stroke-linecap="round" stroke-linejoin="round"/>
<path d="M1.07422 0.977001V23.9947H8.75036L14.194 3.4169C14.194 3.4169 12.3503 2.26916 7.63336 1.42104C4.4068 0.840256 1.07422 0.977001 1.07422 0.977001ZM57.9647 0.977001V23.9947H50.2885L43.6034 5.52645C43.6034 5.52645 45.9234 2.67018 51.404 1.42104C54.6029 0.691219 57.9647 0.977001 57.9647 0.977001Z" stroke="#17A2F2" stroke-width="1.5" stroke-linecap="round" stroke-linejoin="round"/>
<path d="M8.53068 6.81807C8.53068 7.70615 7.81161 8.42521 6.92354 8.42521C6.03701 8.42521 5.31641 7.70615 5.31641 6.81807C5.31641 5.93 6.03547 5.21094 6.92354 5.21094C7.81161 5.21247 8.53068 5.93154 8.53068 6.81807ZM50.5144 6.81807C50.5144 7.70615 51.2335 8.42521 52.1215 8.42521C53.0096 8.42521 53.7287 7.70615 53.7287 6.81807C53.7287 5.93 53.0096 5.21247 52.1215 5.21247C51.2335 5.21247 50.5144 5.93154 50.5144 6.81807Z" fill="#17A2F2"/>
</g>
<defs>
<linearGradient id="paint0_linear_1148_1786" x1="48.8506" y1="4.49219" x2="4.15104" y2="16.7283" gradientUnits="userSpaceOnUse">
<stop stop-color="#0D52E9"/>
<stop offset="0.49" stop-color="#0F6AE1"/>
<stop offset="1" stop-color="#076CE0"/>
</linearGradient>
<clipPath id="clip0_1148_1786">
<rect width="59" height="37.4896" fill="white"/>
</clipPath>
</defs>
</svg>
