<svg width="99" height="196" viewBox="0 0 99 196" fill="none" xmlns="http://www.w3.org/2000/svg">
<rect x="0.5" y="0.5" width="98" height="195" rx="10.5" fill="#F4FBFF" stroke="url(#paint0_linear_1408_1926)"/>
<path d="M48.3808 128.516H41.0312V131.033C41.0312 134.975 44.2356 138.179 48.1774 138.179H50.7713C54.7131 138.179 57.9175 134.975 57.9175 131.033V128.516H48.3808Z" stroke="#17A2F2" stroke-width="1.75" stroke-miterlimit="17.48" stroke-linecap="round" stroke-linejoin="round"/>
<path d="M49.4996 122.078H56.4677C58.4005 122.078 59.9518 120.526 59.9518 118.593V114.957C59.9518 113.05 60.791 111.244 62.2406 109.998C66.7419 106.158 76.3039 96.4685 76.3039 83.5495C76.3039 68.5706 68.4203 57.3047 49.4996 57.3047C30.5789 57.3047 22.6953 68.5706 22.6953 83.5495C22.6953 96.4685 32.2574 106.158 36.7587 109.998C38.2082 111.244 39.0475 113.05 39.0475 114.957V118.593C39.0475 120.526 40.5988 122.078 42.5315 122.078H49.4996Z" stroke="url(#paint1_linear_1408_1926)" stroke-width="1.75" stroke-miterlimit="17.48" stroke-linecap="round" stroke-linejoin="round"/>
<path d="M54.6374 108.807L59.5201 84.9531L54.6374 91.6669L49.5003 85.6906L44.3632 91.6923L39.4805 84.9786L44.3632 108.833" stroke="#17A2F2" stroke-width="1.75" stroke-miterlimit="17.48" stroke-linecap="round" stroke-linejoin="round"/>
<defs>
<linearGradient id="paint0_linear_1408_1926" x1="96.7544" y1="-1.31755e-05" x2="-20.1589" y2="12.8698" gradientUnits="userSpaceOnUse">
<stop stop-color="#0D52E9"/>
<stop offset="0.49" stop-color="#0F6AE1"/>
<stop offset="1" stop-color="#076CE0"/>
</linearGradient>
<linearGradient id="paint1_linear_1408_1926" x1="75.088" y1="57.3047" x2="13.031" y2="68.498" gradientUnits="userSpaceOnUse">
<stop stop-color="#0D52E9"/>
<stop offset="0.49" stop-color="#0F6AE1"/>
<stop offset="1" stop-color="#076CE0"/>
</linearGradient>
</defs>
</svg>
