<svg width="56" height="83" viewBox="0 0 56 83" fill="none" xmlns="http://www.w3.org/2000/svg">
<path d="M26.5605 72.0859H19.2109V74.6036C19.2109 78.5454 22.4152 81.7497 26.3571 81.7497H28.951C32.8928 81.7497 36.0971 78.5454 36.0971 74.6036V72.0859H26.5605Z" stroke="#17A2F2" stroke-width="1.75" stroke-miterlimit="17.48" stroke-linecap="round" stroke-linejoin="round"/>
<path d="M27.6793 65.6478H34.6474C36.5802 65.6478 38.1315 64.0966 38.1315 62.1638V58.5272C38.1315 56.6198 38.9707 54.8142 40.4203 53.5681C44.9216 49.728 54.4836 40.0388 54.4836 27.1198C54.4836 12.1409 46.6 0.875 27.6793 0.875C8.75862 0.875 0.875 12.1409 0.875 27.1198C0.875 40.0388 10.4371 49.728 14.9384 53.5681C16.3879 54.8142 17.2272 56.6198 17.2272 58.5272V62.1638C17.2272 64.0966 18.7784 65.6478 20.7112 65.6478H27.6793Z" stroke="url(#paint0_linear_1676_2458)" stroke-width="1.75" stroke-miterlimit="17.48" stroke-linecap="round" stroke-linejoin="round"/>
<path d="M32.817 52.3777L37.6998 28.5234L32.817 35.2372L27.68 29.2609L22.5429 35.2627L17.6602 28.5489L22.5429 52.4032" stroke="#17A2F2" stroke-width="1.75" stroke-miterlimit="17.48" stroke-linecap="round" stroke-linejoin="round"/>
<defs>
<linearGradient id="paint0_linear_1676_2458" x1="53.2676" y1="0.874996" x2="-8.78927" y2="12.0684" gradientUnits="userSpaceOnUse">
<stop stop-color="#0D52E9"/>
<stop offset="0.49" stop-color="#0F6AE1"/>
<stop offset="1" stop-color="#076CE0"/>
</linearGradient>
</defs>
</svg>
