<svg width="59" height="88" viewBox="0 0 59 88" fill="none" xmlns="http://www.w3.org/2000/svg">
<path d="M28.3808 74.5156H21.0312V77.0333C21.0312 80.9751 24.2356 84.1794 28.1774 84.1794H30.7713C34.7131 84.1794 37.9175 80.9751 37.9175 77.0333V74.5156H28.3808Z" stroke="#17A2F2" stroke-width="1.75" stroke-miterlimit="17.48" stroke-linecap="round" stroke-linejoin="round"/>
<path d="M29.4996 68.0775H36.4677C38.4005 68.0775 39.9518 66.5262 39.9518 64.5935V60.9568C39.9518 59.0495 40.791 57.2439 42.2406 55.9978C46.7419 52.1577 56.3039 42.4685 56.3039 29.5495C56.3039 14.5706 48.4203 3.30469 29.4996 3.30469C10.5789 3.30469 2.69531 14.5706 2.69531 29.5495C2.69531 42.4685 12.2574 52.1577 16.7587 55.9978C18.2082 57.2439 19.0475 59.0495 19.0475 60.9568V64.5935C19.0475 66.5262 20.5988 68.0775 22.5315 68.0775H29.4996Z" stroke="url(#paint0_linear_1408_1928)" stroke-width="1.75" stroke-miterlimit="17.48" stroke-linecap="round" stroke-linejoin="round"/>
<path d="M34.6374 54.8074L39.5201 30.9531L34.6374 37.6669L29.5003 31.6906L24.3632 37.6923L19.4805 30.9786L24.3632 54.8329" stroke="#17A2F2" stroke-width="1.75" stroke-miterlimit="17.48" stroke-linecap="round" stroke-linejoin="round"/>
<defs>
<linearGradient id="paint0_linear_1408_1928" x1="55.088" y1="3.30468" x2="-6.96896" y2="14.498" gradientUnits="userSpaceOnUse">
<stop stop-color="#0D52E9"/>
<stop offset="0.49" stop-color="#0F6AE1"/>
<stop offset="1" stop-color="#076CE0"/>
</linearGradient>
</defs>
</svg>
