<svg width="58" height="68" viewBox="0 0 58 68" fill="none" xmlns="http://www.w3.org/2000/svg">
<path d="M18.0618 47.8955V66.4354M25.109 66.4149L10.9531 66.4354V47.875H25.109V66.4149Z" stroke="url(#paint0_linear_1676_2463)" stroke-width="1.75" stroke-linecap="round" stroke-linejoin="round"/>
<path d="M35.3941 66.4101L0.875 66.451V0.915972L35.3941 0.875V66.4101Z" stroke="url(#paint1_linear_1676_2463)" stroke-width="1.75" stroke-linecap="round" stroke-linejoin="round"/>
<path d="M12.4503 6.46875V11.5493M17.9405 6.46875V11.5493M23.4103 6.46875V11.5493M12.4503 16.6299V21.7104M17.9405 16.6299V21.7104M23.4103 16.6299V21.7104M12.4503 26.791V31.8715M17.9405 26.791V31.8715M23.4103 26.791V31.8715M12.4503 36.9316V42.0122M17.9405 36.9316V42.0122M23.4103 36.9316V42.0122M28.9006 6.46875V11.5493M28.9006 16.6299V21.7104M28.9006 26.791V31.8715M28.9006 36.9316V42.0122M6.98047 6.46875V11.5493M6.98047 16.6299V21.7104M6.98047 26.791V31.8715M6.98047 36.9316V42.0122" stroke="#17A2F2" stroke-width="1.75" stroke-linecap="round" stroke-linejoin="round"/>
<path d="M35.3945 66.4106L57.1303 66.4516V19.8047H35.3945" stroke="url(#paint2_linear_1676_2463)" stroke-width="1.75" stroke-linecap="round" stroke-linejoin="round"/>
<path d="M40.3125 26.7734H52.0306M40.3125 32.2432H52.0306M40.3125 37.6925H52.0306M40.3125 43.1623H52.0306M40.3125 48.6321H52.0306M40.3125 54.1019H52.0306M40.3125 59.5512H52.0306" stroke="#17A2F2" stroke-width="1.75" stroke-linecap="round" stroke-linejoin="round"/>
<defs>
<linearGradient id="paint0_linear_1676_2463" x1="24.7879" y1="47.875" x2="8.32295" y2="50.6118" gradientUnits="userSpaceOnUse">
<stop stop-color="#0D52E9"/>
<stop offset="0.49" stop-color="#0F6AE1"/>
<stop offset="1" stop-color="#076CE0"/>
</linearGradient>
<linearGradient id="paint1_linear_1676_2463" x1="34.6111" y1="0.874996" x2="-6.112" y2="5.54679" gradientUnits="userSpaceOnUse">
<stop stop-color="#0D52E9"/>
<stop offset="0.49" stop-color="#0F6AE1"/>
<stop offset="1" stop-color="#076CE0"/>
</linearGradient>
<linearGradient id="paint2_linear_1676_2463" x1="56.6373" y1="19.8047" x2="30.9227" y2="22.416" gradientUnits="userSpaceOnUse">
<stop stop-color="#0D52E9"/>
<stop offset="0.49" stop-color="#0F6AE1"/>
<stop offset="1" stop-color="#076CE0"/>
</linearGradient>
</defs>
</svg>
