<svg width="99" height="193" viewBox="0 0 99 193" fill="none" xmlns="http://www.w3.org/2000/svg">
<rect x="0.5" y="0.5" width="98" height="192" rx="10.5" fill="#F4FBFF" stroke="url(#paint0_linear_1408_1942)"/>
<path d="M74.959 103.32L79 106.11L74.959 108.899L72.7489 114L70.5388 108.899L66.4977 106.11L70.5388 103.32L72.7489 98.2199L74.959 103.32ZM28.4612 68.1005L32.5023 70.8901L28.4612 73.6796L26.2511 78.7801L24.041 73.6796L20 70.8901L24.041 68.1005L26.2511 63L28.4612 68.1005Z" stroke="url(#paint1_linear_1408_1942)" stroke-width="1.75" stroke-linecap="round" stroke-linejoin="round"/>
<path d="M49.4982 97.7099L49.4949 120.305C49.4946 122.118 48.018 123.587 46.1964 123.587C44.3978 123.587 42.9307 122.153 42.8981 120.364L42.2874 86.8086M49.5008 97.7099L49.5041 120.305C49.5044 122.118 50.981 123.587 52.8026 123.587C54.6012 123.587 56.0683 122.153 56.1009 120.364L56.7136 86.8086M37.5659 131.769V123.587H61.4357V131.769M49.2099 66.769H52.5823C52.8957 66.7682 53.196 66.6439 53.4176 66.4234C53.6392 66.2029 53.7641 65.9042 53.765 65.5923V60.0437C53.765 57.8799 51.9854 56.1094 49.8106 56.1094H49.2099C47.0351 56.1094 45.2556 57.8799 45.2556 60.0437V62.8347C45.2556 64.9985 47.0351 66.769 49.2099 66.769ZM49.5008 82.9985L42.0686 86.9231C39.9882 88.0218 37.4805 86.5215 37.4805 84.178V77.8822C37.4805 74.5182 39.9962 71.6555 43.3544 71.2645C45.3945 71.0272 47.4468 70.9084 49.5008 70.9088C51.5479 70.9088 53.5949 71.0262 55.6369 71.2635C58.9972 71.6547 61.5211 74.5129 61.5211 77.8822V84.1773C61.5211 86.5217 59.0128 88.0212 56.9342 86.9234L49.5008 82.9985Z" stroke="#17A2F2" stroke-width="1.75" stroke-linecap="round" stroke-linejoin="round"/>
<path d="M65.8112 137.989H33.1914V131.805H65.8112V137.989Z" stroke="url(#paint2_linear_1408_1942)" stroke-width="1.75" stroke-linecap="round" stroke-linejoin="round"/>
<defs>
<linearGradient id="paint0_linear_1408_1942" x1="96.7544" y1="-1.29739e-05" x2="-20.1151" y2="13.0649" gradientUnits="userSpaceOnUse">
<stop stop-color="#0D52E9"/>
<stop offset="0.49" stop-color="#0F6AE1"/>
<stop offset="1" stop-color="#076CE0"/>
</linearGradient>
<linearGradient id="paint1_linear_1408_1942" x1="77.6617" y1="63" x2="11.3565" y2="79.717" gradientUnits="userSpaceOnUse">
<stop stop-color="#0D52E9"/>
<stop offset="0.49" stop-color="#0F6AE1"/>
<stop offset="1" stop-color="#076CE0"/>
</linearGradient>
<linearGradient id="paint2_linear_1408_1942" x1="65.0713" y1="131.805" x2="48.2774" y2="151.111" gradientUnits="userSpaceOnUse">
<stop stop-color="#0D52E9"/>
<stop offset="0.49" stop-color="#0F6AE1"/>
<stop offset="1" stop-color="#076CE0"/>
</linearGradient>
</defs>
</svg>
