<svg width="61" height="84" viewBox="0 0 61 84" fill="none" xmlns="http://www.w3.org/2000/svg">
<path d="M55.834 48.086L59.875 50.8756L55.834 53.6651L53.6239 58.7656L51.4138 53.6651L47.3727 50.8756L51.4138 48.086L53.6239 42.9855L55.834 48.086ZM9.33622 12.8662L13.3773 15.6557L9.33622 18.4452L7.12613 23.5457L4.91605 18.4452L0.875 15.6557L4.91605 12.8662L7.12613 7.76562L9.33622 12.8662Z" stroke="url(#paint0_linear_1676_2470)" stroke-width="1.75" stroke-linecap="round" stroke-linejoin="round"/>
<path d="M30.3732 42.4755L30.3699 65.0708C30.3696 66.8832 28.893 68.3523 27.0714 68.3523C25.2728 68.3523 23.8057 66.9189 23.7731 65.1298L23.1624 31.5742M30.3758 42.4755L30.3791 65.0708C30.3794 66.8832 31.856 68.3523 33.6776 68.3523C35.4762 68.3523 36.9433 66.9189 36.9759 65.13L37.5886 31.5742M18.4409 76.5343V68.3523H42.3107V76.5343M30.0849 11.5347H33.4573C33.7707 11.5338 34.071 11.4095 34.2926 11.189C34.5142 10.9686 34.6391 10.6698 34.64 10.358V4.80931C34.64 2.64553 32.8604 0.875 30.6856 0.875H30.0849C27.9101 0.875 26.1306 2.64553 26.1306 4.80931V7.60035C26.1306 9.76413 27.9101 11.5347 30.0849 11.5347ZM30.3758 27.7642L22.9436 31.6888C20.8632 32.7874 18.3555 31.2871 18.3555 28.9437V22.6478C18.3555 19.2838 20.8712 16.4211 24.2294 16.0301C26.2695 15.7928 28.3218 15.674 30.3758 15.6744C32.4229 15.6744 34.4699 15.7918 36.5119 16.0291C39.8722 16.4203 42.3961 19.2785 42.3961 22.6478V28.9429C42.3961 31.2874 39.8878 32.7869 37.8092 31.689L30.3758 27.7642Z" stroke="#17A2F2" stroke-width="1.75" stroke-linecap="round" stroke-linejoin="round"/>
<path d="M46.6862 82.7541H14.0664V76.5703H46.6862V82.7541Z" stroke="url(#paint1_linear_1676_2470)" stroke-width="1.75" stroke-linecap="round" stroke-linejoin="round"/>
<defs>
<linearGradient id="paint0_linear_1676_2470" x1="58.5367" y1="7.76562" x2="-7.7685" y2="24.4826" gradientUnits="userSpaceOnUse">
<stop stop-color="#0D52E9"/>
<stop offset="0.49" stop-color="#0F6AE1"/>
<stop offset="1" stop-color="#076CE0"/>
</linearGradient>
<linearGradient id="paint1_linear_1676_2470" x1="45.9463" y1="76.5703" x2="29.1524" y2="95.8768" gradientUnits="userSpaceOnUse">
<stop stop-color="#0D52E9"/>
<stop offset="0.49" stop-color="#0F6AE1"/>
<stop offset="1" stop-color="#076CE0"/>
</linearGradient>
</defs>
</svg>
