<svg width="61" height="86" viewBox="0 0 61 86" fill="none" xmlns="http://www.w3.org/2000/svg">
<path d="M55.834 49.3204L59.875 52.1099L55.834 54.8995L53.6239 60L51.4138 54.8995L47.3727 52.1099L51.4138 49.3204L53.6239 44.2199L55.834 49.3204ZM9.33622 14.1005L13.3773 16.8901L9.33622 19.6796L7.12613 24.7801L4.91605 19.6796L0.875 16.8901L4.91605 14.1005L7.12613 9L9.33622 14.1005Z" stroke="url(#paint0_linear_1408_1944)" stroke-width="1.75" stroke-linecap="round" stroke-linejoin="round"/>
<path d="M30.3732 43.7099L30.3699 66.3052C30.3696 68.1176 28.893 69.5867 27.0714 69.5867C25.2728 69.5867 23.8057 68.1533 23.7731 66.3641L23.1624 32.8086M30.3758 43.7099L30.3791 66.3052C30.3794 68.1176 31.856 69.5867 33.6776 69.5867C35.4762 69.5867 36.9433 68.1533 36.9759 66.3644L37.5886 32.8086M18.4409 77.7687V69.5867H42.3107V77.7687M30.0849 12.769H33.4573C33.7707 12.7682 34.071 12.6439 34.2926 12.4234C34.5142 12.2029 34.6391 11.9042 34.64 11.5923V6.04368C34.64 3.8799 32.8604 2.10938 30.6856 2.10938H30.0849C27.9101 2.10938 26.1306 3.8799 26.1306 6.04368V8.83473C26.1306 10.9985 27.9101 12.769 30.0849 12.769ZM30.3758 28.9985L22.9436 32.9231C20.8632 34.0218 18.3555 32.5215 18.3555 30.178V23.8822C18.3555 20.5182 20.8712 17.6555 24.2294 17.2645C26.2695 17.0272 28.3218 16.9084 30.3758 16.9088C32.4229 16.9088 34.4699 17.0262 36.5119 17.2635C39.8722 17.6547 42.3961 20.5129 42.3961 23.8822V30.1773C42.3961 32.5217 39.8878 34.0212 37.8092 32.9234L30.3758 28.9985Z" stroke="#17A2F2" stroke-width="1.75" stroke-linecap="round" stroke-linejoin="round"/>
<path d="M46.6862 83.9885H14.0664V77.8047H46.6862V83.9885Z" stroke="url(#paint1_linear_1408_1944)" stroke-width="1.75" stroke-linecap="round" stroke-linejoin="round"/>
<defs>
<linearGradient id="paint0_linear_1408_1944" x1="58.5367" y1="9" x2="-7.7685" y2="25.717" gradientUnits="userSpaceOnUse">
<stop stop-color="#0D52E9"/>
<stop offset="0.49" stop-color="#0F6AE1"/>
<stop offset="1" stop-color="#076CE0"/>
</linearGradient>
<linearGradient id="paint1_linear_1408_1944" x1="45.9463" y1="77.8047" x2="29.1524" y2="97.1112" gradientUnits="userSpaceOnUse">
<stop stop-color="#0D52E9"/>
<stop offset="0.49" stop-color="#0F6AE1"/>
<stop offset="1" stop-color="#076CE0"/>
</linearGradient>
</defs>
</svg>
