<svg width="38" height="38" viewBox="0 0 38 38" fill="none" xmlns="http://www.w3.org/2000/svg">
<rect x="0.4" y="0.4" width="36.8699" height="36.8699" rx="18.435" stroke="white" stroke-width="0.8"/>
<path d="M18.8396 13.9723C16.1478 13.9723 13.9765 16.1435 13.9765 18.8353C13.9765 21.5271 16.1478 23.6984 18.8396 23.6984C21.5314 23.6984 23.7026 21.5271 23.7026 18.8353C23.7026 16.1435 21.5314 13.9723 18.8396 13.9723ZM18.8396 21.9969C17.1 21.9969 15.678 20.5791 15.678 18.8353C15.678 17.0916 17.0958 15.6737 18.8396 15.6737C20.5833 15.6737 22.0012 17.0916 22.0012 18.8353C22.0012 20.5791 20.5791 21.9969 18.8396 21.9969ZM25.0358 13.7734C25.0358 14.404 24.5279 14.9077 23.9015 14.9077C23.2709 14.9077 22.7672 14.3998 22.7672 13.7734C22.7672 13.147 23.2751 12.6391 23.9015 12.6391C24.5279 12.6391 25.0358 13.147 25.0358 13.7734ZM28.2567 14.9246C28.1847 13.4052 27.8377 12.0592 26.7245 10.9504C25.6157 9.84146 24.2698 9.49441 22.7503 9.41822C21.1843 9.32934 16.4906 9.32934 14.9246 9.41822C13.4094 9.49017 12.0635 9.83723 10.9504 10.9461C9.83723 12.055 9.49441 13.4009 9.41822 14.9204C9.32934 16.4863 9.32934 21.1801 9.41822 22.7461C9.49017 24.2655 9.83723 25.6114 10.9504 26.7203C12.0635 27.8292 13.4052 28.1763 14.9246 28.2524C16.4906 28.3413 21.1843 28.3413 22.7503 28.2524C24.2698 28.1805 25.6157 27.8334 26.7245 26.7203C27.8334 25.6114 28.1805 24.2655 28.2567 22.7461C28.3456 21.1801 28.3456 16.4906 28.2567 14.9246ZM26.2336 24.4263C25.9035 25.2559 25.2644 25.895 24.4306 26.2294C23.182 26.7245 20.2193 26.6103 18.8396 26.6103C17.4598 26.6103 14.4929 26.7203 13.2486 26.2294C12.419 25.8992 11.7799 25.2601 11.4455 24.4263C10.9504 23.1778 11.0646 20.2151 11.0646 18.8353C11.0646 17.4556 10.9546 14.4886 11.4455 13.2443C11.7757 12.4148 12.4148 11.7757 13.2486 11.4413C14.4971 10.9461 17.4598 11.0604 18.8396 11.0604C20.2193 11.0604 23.1863 10.9504 24.4306 11.4413C25.2601 11.7714 25.8992 12.4105 26.2336 13.2443C26.7288 14.4929 26.6145 17.4556 26.6145 18.8353C26.6145 20.2151 26.7288 23.182 26.2336 24.4263Z" fill="white"/>
</svg>
