<svg width="213" height="201" viewBox="0 0 213 201" fill="none" xmlns="http://www.w3.org/2000/svg">
<path d="M111.503 46.8674L73.623 41.3444L81.0986 199.057L210.304 163.018V31.8047L111.503 46.8674Z" fill="#D4D4D4" stroke="black" stroke-width="0.3"/>
<path d="M80.1504 149.181V144.885L112.173 140.422L209.411 155.485V163.518L112.173 143.658L80.1504 149.181Z" fill="#D4D4D4" stroke="black" stroke-width="0.3"/>
<path d="M110.609 49.0395L80.707 46.6406V144.828L110.609 140.42V49.0395Z" fill="#F7F7F7" stroke="black" stroke-width="0.3"/>
<path d="M135.994 45.1328L112.061 49.0938V140.419L135.994 144.045V45.1328Z" fill="#F7F7F7" stroke="black" stroke-width="0.3"/>
<path d="M167.904 40.6172L137.5 45.136V144.327L167.904 149.013V40.6172Z" fill="#F7F7F7" stroke="black" stroke-width="0.3"/>
<path d="M209.243 40.6719L169.41 45.4354V149.291L209.243 155.539V40.6719Z" fill="#F7F7F7" stroke="black" stroke-width="0.3"/>
<path d="M79.5371 43.9598L111.615 47.0281L152.787 41.5051L79.5371 31.7422V43.9598Z" fill="#F7F7F7" stroke="black" stroke-width="0.3"/>
<path d="M78.6441 0.226562L0.150391 34.7036L0.875635 158.497L78.6441 200.003V0.226562Z" fill="#D4D4D4" stroke="black" stroke-width="0.3"/>
<path d="M78.6992 200.227V0.226562L212.479 29.4595V162.291L209.466 163.462V50.4358L81.5444 33.3646V200.227H78.6992Z" fill="#D4D4D4" stroke="black" stroke-width="0.3"/>
<path d="M81.9355 28.8963V5.24219L209.3 32.6899V48.1432L81.9355 28.8963Z" fill="#F7F7F7" stroke="black" stroke-width="0.3"/>
<path d="M45.5059 177.968V19.8645L77.1934 6.14062V192.584L45.5059 177.968Z" fill="#F7F7F7" stroke="black" stroke-width="0.3"/>
<path d="M20.625 165.641V30.7461L43.777 20.6484V176.799L20.625 165.641Z" fill="#F7F7F7" stroke="black" stroke-width="0.3"/>
<path d="M2.4375 156.094V38.2135L18.8392 31.3516V163.904L2.4375 156.094Z" fill="#F7F7F7" stroke="black" stroke-width="0.3"/>
<path d="M202.66 122.852L171.977 125.697V170.271L202.66 162.405V122.852Z" fill="#F7F7F7" stroke="black" stroke-width="0.3"/>
<path d="M171.976 125.751L154.459 124.133V166.866L171.976 170.158V125.751Z" fill="#F7F7F7" stroke="black" stroke-width="0.3"/>
<path d="M202.66 122.845L183.803 121.617L154.459 124.128L171.976 125.746L202.66 122.845Z" fill="#D4D4D4" stroke="black" stroke-width="0.3"/>
<path d="M109.741 22.808L109.289 25.5083L108.492 25.3748L108.944 22.6744L107.282 18.3838L108.23 18.5427L109.499 21.9878L111.78 19.1374L112.686 19.2892L109.741 22.808Z" fill="black"/>
<path d="M113.437 22.8093C113.381 23.1422 113.365 23.4786 113.389 23.8185C113.413 24.1522 113.488 24.4626 113.612 24.7496C113.737 25.0367 113.917 25.2824 114.153 25.4867C114.39 25.6849 114.69 25.8145 115.054 25.8754C115.418 25.9363 115.744 25.9118 116.033 25.8017C116.322 25.6854 116.573 25.5119 116.784 25.2811C116.995 25.0503 117.167 24.7811 117.299 24.4737C117.432 24.16 117.526 23.8368 117.582 23.5038C117.638 23.1709 117.654 22.8376 117.629 22.5039C117.605 22.164 117.531 21.8505 117.407 21.5635C117.283 21.2764 117.102 21.0338 116.865 20.8356C116.629 20.6313 116.329 20.4986 115.965 20.4377C115.602 20.3768 115.275 20.4044 114.985 20.5207C114.696 20.6307 114.446 20.8012 114.235 21.032C114.024 21.2628 113.852 21.535 113.719 21.8487C113.587 22.1561 113.493 22.4763 113.437 22.8093ZM112.64 22.6757C112.715 22.2256 112.846 21.8039 113.033 21.4105C113.226 21.0119 113.47 20.6725 113.764 20.3922C114.059 20.1119 114.401 19.9062 114.791 19.7751C115.181 19.6439 115.614 19.6182 116.089 19.6979C116.565 19.7775 116.965 19.9429 117.291 20.194C117.617 20.4452 117.874 20.7512 118.061 21.1121C118.247 21.473 118.364 21.8729 118.412 22.3118C118.466 22.7455 118.455 23.1873 118.379 23.6374C118.304 24.0875 118.17 24.5118 117.976 24.9104C117.79 25.3038 117.549 25.6406 117.255 25.9209C116.961 26.2012 116.618 26.4069 116.228 26.538C115.839 26.663 115.407 26.6857 114.932 26.606C114.456 26.5263 114.055 26.364 113.728 26.1191C113.402 25.8679 113.145 25.5619 112.959 25.201C112.772 24.8401 112.652 24.4429 112.598 24.0092C112.55 23.5702 112.565 23.1258 112.64 22.6757Z" fill="black"/>
<path d="M124.148 25.5453C124.006 26.3899 123.696 26.9907 123.216 27.3477C122.738 27.6985 122.121 27.8106 121.366 27.6841C120.594 27.5547 120.023 27.2531 119.654 26.7793C119.291 26.3002 119.184 25.6198 119.332 24.7382L120.038 20.5212L120.835 20.6548L120.129 24.8718C120.03 25.4636 120.097 25.9376 120.33 26.2937C120.565 26.6436 120.951 26.8635 121.488 26.9535C121.997 27.0388 122.408 26.9524 122.722 26.6944C123.042 26.4311 123.252 26.0035 123.351 25.4117L124.057 21.1947L124.855 21.3283L124.148 25.5453Z" fill="black"/>
<path d="M126.295 21.5696L129.115 22.0421C129.685 22.1377 130.104 22.3663 130.371 22.728C130.644 23.0906 130.735 23.5401 130.646 24.0765C130.578 24.4772 130.436 24.8146 130.217 25.0886C130.004 25.3635 129.707 25.526 129.325 25.576L129.322 25.5945C129.489 25.6606 129.618 25.7456 129.71 25.8498C129.807 25.9548 129.877 26.0742 129.918 26.2078C129.965 26.3362 129.99 26.4767 129.994 26.6293C130.002 26.7829 130.002 26.9413 129.992 27.1044C129.976 27.2665 129.957 27.4313 129.935 27.5987C129.912 27.7661 129.899 27.9318 129.894 28.0959C129.89 28.2599 129.895 28.4192 129.909 28.5738C129.93 28.7231 129.973 28.8602 130.039 28.9853L129.149 28.8362C129.105 28.759 129.081 28.66 129.078 28.5391C129.081 28.4191 129.092 28.2878 129.11 28.1451C129.129 27.9962 129.15 27.838 129.172 27.6706C129.194 27.5032 129.205 27.337 129.204 27.172C129.208 27.008 129.206 26.8523 129.196 26.7048C129.187 26.5512 129.155 26.416 129.1 26.299C129.046 26.1758 128.965 26.0736 128.858 25.9922C128.752 25.9047 128.601 25.8446 128.405 25.8118L126.459 25.4856L125.986 28.3061L125.189 28.1726L126.295 21.5696ZM128.244 25.0241C128.428 25.0551 128.607 25.0692 128.78 25.0665C128.953 25.0638 129.109 25.0296 129.246 24.9639C129.39 24.893 129.511 24.7896 129.609 24.6538C129.713 24.5128 129.785 24.3221 129.825 24.0816C129.881 23.7487 129.843 23.4634 129.71 23.2257C129.577 22.9879 129.323 22.8377 128.949 22.7749L126.968 22.443L126.582 24.7457L128.244 25.0241Z" fill="black"/>
<path d="M135.032 25.9524L136.626 26.2195C137.079 26.2954 137.418 26.2635 137.643 26.1237C137.874 25.9786 138.019 25.7304 138.078 25.379C138.117 25.1447 138.115 24.9541 138.07 24.8072C138.026 24.6603 137.951 24.5401 137.846 24.4464C137.741 24.3527 137.612 24.2835 137.458 24.2388C137.311 24.1888 137.151 24.1493 136.978 24.1203L135.384 23.8531L135.032 25.9524ZM134.71 22.9797L136.884 23.3439C137.012 23.3654 137.149 23.3915 137.293 23.422C137.444 23.4473 137.591 23.4814 137.733 23.5243C137.877 23.561 138.007 23.605 138.125 23.6565C138.249 23.7089 138.35 23.7734 138.429 23.85C138.603 24.0123 138.738 24.2188 138.834 24.4694C138.936 24.7209 138.959 25.0132 138.903 25.3461C138.844 25.6975 138.715 25.9895 138.515 26.2222C138.321 26.4497 138.072 26.6012 137.766 26.6767L137.763 26.6952C138.117 26.8434 138.369 27.0757 138.517 27.3921C138.665 27.7085 138.706 28.0701 138.637 28.477C138.597 28.7175 138.519 28.9452 138.402 29.1602C138.286 29.3752 138.134 29.5589 137.947 29.7115C137.767 29.8588 137.553 29.9687 137.306 30.0413C137.064 30.1086 136.795 30.1174 136.499 30.0677L133.604 29.5827L134.71 22.9797ZM134.525 28.9764L136.522 29.311C136.875 29.3701 137.166 29.3112 137.397 29.1344C137.634 28.9585 137.783 28.6856 137.845 28.3157C137.881 28.0999 137.875 27.915 137.826 27.7611C137.777 27.6071 137.697 27.4797 137.588 27.3789C137.485 27.2729 137.357 27.1914 137.206 27.1343C137.056 27.0711 136.896 27.0254 136.729 26.9973L134.908 26.6922L134.525 28.9764Z" fill="black"/>
<path d="M140.622 23.9703L143.442 24.4428C144.012 24.5384 144.431 24.767 144.698 25.1287C144.971 25.4913 145.063 25.9408 144.973 26.4772C144.906 26.878 144.763 27.2153 144.544 27.4893C144.332 27.7642 144.034 27.9267 143.652 27.9767L143.649 27.9952C143.816 28.0613 143.945 28.1464 144.037 28.2505C144.135 28.3555 144.204 28.4749 144.245 28.6085C144.292 28.7369 144.318 28.8774 144.321 29.03C144.33 29.1836 144.329 29.342 144.319 29.5051C144.303 29.6673 144.284 29.832 144.262 29.9994C144.24 30.1668 144.226 30.3326 144.222 30.4966C144.217 30.6607 144.222 30.8199 144.236 30.9745C144.257 31.1238 144.301 31.2609 144.366 31.386L143.476 31.2369C143.432 31.1597 143.408 31.0607 143.406 30.9398C143.408 30.8199 143.419 30.6885 143.437 30.5458C143.456 30.3969 143.477 30.2387 143.499 30.0713C143.522 29.9039 143.532 29.7377 143.531 29.5728C143.536 29.4087 143.533 29.253 143.523 29.1055C143.514 28.952 143.482 28.8167 143.427 28.6997C143.373 28.5765 143.292 28.4743 143.185 28.3929C143.079 28.3054 142.928 28.2453 142.732 28.2125L140.786 27.8863L140.313 30.7069L139.516 30.5733L140.622 23.9703ZM142.571 27.4248C142.756 27.4558 142.934 27.4699 143.107 27.4672C143.28 27.4645 143.436 27.4303 143.573 27.3646C143.717 27.2937 143.838 27.1903 143.936 27.0545C144.04 26.9135 144.112 26.7228 144.152 26.4824C144.208 26.1494 144.17 25.8641 144.037 25.6264C143.904 25.3886 143.651 25.2384 143.276 25.1756L141.296 24.8437L140.91 27.1464L142.571 27.4248Z" fill="black"/>
<path d="M146.917 29.0088L148.948 29.349L148.465 26.1022L148.449 26.0994L146.917 29.0088ZM148.162 25.2337L149.043 25.3814L150.278 32.3766L149.397 32.229L149.076 30.131L146.541 29.7064L145.537 31.5822L144.723 31.4458L148.162 25.2337Z" fill="black"/>
<path d="M152.135 25.8994L152.982 26.0414L155.24 31.9246L155.257 31.9274L156.154 26.5729L156.909 26.6994L155.803 33.3024L154.93 33.1561L152.688 27.3327L152.672 27.3299L151.784 32.6289L151.028 32.5023L152.135 25.8994Z" fill="black"/>
<path d="M158.181 32.9403L159.507 33.1625C159.597 33.1775 159.709 33.19 159.846 33.2002C159.983 33.2042 160.132 33.1911 160.292 33.1609C160.454 33.1246 160.616 33.0631 160.78 32.9765C160.95 32.8909 161.11 32.7623 161.259 32.5909C161.409 32.4194 161.544 32.198 161.664 31.9266C161.791 31.6499 161.888 31.3082 161.956 30.9013C162.022 30.5067 162.045 30.1492 162.024 29.8287C162.009 29.5031 161.939 29.2187 161.813 28.9758C161.694 28.7276 161.517 28.5269 161.284 28.3738C161.052 28.2144 160.752 28.1038 160.382 28.042L159.04 27.817L158.181 32.9403ZM158.367 26.9436L160.422 27.2881C161.345 27.4428 162.012 27.8207 162.424 28.422C162.835 29.0233 162.951 29.8542 162.774 30.9146C162.681 31.4695 162.542 31.9533 162.358 32.3661C162.175 32.7728 161.941 33.1044 161.656 33.361C161.373 33.6114 161.036 33.7832 160.647 33.8764C160.257 33.9696 159.814 33.9745 159.316 33.891L157.26 33.5466L158.367 26.9436Z" fill="black"/>
<path d="M166.946 28.3812L167.743 28.5147L167.267 31.3538L170.422 31.8825L170.898 29.0434L171.695 29.177L170.589 35.7799L169.791 35.6463L170.298 32.6223L167.143 32.0936L166.636 35.1177L165.839 34.9841L166.946 28.3812Z" fill="black"/>
<path d="M173.169 29.424L177.306 30.1171L177.182 30.857L173.842 30.2974L173.49 32.3966L176.604 32.9183L176.48 33.6581L173.367 33.1364L172.984 35.4207L176.349 35.9845L176.225 36.7243L172.063 36.0269L173.169 29.424Z" fill="black"/>
<path d="M178.467 30.3116L181.286 30.784C181.856 30.8797 182.275 31.1083 182.543 31.47C182.815 31.8326 182.907 32.2821 182.817 32.8185C182.75 33.2192 182.607 33.5566 182.389 33.8306C182.176 34.1055 181.878 34.268 181.496 34.318L181.493 34.3365C181.66 34.4025 181.79 34.4876 181.881 34.5918C181.979 34.6968 182.048 34.8162 182.089 34.9498C182.136 35.0782 182.162 35.2187 182.165 35.3713C182.174 35.5249 182.173 35.6833 182.163 35.8464C182.147 36.0085 182.128 36.1733 182.106 36.3407C182.084 36.5081 182.07 36.6738 182.066 36.8379C182.061 37.0019 182.066 37.1612 182.081 37.3157C182.102 37.465 182.145 37.6022 182.21 37.7272L181.321 37.5782C181.276 37.501 181.252 37.402 181.25 37.2811C181.253 37.1611 181.263 37.0298 181.281 36.8871C181.3 36.7382 181.321 36.58 181.343 36.4126C181.366 36.2452 181.376 36.079 181.375 35.914C181.38 35.75 181.377 35.5943 181.367 35.4468C181.358 35.2932 181.326 35.158 181.271 35.041C181.217 34.9178 181.137 34.8155 181.029 34.7342C180.923 34.6467 180.772 34.5866 180.577 34.5537L178.63 34.2276L178.157 37.0481L177.36 36.9146L178.467 30.3116ZM180.415 33.7661C180.6 33.7971 180.779 33.8112 180.952 33.8085C181.125 33.8058 181.28 33.7716 181.417 33.7059C181.562 33.6349 181.682 33.5316 181.78 33.3958C181.884 33.2548 181.956 33.0641 181.997 32.8236C182.052 32.4907 182.014 32.2054 181.881 31.9677C181.748 31.7299 181.495 31.5796 181.12 31.5168L179.14 31.185L178.754 33.4877L180.415 33.7661Z" fill="black"/>
<path d="M184.379 31.3023L188.515 31.9954L188.391 32.7353L185.052 32.1757L184.7 34.2749L187.813 34.7965L187.689 35.5364L184.576 35.0147L184.193 37.2989L187.558 37.8628L187.434 38.6026L183.272 37.9052L184.379 31.3023Z" fill="black"/>
<path d="M176.216 141.968L176.333 143.342L175.97 143.373L175.853 141.999L174.63 140.103L175.061 140.067L176.015 141.597L176.677 139.929L177.089 139.894L176.216 141.968Z" fill="black"/>
<path d="M177.826 141.523C177.84 141.692 177.872 141.859 177.922 142.022C177.972 142.182 178.04 142.325 178.128 142.45C178.216 142.575 178.323 142.673 178.449 142.745C178.576 142.813 178.722 142.84 178.887 142.826C179.053 142.812 179.192 142.76 179.305 142.672C179.417 142.58 179.506 142.465 179.572 142.327C179.637 142.189 179.68 142.036 179.702 141.87C179.723 141.701 179.727 141.532 179.712 141.362C179.698 141.193 179.666 141.028 179.617 140.868C179.567 140.705 179.498 140.561 179.41 140.435C179.323 140.31 179.216 140.213 179.089 140.145C178.963 140.074 178.817 140.045 178.651 140.059C178.486 140.073 178.347 140.126 178.234 140.218C178.121 140.307 178.032 140.42 177.967 140.558C177.902 140.697 177.858 140.85 177.837 141.02C177.815 141.186 177.811 141.354 177.826 141.523ZM177.463 141.554C177.444 141.325 177.452 141.103 177.487 140.888C177.525 140.67 177.592 140.475 177.687 140.303C177.783 140.13 177.908 139.988 178.063 139.877C178.217 139.766 178.403 139.701 178.619 139.683C178.836 139.665 179.029 139.697 179.201 139.78C179.372 139.864 179.519 139.982 179.643 140.136C179.766 140.29 179.863 140.471 179.935 140.68C180.009 140.885 180.056 141.102 180.075 141.331C180.095 141.56 180.086 141.784 180.048 142.002C180.012 142.217 179.947 142.41 179.851 142.583C179.755 142.755 179.63 142.897 179.476 143.008C179.321 143.116 179.135 143.179 178.919 143.198C178.702 143.216 178.509 143.185 178.338 143.105C178.166 143.022 178.019 142.903 177.896 142.749C177.772 142.595 177.674 142.416 177.6 142.21C177.528 142.002 177.483 141.783 177.463 141.554Z" fill="black"/>
<path d="M182.81 141.568C182.847 141.997 182.781 142.328 182.614 142.561C182.446 142.79 182.191 142.919 181.847 142.948C181.496 142.978 181.212 142.9 180.996 142.713C180.782 142.522 180.656 142.203 180.618 141.754L180.435 139.609L180.798 139.578L180.981 141.723C181.007 142.025 181.091 142.248 181.234 142.394C181.377 142.536 181.571 142.597 181.815 142.576C182.047 142.557 182.216 142.465 182.323 142.301C182.431 142.134 182.473 141.9 182.447 141.598L182.265 139.453L182.627 139.422L182.81 141.568Z" fill="black"/>
<path d="M183.283 139.366L184.566 139.257C184.826 139.235 185.035 139.296 185.193 139.44C185.354 139.585 185.447 139.793 185.47 140.066C185.487 140.27 185.464 140.452 185.401 140.612C185.34 140.772 185.23 140.888 185.069 140.958L185.07 140.967C185.15 140.98 185.216 141.006 185.269 141.045C185.323 141.085 185.367 141.135 185.401 141.195C185.436 141.252 185.464 141.318 185.483 141.392C185.504 141.466 185.523 141.543 185.537 141.624C185.549 141.705 185.56 141.788 185.57 141.873C185.58 141.957 185.593 142.04 185.61 142.12C185.627 142.201 185.648 142.278 185.672 142.352C185.699 142.423 185.734 142.484 185.777 142.538L185.372 142.572C185.343 142.54 185.322 142.494 185.306 142.435C185.294 142.376 185.283 142.311 185.274 142.239C185.265 142.164 185.256 142.084 185.246 142C185.236 141.915 185.222 141.833 185.202 141.752C185.185 141.672 185.165 141.596 185.144 141.525C185.122 141.451 185.093 141.389 185.055 141.338C185.017 141.285 184.97 141.245 184.914 141.218C184.858 141.188 184.785 141.177 184.696 141.184L183.81 141.26L183.932 142.695L183.569 142.726L183.283 139.366ZM184.534 140.819C184.618 140.812 184.697 140.797 184.772 140.775C184.847 140.753 184.911 140.717 184.963 140.668C185.018 140.616 185.059 140.551 185.085 140.473C185.114 140.392 185.123 140.29 185.113 140.168C185.099 139.998 185.049 139.863 184.963 139.763C184.878 139.663 184.75 139.62 184.579 139.635L183.678 139.712L183.778 140.883L184.534 140.819Z" fill="black"/>
<path d="M187.599 140.453L188.324 140.392C188.531 140.374 188.675 140.318 188.756 140.222C188.84 140.123 188.874 139.985 188.859 139.806C188.849 139.687 188.826 139.594 188.789 139.527C188.753 139.461 188.706 139.411 188.65 139.378C188.593 139.345 188.529 139.327 188.457 139.324C188.387 139.317 188.312 139.317 188.233 139.324L187.508 139.385L187.599 140.453ZM187.113 139.04L188.102 138.956C188.161 138.951 188.223 138.947 188.29 138.944C188.358 138.939 188.426 138.938 188.493 138.941C188.56 138.942 188.622 138.948 188.679 138.959C188.739 138.969 188.791 138.989 188.834 139.016C188.929 139.075 189.012 139.159 189.083 139.27C189.156 139.381 189.2 139.521 189.215 139.69C189.23 139.869 189.208 140.027 189.148 140.165C189.09 140.3 188.999 140.404 188.874 140.477L188.875 140.487C189.047 140.517 189.183 140.6 189.285 140.736C189.386 140.873 189.446 141.045 189.463 141.252C189.474 141.374 189.466 141.495 189.44 141.614C189.414 141.733 189.37 141.841 189.306 141.938C189.245 142.032 189.165 142.111 189.065 142.177C188.968 142.239 188.852 142.276 188.717 142.287L187.399 142.399L187.113 139.04ZM187.73 141.992L188.639 141.915C188.799 141.901 188.919 141.837 188.999 141.723C189.082 141.608 189.115 141.457 189.099 141.269C189.09 141.159 189.066 141.069 189.026 141C188.987 140.931 188.938 140.878 188.878 140.842C188.821 140.803 188.756 140.778 188.683 140.769C188.611 140.756 188.536 140.753 188.46 140.759L187.631 140.83L187.73 141.992Z" fill="black"/>
<path d="M189.804 138.811L191.087 138.701C191.346 138.679 191.556 138.74 191.714 138.885C191.875 139.029 191.967 139.238 191.99 139.511C192.008 139.714 191.985 139.897 191.922 140.057C191.861 140.217 191.75 140.332 191.589 140.403L191.59 140.412C191.671 140.424 191.737 140.45 191.789 140.49C191.844 140.529 191.888 140.579 191.921 140.64C191.957 140.697 191.984 140.762 192.003 140.836C192.025 140.91 192.043 140.988 192.058 141.069C192.07 141.15 192.081 141.233 192.09 141.317C192.1 141.402 192.114 141.484 192.131 141.565C192.148 141.646 192.169 141.723 192.193 141.797C192.219 141.867 192.254 141.929 192.297 141.982L191.892 142.016C191.864 141.984 191.842 141.939 191.827 141.88C191.814 141.821 191.803 141.756 191.795 141.684C191.786 141.609 191.776 141.529 191.767 141.444C191.757 141.36 191.742 141.277 191.723 141.197C191.705 141.116 191.686 141.04 191.665 140.97C191.643 140.896 191.613 140.833 191.576 140.783C191.538 140.729 191.491 140.689 191.435 140.662C191.378 140.632 191.305 140.621 191.216 140.629L190.33 140.704L190.453 142.139L190.09 142.17L189.804 138.811ZM191.054 140.263C191.138 140.256 191.218 140.241 191.293 140.219C191.368 140.197 191.432 140.162 191.484 140.113C191.539 140.061 191.579 139.996 191.606 139.918C191.635 139.836 191.644 139.734 191.634 139.612C191.619 139.443 191.569 139.308 191.484 139.208C191.398 139.108 191.27 139.065 191.1 139.079L190.198 139.156L190.298 140.328L191.054 140.263Z" fill="black"/>
<path d="M193.132 140.513L194.056 140.434L193.468 138.906L193.461 138.907L193.132 140.513ZM193.235 138.518L193.636 138.484L194.988 141.753L194.587 141.787L194.203 140.801L193.049 140.899L192.83 141.937L192.46 141.968L193.235 138.518Z" fill="black"/>
<path d="M195.043 138.364L195.429 138.331L197.097 140.933L197.105 140.933L196.872 138.208L197.216 138.179L197.502 141.539L197.105 141.572L195.451 138.998L195.443 138.998L195.673 141.694L195.329 141.724L195.043 138.364Z" fill="black"/>
<path d="M198.496 141.075L199.1 141.023C199.14 141.02 199.191 141.012 199.252 141.001C199.312 140.986 199.375 140.962 199.442 140.928C199.508 140.891 199.571 140.841 199.633 140.779C199.697 140.717 199.751 140.634 199.796 140.533C199.842 140.431 199.875 140.306 199.895 140.159C199.919 140.009 199.921 139.83 199.904 139.623C199.887 139.422 199.855 139.245 199.808 139.091C199.764 138.934 199.7 138.803 199.617 138.7C199.536 138.593 199.436 138.516 199.317 138.469C199.197 138.42 199.053 138.402 198.885 138.416L198.274 138.468L198.496 141.075ZM197.879 138.123L198.815 138.043C199.235 138.007 199.57 138.111 199.819 138.356C200.068 138.6 200.215 138.992 200.261 139.531C200.285 139.813 200.281 140.066 200.249 140.29C200.216 140.511 200.153 140.701 200.059 140.861C199.965 141.018 199.838 141.142 199.679 141.235C199.521 141.327 199.328 141.383 199.101 141.402L198.166 141.482L197.879 138.123Z" fill="black"/>
<path d="M183.08 144.943L183.443 144.912L183.566 146.357L185.002 146.234L184.879 144.79L185.242 144.759L185.528 148.118L185.165 148.149L185.034 146.611L183.598 146.733L183.729 148.272L183.366 148.302L183.08 144.943Z" fill="black"/>
<path d="M185.913 144.702L187.795 144.541L187.827 144.918L186.307 145.047L186.398 146.115L187.815 145.995L187.847 146.371L186.43 146.492L186.529 147.654L188.061 147.523L188.093 147.9L186.199 148.061L185.913 144.702Z" fill="black"/>
<path d="M188.323 144.496L189.607 144.387C189.866 144.365 190.075 144.426 190.234 144.571C190.395 144.715 190.487 144.923 190.51 145.196C190.528 145.4 190.505 145.582 190.441 145.742C190.381 145.902 190.27 146.018 190.109 146.088L190.11 146.098C190.191 146.11 190.257 146.136 190.309 146.175C190.364 146.215 190.408 146.265 190.441 146.325C190.477 146.382 190.504 146.448 190.523 146.522C190.545 146.596 190.563 146.674 190.578 146.754C190.59 146.836 190.601 146.918 190.61 147.003C190.62 147.087 190.634 147.17 190.651 147.251C190.668 147.331 190.688 147.409 190.713 147.482C190.739 147.553 190.774 147.615 190.817 147.668L190.412 147.702C190.384 147.67 190.362 147.624 190.347 147.566C190.334 147.507 190.323 147.441 190.315 147.369C190.306 147.294 190.296 147.214 190.287 147.13C190.277 147.046 190.262 146.963 190.242 146.883C190.225 146.802 190.206 146.726 190.185 146.655C190.163 146.581 190.133 146.519 190.096 146.469C190.058 146.415 190.011 146.375 189.954 146.348C189.898 146.318 189.825 146.307 189.736 146.314L188.85 146.39L188.972 147.825L188.61 147.856L188.323 144.496ZM189.574 145.949C189.658 145.942 189.738 145.927 189.813 145.905C189.888 145.883 189.952 145.847 190.004 145.799C190.058 145.747 190.099 145.682 190.126 145.603C190.155 145.522 190.164 145.42 190.154 145.298C190.139 145.128 190.089 144.994 190.004 144.893C189.918 144.793 189.79 144.751 189.62 144.765L188.718 144.842L188.818 146.013L189.574 145.949Z" fill="black"/>
<path d="M191.014 144.267L192.897 144.107L192.929 144.483L191.409 144.613L191.5 145.681L192.917 145.56L192.949 145.936L191.532 146.057L191.631 147.219L193.162 147.089L193.195 147.465L191.3 147.627L191.014 144.267Z" fill="black"/>
<path d="M142.76 78.3491L142.708 79.727L142.363 79.7139L142.415 78.336L141.487 76.3068L141.898 76.3223L142.615 77.9561L143.435 76.3805L143.828 76.3954L142.76 78.3491Z" fill="black"/>
<path d="M144.329 78.1014C144.322 78.2712 144.333 78.4402 144.361 78.6082C144.388 78.7731 144.436 78.9229 144.504 79.0578C144.571 79.1927 144.661 79.3032 144.771 79.3893C144.882 79.4722 145.016 79.5167 145.174 79.5227C145.331 79.5286 145.469 79.4944 145.585 79.4201C145.702 79.3426 145.8 79.2392 145.877 79.1098C145.955 78.9805 146.014 78.8346 146.054 78.6723C146.094 78.5069 146.118 78.3392 146.124 78.1693C146.131 77.9995 146.12 77.8321 146.092 77.6672C146.065 77.4992 146.017 77.3478 145.949 77.2129C145.882 77.078 145.792 76.9691 145.681 76.8862C145.571 76.8001 145.436 76.754 145.279 76.7481C145.122 76.7421 144.984 76.7779 144.867 76.8553C144.75 76.9297 144.653 77.0315 144.575 77.1609C144.498 77.2903 144.439 77.4377 144.399 77.6031C144.358 77.7654 144.335 77.9315 144.329 78.1014ZM143.984 78.0883C143.992 77.8587 144.026 77.6394 144.085 77.4306C144.146 77.2187 144.232 77.0329 144.343 76.8733C144.453 76.7136 144.587 76.588 144.746 76.4963C144.905 76.4047 145.087 76.3628 145.293 76.3706C145.499 76.3784 145.678 76.434 145.829 76.5374C145.981 76.6407 146.105 76.7762 146.203 76.9437C146.301 77.1113 146.372 77.3029 146.414 77.5188C146.46 77.7316 146.478 77.9528 146.469 78.1824C146.461 78.4121 146.426 78.6328 146.364 78.8447C146.305 79.0536 146.221 79.2378 146.11 79.3974C146 79.5571 145.865 79.6827 145.707 79.7744C145.548 79.8629 145.366 79.9032 145.16 79.8954C144.954 79.8876 144.775 79.8336 144.624 79.7334C144.472 79.63 144.348 79.4945 144.25 79.327C144.152 79.1595 144.08 78.9693 144.035 78.7565C143.992 78.5407 143.975 78.3179 143.984 78.0883Z" fill="black"/>
<path d="M149.017 78.7467C149 79.1777 148.9 79.4983 148.715 79.7087C148.53 79.9159 148.274 80.0133 147.946 80.0009C147.612 79.9883 147.354 79.8761 147.173 79.6645C146.994 79.4498 146.914 79.1176 146.931 78.6677L147.012 76.516L147.357 76.5291L147.276 78.6808C147.264 78.9828 147.317 79.2148 147.435 79.3767C147.553 79.5355 147.728 79.6194 147.961 79.6282C148.181 79.6365 148.351 79.5658 148.471 79.4159C148.593 79.2631 148.66 79.0356 148.671 78.7336L148.753 76.5819L149.098 76.595L149.017 78.7467Z" fill="black"/>
<path d="M149.722 76.6186L150.943 76.6648C151.19 76.6742 151.38 76.7601 151.512 76.9227C151.647 77.0853 151.709 77.3034 151.698 77.5771C151.691 77.7816 151.648 77.9595 151.569 78.1109C151.493 78.2624 151.375 78.3635 151.215 78.4141L151.215 78.4236C151.289 78.4453 151.349 78.479 151.393 78.5248C151.44 78.5707 151.476 78.6256 151.5 78.6895C151.527 78.7504 151.545 78.8188 151.554 78.8948C151.566 78.9708 151.573 79.0499 151.578 79.1319C151.579 79.2139 151.58 79.2974 151.579 79.3824C151.578 79.4675 151.581 79.551 151.588 79.6332C151.594 79.7154 151.605 79.7945 151.619 79.8707C151.635 79.9437 151.661 80.0093 151.695 80.0673L151.31 80.0527C151.287 80.0172 151.272 79.9693 151.264 79.9092C151.259 79.8492 151.257 79.7829 151.257 79.7105C151.258 79.6349 151.258 79.5546 151.259 79.4695C151.26 79.3845 151.256 79.3009 151.247 79.2186C151.24 79.1365 151.231 79.0589 151.219 78.986C151.208 78.91 151.187 78.8446 151.158 78.79C151.128 78.7321 151.089 78.6865 151.039 78.6532C150.989 78.6166 150.922 78.5968 150.837 78.5935L149.994 78.5616L149.94 80.0008L149.594 79.9877L149.722 76.6186ZM150.728 78.2114C150.808 78.2144 150.885 78.2094 150.958 78.1964C151.031 78.1835 151.095 78.156 151.15 78.1139C151.208 78.0689 151.254 78.0092 151.288 77.9349C151.325 77.8575 151.346 77.7575 151.35 77.6348C151.357 77.4649 151.326 77.3251 151.257 77.2154C151.189 77.1057 151.073 77.0478 150.911 77.0416L150.053 77.0092L150.009 78.1841L150.728 78.2114Z" fill="black"/>
<path d="M153.657 78.2183L154.348 78.2445C154.544 78.2519 154.686 78.2132 154.774 78.1283C154.865 78.0404 154.914 77.9068 154.921 77.7275C154.925 77.6079 154.914 77.513 154.888 77.4427C154.861 77.3724 154.823 77.3174 154.774 77.2777C154.724 77.238 154.666 77.2122 154.598 77.2002C154.533 77.1851 154.463 77.1762 154.388 77.1733L153.698 77.1472L153.657 78.2183ZM153.367 76.7566L154.308 76.7923C154.364 76.7944 154.423 76.7982 154.486 76.8037C154.551 76.8062 154.615 76.8133 154.678 76.8252C154.741 76.8338 154.799 76.8471 154.851 76.8648C154.906 76.8826 154.953 76.908 154.99 76.941C155.073 77.0102 155.141 77.1042 155.194 77.2228C155.251 77.3414 155.275 77.4857 155.269 77.6556C155.262 77.8349 155.222 77.9893 155.15 78.1189C155.079 78.2454 154.981 78.3378 154.855 78.396L154.855 78.4054C155.013 78.4555 155.132 78.5545 155.211 78.7025C155.291 78.8504 155.326 79.0281 155.318 79.2358C155.314 79.3585 155.292 79.4774 155.254 79.5925C155.216 79.7076 155.161 79.8095 155.089 79.8981C155.021 79.9837 154.936 80.053 154.834 80.1058C154.735 80.1556 154.622 80.1781 154.493 80.1732L153.239 80.1258L153.367 76.7566ZM153.599 79.7613L154.464 79.7941C154.616 79.7999 154.737 79.7509 154.826 79.6471C154.917 79.5435 154.967 79.3973 154.974 79.2085C154.978 79.0984 154.966 79.0066 154.937 78.9331C154.908 78.8595 154.868 78.8013 154.816 78.7584C154.767 78.7124 154.709 78.6803 154.641 78.662C154.574 78.6405 154.504 78.6284 154.432 78.6257L153.643 78.5958L153.599 79.7613Z" fill="black"/>
<path d="M155.927 76.8536L157.149 76.8998C157.396 76.9092 157.585 76.9951 157.717 77.1576C157.852 77.3202 157.914 77.5384 157.904 77.8121C157.896 78.0166 157.853 78.1945 157.774 78.3459C157.698 78.4974 157.58 78.5984 157.421 78.6491L157.42 78.6585C157.495 78.6802 157.554 78.714 157.599 78.7598C157.645 78.8057 157.681 78.8606 157.705 78.9245C157.732 78.9854 157.75 79.0538 157.759 79.1297C157.771 79.2058 157.779 79.2848 157.783 79.3669C157.785 79.4489 157.785 79.5324 157.784 79.6174C157.784 79.7024 157.787 79.786 157.793 79.8682C157.8 79.9503 157.81 80.0295 157.824 80.1056C157.841 80.1787 157.866 80.2443 157.9 80.3023L157.515 80.2877C157.492 80.2522 157.477 80.2043 157.47 80.1442C157.465 80.0841 157.462 80.0179 157.463 79.9455C157.463 79.8699 157.464 79.7896 157.465 79.7045C157.465 79.6195 157.461 79.5359 157.452 79.4536C157.446 79.3714 157.436 79.2939 157.425 79.221C157.413 79.145 157.392 79.0796 157.363 79.0249C157.334 78.9671 157.294 78.9215 157.244 78.8881C157.195 78.8516 157.128 78.8317 157.043 78.8285L156.2 78.7966L156.145 80.2358L155.8 80.2227L155.927 76.8536ZM156.934 78.4463C157.013 78.4494 157.09 78.4444 157.163 78.4314C157.237 78.4184 157.301 78.3909 157.356 78.3489C157.413 78.3038 157.459 78.2442 157.494 78.1698C157.53 78.0925 157.551 77.9925 157.556 77.8698C157.562 77.6999 157.531 77.5601 157.463 77.4504C157.394 77.3407 157.278 77.2828 157.116 77.2766L156.258 77.2441L156.214 78.4191L156.934 78.4463Z" fill="black"/>
<path d="M158.86 78.9446L159.74 78.9779L159.367 77.3902L159.359 77.3899L158.86 78.9446ZM159.193 76.9772L159.575 76.9917L160.461 80.3992L160.08 80.3848L159.834 79.3595L158.737 79.318L158.408 80.3215L158.055 80.3081L159.193 76.9772Z" fill="black"/>
<path d="M160.914 77.0424L161.281 77.0563L162.544 79.8402L162.551 79.8404L162.655 77.1083L162.982 77.1207L162.854 80.4898L162.476 80.4755L161.223 77.7204L161.216 77.7201L161.113 80.4239L160.786 80.4115L160.914 77.0424Z" fill="black"/>
<path d="M163.845 80.1493L164.419 80.1711C164.458 80.1725 164.506 80.1712 164.565 80.1671C164.623 80.1599 164.686 80.1434 164.752 80.1175C164.819 80.0885 164.885 80.0469 164.95 79.9927C165.017 79.9385 165.078 79.8637 165.133 79.7681C165.188 79.6725 165.233 79.5529 165.27 79.4094C165.31 79.2629 165.334 79.0858 165.341 78.8781C165.349 78.6768 165.34 78.4969 165.315 78.3384C165.292 78.1769 165.247 78.0397 165.181 77.927C165.117 77.8111 165.032 77.7229 164.925 77.6621C164.819 77.5982 164.685 77.5632 164.525 77.5572L163.944 77.5352L163.845 80.1493ZM163.613 77.1446L164.503 77.1783C164.903 77.1934 165.206 77.3372 165.411 77.6096C165.617 77.882 165.71 78.2888 165.689 78.8299C165.678 79.113 165.645 79.3637 165.588 79.5821C165.531 79.7973 165.449 79.9785 165.342 80.1257C165.234 80.2697 165.1 80.378 164.94 80.4507C164.779 80.5234 164.591 80.5556 164.376 80.5475L163.485 80.5137L163.613 77.1446Z" fill="black"/>
<path d="M148.872 82.1299L149.217 82.143L149.162 83.5916L150.529 83.6434L150.584 82.1947L150.929 82.2078L150.801 85.5769L150.456 85.5639L150.514 84.0209L149.148 83.9691L149.09 85.5121L148.744 85.499L148.872 82.1299Z" fill="black"/>
<path d="M151.567 82.232L153.359 82.2998L153.345 82.6773L151.898 82.6225L151.858 83.6937L153.206 83.7447L153.192 84.1222L151.843 84.0712L151.799 85.2367L153.257 85.2919L153.242 85.6694L151.44 85.6011L151.567 82.232Z" fill="black"/>
<path d="M153.862 82.3189L155.083 82.3651C155.33 82.3745 155.52 82.4604 155.652 82.6229C155.786 82.7855 155.848 83.0037 155.838 83.2774C155.83 83.4818 155.787 83.6598 155.709 83.8112C155.633 83.9626 155.515 84.0637 155.355 84.1144L155.355 84.1238C155.429 84.1455 155.489 84.1793 155.533 84.2251C155.58 84.2709 155.615 84.3258 155.639 84.3898C155.666 84.4506 155.684 84.519 155.694 84.595C155.705 84.6711 155.713 84.7501 155.717 84.8322C155.719 84.9142 155.72 84.9977 155.719 85.0827C155.718 85.1677 155.721 85.2513 155.727 85.3335C155.734 85.4156 155.744 85.4948 155.759 85.5709C155.775 85.644 155.801 85.7095 155.835 85.7675L155.45 85.753C155.427 85.7174 155.411 85.6696 155.404 85.6095C155.399 85.5494 155.397 85.4832 155.397 85.4107C155.397 85.3351 155.398 85.2548 155.399 85.1698C155.4 85.0848 155.396 85.0011 155.386 84.9189C155.38 84.8367 155.371 84.7592 155.359 84.6863C155.347 84.6102 155.327 84.5449 155.297 84.4902C155.268 84.4324 155.228 84.3868 155.179 84.3534C155.129 84.3169 155.062 84.297 154.977 84.2938L154.134 84.2619L154.079 85.7011L153.734 85.688L153.862 82.3189ZM154.868 83.9116C154.948 83.9147 155.024 83.9097 155.098 83.8967C155.171 83.8837 155.235 83.8562 155.29 83.8142C155.348 83.7691 155.393 83.7094 155.428 83.6351C155.465 83.5578 155.485 83.4577 155.49 83.3351C155.497 83.1652 155.465 83.0254 155.397 82.9157C155.328 82.806 155.213 82.748 155.05 82.7419L154.193 82.7094L154.148 83.8844L154.868 83.9116Z" fill="black"/>
<path d="M156.422 82.4158L158.214 82.4837L158.2 82.8612L156.753 82.8064L156.713 83.8775L158.061 83.9286L158.047 84.3061L156.698 84.255L156.654 85.4205L158.112 85.4757L158.097 85.8532L156.295 85.785L156.422 82.4158Z" fill="black"/>
<path d="M84.5334 76.4168L84.6172 77.7931L84.2724 77.8141L84.1885 76.4378L83.0654 74.5098L83.4756 74.4848L84.3501 76.04L85.0112 74.3913L85.4032 74.3674L84.5334 76.4168Z" fill="black"/>
<path d="M86.07 76.0157C86.0804 76.1853 86.1075 76.3524 86.1516 76.5169C86.1954 76.6782 86.2577 76.8227 86.3383 76.9502C86.4189 77.0778 86.5186 77.1789 86.6373 77.2537C86.7559 77.3253 86.8938 77.3563 87.0511 77.3468C87.2084 77.3372 87.3415 77.2896 87.4505 77.2041C87.5593 77.1155 87.6459 77.003 87.7105 76.8666C87.7751 76.7302 87.8193 76.5793 87.8432 76.4138C87.867 76.2452 87.8737 76.0761 87.8633 75.9064C87.853 75.7367 87.8259 75.5712 87.7821 75.4099C87.738 75.2454 87.6757 75.0994 87.5951 74.9719C87.5144 74.8443 87.4148 74.7447 87.2963 74.6731C87.1776 74.5983 87.0396 74.5657 86.8823 74.5753C86.7249 74.5849 86.5919 74.634 86.4831 74.7226C86.3742 74.8081 86.2874 74.9191 86.2229 75.0555C86.1583 75.1919 86.1141 75.3444 86.0904 75.513C86.0665 75.6784 86.0597 75.846 86.07 76.0157ZM85.7252 76.0367C85.7112 75.8073 85.7232 75.5858 85.7612 75.3722C85.8014 75.1552 85.8686 74.9619 85.9627 74.7922C86.0568 74.6225 86.1783 74.4842 86.3273 74.3773C86.4762 74.2705 86.6536 74.2108 86.8593 74.1983C87.065 74.1857 87.2483 74.2234 87.4091 74.3114C87.5699 74.3994 87.7073 74.5219 87.8213 74.679C87.9354 74.836 88.0243 75.0198 88.0881 75.2304C88.1542 75.4377 88.1942 75.656 88.2082 75.8854C88.2222 76.1148 88.209 76.3379 88.1688 76.5548C88.1308 76.7685 88.0648 76.9601 87.9707 77.1299C87.8765 77.2996 87.755 77.4379 87.6061 77.5448C87.4569 77.6485 87.2795 77.7066 87.0738 77.7191C86.8681 77.7316 86.6849 77.6955 86.5243 77.6107C86.3635 77.5227 86.226 77.4002 86.112 77.2431C85.998 77.0861 85.908 76.9039 85.8419 76.6966C85.778 76.486 85.7391 76.2661 85.7252 76.0367Z" fill="black"/>
<path d="M90.7987 76.1959C90.8249 76.6264 90.7563 76.9554 90.5928 77.183C90.4292 77.4074 90.184 77.5296 89.8573 77.5495C89.5233 77.5699 89.2557 77.4837 89.0545 77.2909C88.8555 77.0949 88.7423 76.7722 88.7149 76.3229L88.584 74.1736L88.9289 74.1526L89.0598 76.3019C89.0782 76.6035 89.1539 76.8291 89.2869 76.9787C89.4197 77.1252 89.6023 77.1913 89.8346 77.1772C90.0548 77.1638 90.2171 77.0766 90.3215 76.9157C90.4281 76.7515 90.4722 76.5186 90.4538 76.2169L90.3229 74.0677L90.6677 74.0466L90.7987 76.1959Z" fill="black"/>
<path d="M91.2909 74.0087L92.5107 73.9344C92.7575 73.9193 92.9547 73.9862 93.1022 74.1349C93.2522 74.2834 93.3355 74.4944 93.3521 74.7678C93.3646 74.972 93.3392 75.1533 93.2759 75.3117C93.2151 75.47 93.1078 75.5822 92.954 75.6483L92.9545 75.6577C93.0307 75.672 93.0931 75.6997 93.1418 75.7409C93.1929 75.782 93.2336 75.8331 93.2641 75.8943C93.2968 75.9523 93.3214 76.0186 93.3381 76.0932C93.3573 76.1678 93.3729 76.2457 93.3852 76.3269C93.395 76.4083 93.4037 76.4914 93.4113 76.5761C93.4189 76.6608 93.43 76.7437 93.4446 76.8248C93.4593 76.9059 93.4774 76.9836 93.4989 77.058C93.5227 77.1291 93.5545 77.1918 93.5942 77.2462L93.2094 77.2696C93.1831 77.2365 93.1633 77.1904 93.15 77.1313C93.1391 77.072 93.1302 77.0063 93.1234 76.9342C93.1164 76.859 93.1091 76.779 93.1015 76.6943C93.0939 76.6096 93.0816 76.5268 93.0645 76.4458C93.0498 76.3647 93.033 76.2885 93.0141 76.2171C92.995 76.1425 92.9681 76.0795 92.9334 76.028C92.8985 75.9734 92.8546 75.9319 92.8019 75.9036C92.749 75.8721 92.6802 75.8589 92.5954 75.8641L91.7533 75.9154L91.8408 77.353L91.496 77.374L91.2909 74.0087ZM92.4491 75.4946C92.5289 75.4897 92.6047 75.4772 92.6763 75.4571C92.748 75.4369 92.8091 75.4032 92.8596 75.356C92.9124 75.3055 92.9522 75.2416 92.9791 75.1642C93.0082 75.0836 93.019 74.982 93.0116 74.8595C93.0012 74.6898 92.9565 74.5537 92.8774 74.4513C92.7983 74.3489 92.6776 74.3027 92.5155 74.3125L91.6588 74.3647L91.7303 75.5384L92.4491 75.4946Z" fill="black"/>
<path d="M95.3646 75.2129L96.0543 75.1708C96.2504 75.1589 96.3881 75.1063 96.4674 75.0132C96.549 74.9168 96.5843 74.779 96.5734 74.5999C96.5661 74.4805 96.5459 74.3871 96.5126 74.3197C96.4793 74.2524 96.4362 74.2014 96.383 74.1668C96.3299 74.1322 96.2692 74.1122 96.2009 74.1069C96.1347 74.0983 96.0642 74.0963 95.9892 74.1009L95.2994 74.1429L95.3646 75.2129ZM94.9316 73.7869L95.8718 73.7296C95.9275 73.7262 95.9869 73.7242 96.05 73.7235C96.1153 73.7195 96.1797 73.7203 96.2432 73.7259C96.3065 73.7283 96.3653 73.7358 96.4195 73.7483C96.4761 73.7606 96.5247 73.7813 96.5654 73.8103C96.6541 73.8712 96.731 73.9579 96.7962 74.0707C96.8638 74.1832 96.9028 74.3244 96.9131 74.494C96.924 74.6731 96.8996 74.8308 96.8399 74.9669C96.7824 75.0997 96.6938 75.2013 96.5742 75.2716L96.5748 75.281C96.7372 75.3153 96.8652 75.4021 96.9587 75.5415C97.0522 75.6809 97.1053 75.8543 97.1179 76.0617C97.1254 76.1842 97.1157 76.3046 97.0889 76.423C97.0621 76.5413 97.0176 76.6481 96.9554 76.7433C96.8954 76.8353 96.8175 76.9126 96.7218 76.9752C96.6282 77.0345 96.5173 77.0681 96.389 77.0759L95.1366 77.1522L94.9316 73.7869ZM95.4585 76.7541L96.3225 76.7015C96.475 76.6922 96.5903 76.6315 96.6685 76.5195C96.7491 76.4074 96.7837 76.2571 96.7722 76.0685C96.7655 75.9586 96.7442 75.8684 96.7083 75.798C96.6725 75.7277 96.6267 75.6737 96.5709 75.6361C96.5174 75.5952 96.4563 75.569 96.3876 75.5574C96.3187 75.5427 96.2479 75.5375 96.1753 75.5419L95.3876 75.5899L95.4585 76.7541Z" fill="black"/>
<path d="M97.4893 73.631L98.709 73.5567C98.9559 73.5417 99.1531 73.6085 99.3006 73.7572C99.4505 73.9058 99.5338 74.1168 99.5505 74.3901C99.5629 74.5944 99.5375 74.7757 99.4743 74.9341C99.4135 75.0923 99.3062 75.2045 99.1523 75.2707L99.1529 75.2801C99.229 75.2944 99.2915 75.3221 99.3401 75.3633C99.3912 75.4043 99.432 75.4555 99.4624 75.5167C99.4951 75.5746 99.5198 75.6409 99.5365 75.7156C99.5556 75.7901 99.5713 75.868 99.5835 75.9493C99.5933 76.0307 99.602 76.1137 99.6096 76.1984C99.6172 76.2831 99.6283 76.366 99.643 76.4471C99.6577 76.5282 99.6758 76.606 99.6973 76.6804C99.7211 76.7515 99.7528 76.8142 99.7926 76.8685L99.4078 76.892C99.3814 76.8589 99.3616 76.8128 99.3483 76.7537C99.3374 76.6944 99.3286 76.6287 99.3217 76.5566C99.3147 76.4813 99.3074 76.4013 99.2998 76.3167C99.2922 76.232 99.2799 76.1491 99.2628 76.0682C99.2482 75.9871 99.2314 75.9108 99.2125 75.8394C99.1933 75.7649 99.1664 75.7019 99.1317 75.6504C99.0968 75.5957 99.053 75.5543 99.0002 75.5259C98.9473 75.4945 98.8785 75.4813 98.7938 75.4865L97.9516 75.5378L98.0392 76.9753L97.6943 76.9964L97.4893 73.631ZM98.6474 75.1169C98.7273 75.1121 98.803 75.0996 98.8747 75.0794C98.9463 75.0593 99.0074 75.0256 99.058 74.9784C99.1108 74.9278 99.1506 74.8639 99.1775 74.7866C99.2066 74.706 99.2174 74.6044 99.2099 74.4818C99.1996 74.3122 99.1548 74.1761 99.0757 74.0737C98.9966 73.9713 98.876 73.925 98.7138 73.9349L97.8571 73.9871L97.9286 75.1607L98.6474 75.1169Z" fill="black"/>
<path d="M100.614 75.4229L101.492 75.3694L100.965 73.8262L100.957 73.8266L100.614 75.4229ZM100.751 73.4323L101.132 73.4091L102.35 76.7127L101.969 76.7359L101.624 75.7398L100.528 75.8066L100.299 76.8377L99.9471 76.8591L100.751 73.4323Z" fill="black"/>
<path d="M102.47 73.3276L102.837 73.3053L104.368 75.9511L104.375 75.9507L104.209 73.2217L104.535 73.2018L104.74 76.5671L104.363 76.5901L102.844 73.9718L102.837 73.9723L103.002 76.673L102.675 76.6929L102.47 73.3276Z" fill="black"/>
<path d="M105.693 76.1306L106.266 76.0956C106.305 76.0933 106.353 76.0872 106.411 76.0774C106.469 76.0644 106.529 76.0418 106.593 76.0095C106.656 75.9741 106.718 75.9262 106.777 75.8658C106.839 75.8053 106.892 75.7248 106.937 75.6243C106.982 75.5238 107.016 75.4003 107.039 75.2538C107.063 75.1041 107.07 74.9255 107.057 74.7181C107.045 74.517 107.018 74.3389 106.977 74.1837C106.938 74.0252 106.88 73.8931 106.804 73.7874C106.729 73.6784 106.635 73.5989 106.523 73.549C106.41 73.496 106.274 73.4743 106.115 73.484L105.534 73.5194L105.693 76.1306ZM105.166 73.1633L106.055 73.1092C106.455 73.0848 106.77 73.1981 107.002 73.4489C107.233 73.6997 107.365 74.0954 107.398 74.6358C107.415 74.9186 107.406 75.1715 107.371 75.3944C107.336 75.6141 107.272 75.8025 107.18 75.9596C107.087 76.1134 106.965 76.2344 106.812 76.3226C106.66 76.4107 106.476 76.4614 106.26 76.4745L105.371 76.5287L105.166 73.1633Z" fill="black"/>
<path d="M90.9879 79.5769L91.3328 79.5559L91.4209 81.0029L92.7859 80.9198L92.6977 79.4728L93.0426 79.4518L93.2476 82.8171L92.9028 82.8381L92.8089 81.2968L91.4439 81.38L91.5378 82.9212L91.193 82.9423L90.9879 79.5769Z" fill="black"/>
<path d="M93.6803 79.4129L95.47 79.3039L95.493 79.6809L94.0482 79.769L94.1134 80.8389L95.4601 80.7568L95.4831 81.1339L94.1363 81.2159L94.2073 82.3801L95.663 82.2915L95.6859 82.6685L93.8854 82.7782L93.6803 79.4129Z" fill="black"/>
<path d="M95.9722 79.2733L97.1919 79.199C97.4387 79.1839 97.6359 79.2508 97.7834 79.3995C97.9334 79.548 98.0167 79.759 98.0333 80.0324C98.0458 80.2366 98.0204 80.4179 97.9572 80.5763C97.8964 80.7346 97.789 80.8468 97.6352 80.9129L97.6357 80.9223C97.7119 80.9366 97.7743 80.9643 97.823 81.0055C97.8741 81.0466 97.9148 81.0977 97.9453 81.1589C97.978 81.2169 98.0027 81.2832 98.0194 81.3578C98.0385 81.4324 98.0541 81.5103 98.0664 81.5915C98.0762 81.6729 98.0849 81.756 98.0925 81.8407C98.1001 81.9254 98.1112 82.0083 98.1259 82.0894C98.1405 82.1705 98.1586 82.2482 98.1802 82.3226C98.2039 82.3937 98.2357 82.4564 98.2754 82.5108L97.8906 82.5342C97.8643 82.5011 97.8445 82.455 97.8312 82.3959C97.8203 82.3366 97.8114 82.2709 97.8046 82.1988C97.7976 82.1236 97.7903 82.0436 97.7827 81.9589C97.7751 81.8742 97.7628 81.7914 97.7457 81.7104C97.731 81.6293 97.7143 81.553 97.6953 81.4817C97.6762 81.4071 97.6493 81.3441 97.6146 81.2926C97.5797 81.238 97.5359 81.1965 97.4831 81.1682C97.4302 81.1367 97.3614 81.1235 97.2767 81.1287L96.4345 81.18L96.5221 82.6176L96.1772 82.6386L95.9722 79.2733ZM97.1303 80.7592C97.2101 80.7543 97.2859 80.7418 97.3575 80.7217C97.4292 80.7015 97.4903 80.6678 97.5408 80.6206C97.5936 80.5701 97.6335 80.5062 97.6603 80.4288C97.6894 80.3482 97.7002 80.2466 97.6928 80.1241C97.6824 79.9544 97.6377 79.8183 97.5586 79.7159C97.4795 79.6135 97.3589 79.5673 97.1967 79.5771L96.34 79.6293L96.4115 80.8029L97.1303 80.7592Z" fill="black"/>
<path d="M98.5299 79.1174L100.32 79.0084L100.342 79.3855L98.8977 79.4735L98.9629 80.5434L100.31 80.4614L100.333 80.8384L98.9859 80.9205L99.0568 82.0847L100.512 81.996L100.535 82.3731L98.7349 82.4828L98.5299 79.1174Z" fill="black"/>
<path d="M52.373 87.3765V90.1369H52.0599V87.3765L51.1504 83.3873H51.5228L52.228 86.6014L52.9167 83.3873H53.2726L52.373 87.3765Z" fill="black"/>
<path d="M53.7848 86.7621C53.7848 87.1024 53.8002 87.4395 53.831 87.7736C53.8617 88.1013 53.9101 88.3975 53.976 88.6622C54.0419 88.9268 54.1265 89.1411 54.2297 89.305C54.333 89.4625 54.456 89.5413 54.5988 89.5413C54.7416 89.5413 54.8646 89.4625 54.9679 89.305C55.0711 89.1411 55.1557 88.9268 55.2216 88.6622C55.2875 88.3975 55.3359 88.1013 55.3666 87.7736C55.3974 87.4395 55.4127 87.1024 55.4127 86.7621C55.4127 86.4217 55.3974 86.0877 55.3666 85.76C55.3359 85.426 55.2875 85.1267 55.2216 84.862C55.1557 84.5973 55.0711 84.3862 54.9679 84.2286C54.8646 84.0647 54.7416 83.9828 54.5988 83.9828C54.456 83.9828 54.333 84.0647 54.2297 84.2286C54.1265 84.3862 54.0419 84.5973 53.976 84.862C53.9101 85.1267 53.8617 85.426 53.831 85.76C53.8002 86.0877 53.7848 86.4217 53.7848 86.7621ZM53.4718 86.7621C53.4718 86.302 53.4948 85.8609 53.541 85.4386C53.5893 85.0101 53.6607 84.6319 53.7552 84.3042C53.8496 83.9765 53.9672 83.715 54.1078 83.5196C54.2484 83.3242 54.4121 83.2266 54.5988 83.2266C54.7855 83.2266 54.9492 83.3242 55.0898 83.5196C55.2304 83.715 55.3479 83.9765 55.4424 84.3042C55.5369 84.6319 55.6072 85.0101 55.6533 85.4386C55.7016 85.8609 55.7258 86.302 55.7258 86.7621C55.7258 87.2221 55.7016 87.6664 55.6533 88.095C55.6072 88.5172 55.5369 88.8922 55.4424 89.2199C55.3479 89.5476 55.2304 89.8091 55.0898 90.0045C54.9492 90.1936 54.7855 90.2881 54.5988 90.2881C54.4121 90.2881 54.2484 90.1936 54.1078 90.0045C53.9672 89.8091 53.8496 89.5476 53.7552 89.2199C53.6607 88.8922 53.5893 88.5172 53.541 88.095C53.4948 87.6664 53.4718 87.2221 53.4718 86.7621Z" fill="black"/>
<path d="M58.0516 87.6979C58.0516 88.5613 57.9714 89.2104 57.811 89.6453C57.6506 90.0738 57.4222 90.2881 57.1256 90.2881C56.8224 90.2881 56.5851 90.0833 56.4138 89.6737C56.2446 89.2577 56.16 88.5991 56.16 87.6979V83.3873H56.4731V87.6979C56.4731 88.3029 56.5291 88.763 56.6411 89.0781C56.7532 89.3869 56.9147 89.5413 57.1256 89.5413C57.3255 89.5413 57.4771 89.3869 57.5803 89.0781C57.6858 88.763 57.7385 88.3029 57.7385 87.6979V83.3873H58.0516V87.6979Z" fill="black"/>
<path d="M58.6173 83.3873H59.7246C59.9486 83.3873 60.1233 83.5448 60.2485 83.8599C60.3759 84.175 60.4397 84.6067 60.4397 85.155C60.4397 85.5647 60.4067 85.9239 60.3408 86.2327C60.2771 86.5415 60.1738 86.7526 60.031 86.866V86.885C60.0991 86.9228 60.1541 86.9858 60.1958 87.074C60.2397 87.1622 60.2738 87.2694 60.298 87.3954C60.3243 87.5152 60.343 87.6507 60.354 87.8019C60.3672 87.9532 60.377 88.1107 60.3836 88.2746C60.388 88.4384 60.3913 88.6054 60.3935 88.7756C60.3957 88.9458 60.4012 89.1128 60.41 89.2766C60.4188 89.4405 60.4309 89.598 60.4462 89.7493C60.4638 89.8942 60.4891 90.0234 60.522 90.1369H60.1727C60.1508 90.0675 60.1354 89.973 60.1266 89.8533C60.12 89.7335 60.1156 89.6012 60.1134 89.4562C60.1112 89.305 60.109 89.1443 60.1068 88.9741C60.1046 88.804 60.098 88.637 60.0871 88.4731C60.0783 88.3092 60.0673 88.1548 60.0541 88.0099C60.0409 87.8586 60.02 87.7294 59.9915 87.6223C59.9629 87.5089 59.9256 87.4206 59.8794 87.3576C59.8333 87.2883 59.7718 87.2536 59.6949 87.2536H58.9304V90.1369H58.6173V83.3873ZM59.5829 86.4974C59.6554 86.4974 59.7246 86.4816 59.7905 86.4501C59.8564 86.4186 59.9135 86.3587 59.9618 86.2705C60.0124 86.176 60.0519 86.0531 60.0805 85.9018C60.1112 85.7443 60.1266 85.5426 60.1266 85.2968C60.1266 84.9565 60.0936 84.6792 60.0277 84.4649C59.9618 84.2507 59.8553 84.1435 59.7081 84.1435H58.9304V86.4974H59.5829Z" fill="black"/>
<path d="M62.2353 86.2894H62.8614C63.0393 86.2894 63.1668 86.2012 63.2437 86.0247C63.3227 85.842 63.3623 85.571 63.3623 85.2117C63.3623 84.9723 63.3491 84.7832 63.3227 84.6445C63.2964 84.5059 63.2601 84.3988 63.214 84.3231C63.1679 84.2475 63.114 84.2002 63.0525 84.1813C62.9932 84.1561 62.9295 84.1435 62.8614 84.1435H62.2353V86.2894ZM61.9222 83.3873H62.7757C62.8262 83.3873 62.8801 83.3904 62.9372 83.3967C62.9965 83.3967 63.0547 83.4062 63.1118 83.4251C63.169 83.4377 63.2217 83.4597 63.27 83.4913C63.3205 83.5228 63.3634 83.57 63.3985 83.6331C63.4754 83.7654 63.5402 83.9482 63.593 84.1813C63.6479 84.4145 63.6753 84.7013 63.6753 85.0416C63.6753 85.4008 63.6446 85.7128 63.5831 85.9774C63.5238 86.2358 63.4381 86.428 63.326 86.5541V86.573C63.471 86.6612 63.582 86.8503 63.6589 87.1402C63.7358 87.4301 63.7742 87.783 63.7742 88.199C63.7742 88.4447 63.7588 88.6842 63.7281 88.9174C63.6973 89.1506 63.6512 89.3585 63.5897 89.5413C63.5304 89.7178 63.4557 89.8627 63.3656 89.9762C63.2777 90.0833 63.1756 90.1369 63.0591 90.1369H61.9222V83.3873ZM62.2353 89.3806H63.0196C63.158 89.3806 63.2656 89.2735 63.3425 89.0592C63.4216 88.8449 63.4612 88.5487 63.4612 88.1706C63.4612 87.95 63.4469 87.7673 63.4183 87.6223C63.3897 87.4774 63.3513 87.3639 63.303 87.282C63.2568 87.1938 63.203 87.1339 63.1415 87.1024C63.08 87.0646 63.0163 87.0457 62.9504 87.0457H62.2353V89.3806Z" fill="black"/>
<path d="M64.244 83.3873H65.3513C65.5754 83.3873 65.75 83.5448 65.8752 83.8599C66.0027 84.175 66.0664 84.6067 66.0664 85.155C66.0664 85.5647 66.0334 85.9239 65.9675 86.2327C65.9038 86.5415 65.8005 86.7526 65.6577 86.866V86.885C65.7258 86.9228 65.7808 86.9858 65.8225 87.074C65.8665 87.1622 65.9005 87.2694 65.9247 87.3954C65.951 87.5152 65.9697 87.6507 65.9807 87.8019C65.9939 87.9532 66.0038 88.1107 66.0104 88.2746C66.0147 88.4384 66.018 88.6054 66.0202 88.7756C66.0224 88.9458 66.0279 89.1128 66.0367 89.2766C66.0455 89.4405 66.0576 89.598 66.073 89.7493C66.0905 89.8942 66.1158 90.0234 66.1488 90.1369H65.7994C65.7775 90.0675 65.7621 89.973 65.7533 89.8533C65.7467 89.7335 65.7423 89.6012 65.7401 89.4562C65.7379 89.305 65.7357 89.1443 65.7335 88.9741C65.7313 88.804 65.7248 88.637 65.7138 88.4731C65.705 88.3092 65.694 88.1548 65.6808 88.0099C65.6676 87.8586 65.6468 87.7294 65.6182 87.6223C65.5896 87.5089 65.5523 87.4206 65.5062 87.3576C65.46 87.2883 65.3985 87.2536 65.3216 87.2536H64.5571V90.1369H64.244V83.3873ZM65.2096 86.4974C65.2821 86.4974 65.3513 86.4816 65.4172 86.4501C65.4831 86.4186 65.5402 86.3587 65.5885 86.2705C65.6391 86.176 65.6786 86.0531 65.7072 85.9018C65.7379 85.7443 65.7533 85.5426 65.7533 85.2968C65.7533 84.9565 65.7204 84.6792 65.6544 84.4649C65.5885 84.2507 65.482 84.1435 65.3348 84.1435H64.5571V86.4974H65.2096Z" fill="black"/>
<path d="M66.9712 87.3482H67.7687L67.3765 84.2002H67.3699L66.9712 87.3482ZM67.2052 83.3873H67.5512L68.4706 90.1369H68.1246L67.8675 88.1044H66.8723L66.6087 90.1369H66.289L67.2052 83.3873Z" fill="black"/>
<path d="M68.7653 83.3873H69.0981L70.3372 88.8607H70.3438V83.3873H70.6404V90.1369H70.2977L69.0685 84.7202H69.0619V90.1369H68.7653V83.3873Z" fill="black"/>
<path d="M71.5258 89.3806H72.0464C72.0816 89.3806 72.1255 89.3743 72.1783 89.3617C72.231 89.3428 72.287 89.305 72.3463 89.2483C72.4056 89.1852 72.4639 89.097 72.521 88.9836C72.5803 88.8701 72.633 88.7157 72.6792 88.5204C72.7253 88.325 72.7626 88.0824 72.7912 87.7925C72.822 87.4963 72.8373 87.1402 72.8373 86.7243C72.8373 86.3209 72.823 85.9617 72.7945 85.6466C72.7681 85.3252 72.7231 85.0542 72.6594 84.8336C72.5979 84.6067 72.5177 84.4366 72.4188 84.3231C72.32 84.2034 72.198 84.1435 72.053 84.1435H71.5258V89.3806ZM71.2127 83.3873H72.0201C72.3826 83.3873 72.6616 83.652 72.8571 84.1813C73.0526 84.7107 73.1504 85.5174 73.1504 86.6014C73.1504 87.1686 73.1284 87.6727 73.0845 88.1139C73.0405 88.5487 72.9724 88.9174 72.8802 89.2199C72.7879 89.5161 72.6704 89.743 72.5276 89.9005C72.3848 90.0581 72.2156 90.1369 72.0201 90.1369H71.2127V83.3873Z" fill="black"/>
<path d="M58.0364 94.477H58.3495V97.3791H59.5886V94.477H59.9016V101.227H59.5886V98.1354H58.3495V101.227H58.0364V94.477Z" fill="black"/>
<path d="M60.4806 94.477H62.1052V95.2332H60.7936V97.3791H62.0162V98.1354H60.7936V100.47H62.1151V101.227H60.4806V94.477Z" fill="black"/>
<path d="M62.561 94.477H63.6683C63.8923 94.477 64.067 94.6345 64.1922 94.9496C64.3196 95.2647 64.3834 95.6964 64.3834 96.2447C64.3834 96.6544 64.3504 97.0136 64.2845 97.3224C64.2208 97.6312 64.1175 97.8423 63.9747 97.9558V97.9747C64.0428 98.0125 64.0978 98.0755 64.1395 98.1637C64.1834 98.252 64.2175 98.3591 64.2417 98.4851C64.268 98.6049 64.2867 98.7404 64.2977 98.8916C64.3109 99.0429 64.3207 99.2004 64.3273 99.3643C64.3317 99.5281 64.335 99.6951 64.3372 99.8653C64.3394 100.035 64.3449 100.202 64.3537 100.366C64.3625 100.53 64.3746 100.688 64.3899 100.839C64.4075 100.984 64.4328 101.113 64.4657 101.227H64.1164C64.0945 101.157 64.0791 101.063 64.0703 100.943C64.0637 100.823 64.0593 100.691 64.0571 100.546C64.0549 100.395 64.0527 100.234 64.0505 100.064C64.0483 99.8937 64.0417 99.7267 64.0307 99.5628C64.022 99.3989 64.011 99.2445 63.9978 99.0996C63.9846 98.9483 63.9637 98.8191 63.9352 98.712C63.9066 98.5986 63.8693 98.5103 63.8231 98.4473C63.777 98.378 63.7155 98.3433 63.6386 98.3433H62.8741V101.227H62.561V94.477ZM63.5266 97.5871C63.5991 97.5871 63.6683 97.5713 63.7342 97.5398C63.8001 97.5083 63.8572 97.4484 63.9055 97.3602C63.9561 97.2657 63.9956 97.1428 64.0242 96.9915C64.0549 96.834 64.0703 96.6323 64.0703 96.3865C64.0703 96.0462 64.0373 95.7689 63.9714 95.5546C63.9055 95.3404 63.799 95.2332 63.6518 95.2332H62.8741V97.5871H63.5266Z" fill="black"/>
<path d="M64.8828 94.477H66.5075V95.2332H65.1959V97.3791H66.4185V98.1354H65.1959V100.47H66.5173V101.227H64.8828V94.477Z" fill="black"/>
<path d="M4.81725 87.3765V90.1369H4.64649V87.3765L4.15039 83.3873H4.35351L4.73817 86.6014L5.11384 83.3873H5.30796L4.81725 87.3765Z" fill="black"/>
<path d="M5.58736 86.7621C5.58736 87.1024 5.59575 87.4395 5.61252 87.7736C5.6293 88.1013 5.65566 88.3975 5.69161 88.6622C5.72756 88.9268 5.7737 89.1411 5.83002 89.305C5.88634 89.4625 5.95345 89.5413 6.03134 89.5413C6.10923 89.5413 6.17633 89.4625 6.23265 89.305C6.28897 89.1411 6.33511 88.9268 6.37106 88.6622C6.40701 88.3975 6.43337 88.1013 6.45015 87.7736C6.46692 87.4395 6.47531 87.1024 6.47531 86.7621C6.47531 86.4217 6.46692 86.0877 6.45015 85.76C6.43337 85.426 6.40701 85.1267 6.37106 84.862C6.33511 84.5973 6.28897 84.3862 6.23265 84.2286C6.17633 84.0647 6.10923 83.9828 6.03134 83.9828C5.95345 83.9828 5.88634 84.0647 5.83002 84.2286C5.7737 84.3862 5.72756 84.5973 5.69161 84.862C5.65566 85.1267 5.6293 85.426 5.61252 85.76C5.59575 86.0877 5.58736 86.4217 5.58736 86.7621ZM5.4166 86.7621C5.4166 86.302 5.42918 85.8609 5.45435 85.4386C5.48071 85.0101 5.51965 84.6319 5.57118 84.3042C5.62271 83.9765 5.68682 83.715 5.76351 83.5196C5.8402 83.3242 5.92948 83.2266 6.03134 83.2266C6.13319 83.2266 6.22247 83.3242 6.29916 83.5196C6.37585 83.715 6.43996 83.9765 6.49149 84.3042C6.54302 84.6319 6.58136 85.0101 6.60653 85.4386C6.63289 85.8609 6.64607 86.302 6.64607 86.7621C6.64607 87.2221 6.63289 87.6664 6.60653 88.095C6.58136 88.5172 6.54302 88.8922 6.49149 89.2199C6.43996 89.5476 6.37585 89.8091 6.29916 90.0045C6.22247 90.1936 6.13319 90.2881 6.03134 90.2881C5.92948 90.2881 5.8402 90.1936 5.76351 90.0045C5.68682 89.8091 5.62271 89.5476 5.57118 89.2199C5.51965 88.8922 5.48071 88.5172 5.45435 88.095C5.42918 87.6664 5.4166 87.2221 5.4166 86.7621Z" fill="black"/>
<path d="M7.91467 87.6979C7.91467 88.5613 7.87093 89.2104 7.78345 89.6453C7.69598 90.0738 7.57135 90.2881 7.40958 90.2881C7.24421 90.2881 7.11479 90.0833 7.02132 89.6737C6.92905 89.2577 6.88292 88.5991 6.88292 87.6979V83.3873H7.05368V87.6979C7.05368 88.3029 7.08423 88.763 7.14535 89.0781C7.20646 89.3869 7.29454 89.5413 7.40958 89.5413C7.51862 89.5413 7.60131 89.3869 7.65763 89.0781C7.71515 88.763 7.74391 88.3029 7.74391 87.6979V83.3873H7.91467V87.6979Z" fill="black"/>
<path d="M8.22326 83.3873H8.82721C8.94944 83.3873 9.0447 83.5448 9.11301 83.8599C9.18251 84.175 9.21726 84.6067 9.21726 85.155C9.21726 85.5647 9.19929 85.9239 9.16334 86.2327C9.12859 86.5415 9.07227 86.7526 8.99438 86.866V86.885C9.03152 86.9228 9.06148 86.9858 9.08425 87.074C9.10822 87.1622 9.12679 87.2694 9.13997 87.3954C9.15435 87.5152 9.16454 87.6507 9.17053 87.8019C9.17772 87.9532 9.18311 88.1107 9.18671 88.2746C9.1891 88.4384 9.1909 88.6054 9.1921 88.7756C9.1933 88.9458 9.19629 89.1128 9.20109 89.2766C9.20588 89.4405 9.21247 89.598 9.22086 89.7493C9.23044 89.8942 9.24422 90.0234 9.2622 90.1369H9.07167C9.05968 90.0675 9.0513 89.973 9.0465 89.8533C9.04291 89.7335 9.04051 89.6012 9.03931 89.4562C9.03811 89.305 9.03692 89.1443 9.03572 88.9741C9.03452 88.804 9.03092 88.637 9.02493 88.4731C9.02014 88.3092 9.01415 88.1548 9.00696 88.0099C8.99977 87.8586 8.98838 87.7294 8.97281 87.6223C8.95723 87.5089 8.93686 87.4206 8.91169 87.3576C8.88653 87.2883 8.85297 87.2536 8.81103 87.2536H8.39402V90.1369H8.22326V83.3873ZM8.74992 86.4974C8.78946 86.4974 8.82721 86.4816 8.86316 86.4501C8.89911 86.4186 8.93027 86.3587 8.95663 86.2705C8.98419 86.176 9.00576 86.0531 9.02134 85.9018C9.03811 85.7443 9.0465 85.5426 9.0465 85.2968C9.0465 84.9565 9.02853 84.6792 8.99258 84.4649C8.95663 84.2507 8.89851 84.1435 8.81822 84.1435H8.39402V86.4974H8.74992Z" fill="black"/>
<path d="M10.1967 86.2894H10.5382C10.6353 86.2894 10.7048 86.2012 10.7467 86.0247C10.7899 85.842 10.8114 85.571 10.8114 85.2117C10.8114 84.9723 10.8042 84.7832 10.7899 84.6445C10.7755 84.5059 10.7557 84.3988 10.7305 84.3231C10.7054 84.2475 10.676 84.2002 10.6425 84.1813C10.6101 84.1561 10.5754 84.1435 10.5382 84.1435H10.1967V86.2894ZM10.0259 83.3873H10.4915C10.519 83.3873 10.5484 83.3904 10.5796 83.3967C10.6119 83.3967 10.6437 83.4062 10.6748 83.4251C10.706 83.4377 10.7347 83.4597 10.7611 83.4913C10.7887 83.5228 10.812 83.57 10.8312 83.6331C10.8731 83.7654 10.9085 83.9482 10.9372 84.1813C10.9672 84.4145 10.9822 84.7013 10.9822 85.0416C10.9822 85.4008 10.9654 85.7128 10.9319 85.9774C10.8995 86.2358 10.8528 86.428 10.7917 86.5541V86.573C10.8707 86.6612 10.9313 86.8503 10.9732 87.1402C11.0151 87.4301 11.0361 87.783 11.0361 88.199C11.0361 88.4447 11.0277 88.6842 11.0109 88.9174C10.9942 89.1506 10.969 89.3585 10.9355 89.5413C10.9031 89.7178 10.8624 89.8627 10.8132 89.9762C10.7653 90.0833 10.7096 90.1369 10.6461 90.1369H10.0259V83.3873ZM10.1967 89.3806H10.6245C10.7 89.3806 10.7587 89.2735 10.8006 89.0592C10.8438 88.8449 10.8654 88.5487 10.8654 88.1706C10.8654 87.95 10.8576 87.7673 10.842 87.6223C10.8264 87.4774 10.8054 87.3639 10.7791 87.282C10.7539 87.1938 10.7245 87.1339 10.691 87.1024C10.6574 87.0646 10.6227 87.0457 10.5867 87.0457H10.1967V89.3806Z" fill="black"/>
<path d="M11.2924 83.3873H11.8963C12.0186 83.3873 12.1138 83.5448 12.1821 83.8599C12.2516 84.175 12.2864 84.6067 12.2864 85.155C12.2864 85.5647 12.2684 85.9239 12.2325 86.2327C12.1977 86.5415 12.1414 86.7526 12.0635 86.866V86.885C12.1006 86.9228 12.1306 86.9858 12.1534 87.074C12.1773 87.1622 12.1959 87.2694 12.2091 87.3954C12.2235 87.5152 12.2337 87.6507 12.2396 87.8019C12.2468 87.9532 12.2522 88.1107 12.2558 88.2746C12.2582 88.4384 12.26 88.6054 12.2612 88.7756C12.2624 88.9458 12.2654 89.1128 12.2702 89.2766C12.275 89.4405 12.2816 89.598 12.29 89.7493C12.2996 89.8942 12.3133 90.0234 12.3313 90.1369H12.1408C12.1288 90.0675 12.1204 89.973 12.1156 89.8533C12.112 89.7335 12.1096 89.6012 12.1084 89.4562C12.1072 89.305 12.106 89.1443 12.1048 88.9741C12.1036 88.804 12.1 88.637 12.0941 88.4731C12.0893 88.3092 12.0833 88.1548 12.0761 88.0099C12.0689 87.8586 12.0575 87.7294 12.0419 87.6223C12.0263 87.5089 12.006 87.4206 11.9808 87.3576C11.9556 87.2883 11.9221 87.2536 11.8802 87.2536H11.4631V90.1369H11.2924V83.3873ZM11.819 86.4974C11.8586 86.4974 11.8963 86.4816 11.9323 86.4501C11.9682 86.4186 11.9994 86.3587 12.0257 86.2705C12.0533 86.176 12.0749 86.0531 12.0905 85.9018C12.1072 85.7443 12.1156 85.5426 12.1156 85.2968C12.1156 84.9565 12.0976 84.6792 12.0617 84.4649C12.0257 84.2507 11.9676 84.1435 11.8873 84.1435H11.4631V86.4974H11.819Z" fill="black"/>
<path d="M12.7799 87.3482H13.2149L13.001 84.2002H12.9974L12.7799 87.3482ZM12.9075 83.3873H13.0963L13.5978 90.1369H13.409L13.2688 88.1044H12.726L12.5822 90.1369H12.4078L12.9075 83.3873Z" fill="black"/>
<path d="M13.7585 83.3873H13.9401L14.6159 88.8607H14.6195V83.3873H14.7813V90.1369H14.5944L13.9239 84.7202H13.9203V90.1369H13.7585V83.3873Z" fill="black"/>
<path d="M15.2642 89.3806H15.5482C15.5674 89.3806 15.5914 89.3743 15.6201 89.3617C15.6489 89.3428 15.6795 89.305 15.7118 89.2483C15.7442 89.1852 15.7759 89.097 15.8071 88.9836C15.8394 88.8701 15.8682 88.7157 15.8934 88.5204C15.9185 88.325 15.9389 88.0824 15.9545 87.7925C15.9712 87.4963 15.9796 87.1402 15.9796 86.7243C15.9796 86.3209 15.9718 85.9617 15.9563 85.6466C15.9419 85.3252 15.9173 85.0542 15.8826 84.8336C15.849 84.6067 15.8053 84.4366 15.7514 84.3231C15.6974 84.2034 15.6309 84.1435 15.5518 84.1435H15.2642V89.3806ZM15.0935 83.3873H15.5339C15.7316 83.3873 15.8838 83.652 15.9904 84.1813C16.0971 84.7107 16.1504 85.5174 16.1504 86.6014C16.1504 87.1686 16.1384 87.6727 16.1144 88.1139C16.0905 88.5487 16.0533 88.9174 16.003 89.2199C15.9527 89.5161 15.8886 89.743 15.8107 89.9005C15.7328 90.0581 15.6405 90.1369 15.5339 90.1369H15.0935V83.3873Z" fill="black"/>
<path d="M7.90642 94.477H8.07718V97.3791H8.75303V94.477H8.92379V101.227H8.75303V98.1354H8.07718V101.227H7.90642V94.477Z" fill="black"/>
<path d="M9.23957 94.477H10.1257V95.2332H9.41033V97.3791H10.0772V98.1354H9.41033V100.47H10.1311V101.227H9.23957V94.477Z" fill="black"/>
<path d="M10.3744 94.477H10.9783C11.1005 94.477 11.1958 94.6345 11.2641 94.9496C11.3336 95.2647 11.3684 95.6964 11.3684 96.2447C11.3684 96.6544 11.3504 97.0136 11.3144 97.3224C11.2797 97.6312 11.2234 97.8423 11.1455 97.9558V97.9747C11.1826 98.0125 11.2126 98.0755 11.2354 98.1637C11.2593 98.252 11.2779 98.3591 11.2911 98.4851C11.3055 98.6049 11.3156 98.7404 11.3216 98.8916C11.3288 99.0429 11.3342 99.2004 11.3378 99.3643C11.3402 99.5281 11.342 99.6951 11.3432 99.8653C11.3444 100.035 11.3474 100.202 11.3522 100.366C11.357 100.53 11.3636 100.688 11.372 100.839C11.3816 100.984 11.3953 101.113 11.4133 101.227H11.2228C11.2108 101.157 11.2024 101.063 11.1976 100.943C11.194 100.823 11.1916 100.691 11.1904 100.546C11.1892 100.395 11.188 100.234 11.1868 100.064C11.1856 99.8937 11.182 99.7267 11.176 99.5628C11.1712 99.3989 11.1653 99.2445 11.1581 99.0996C11.1509 98.9483 11.1395 98.8191 11.1239 98.712C11.1083 98.5986 11.088 98.5103 11.0628 98.4473C11.0376 98.378 11.0041 98.3433 10.9621 98.3433H10.5451V101.227H10.3744V94.477ZM10.901 97.5871C10.9406 97.5871 10.9783 97.5713 11.0143 97.5398C11.0502 97.5083 11.0814 97.4484 11.1077 97.3602C11.1353 97.2657 11.1569 97.1428 11.1724 96.9915C11.1892 96.834 11.1976 96.6323 11.1976 96.3865C11.1976 96.0462 11.1796 95.7689 11.1437 95.5546C11.1077 95.3404 11.0496 95.2332 10.9693 95.2332H10.5451V97.5871H10.901Z" fill="black"/>
<path d="M11.6408 94.477H12.527V95.2332H11.8116V97.3791H12.4784V98.1354H11.8116V100.47H12.5324V101.227H11.6408V94.477Z" fill="black"/>
</svg>
