<svg width="34" height="35" viewBox="0 0 34 35" fill="none" xmlns="http://www.w3.org/2000/svg">
<rect x="0.4" y="0.4" width="32.9691" height="34.1608" rx="16.4846" stroke="white" stroke-width="0.8"/>
<path d="M11.9774 26.9608H8.29351V14.3016H11.9774V26.9608ZM10.1335 12.5748C8.95549 12.5748 8 11.5336 8 10.2766C8 9.67282 8.22478 9.09375 8.62488 8.6668C9.02499 8.23986 9.56765 8 10.1335 8C10.6993 8 11.242 8.23986 11.6421 8.6668C12.0422 9.09375 12.267 9.67282 12.267 10.2766C12.267 11.5336 11.3111 12.5748 10.1335 12.5748ZM25.7652 26.9608H22.0892V20.7984C22.0892 19.3297 22.0614 17.4463 20.1738 17.4463C18.2585 17.4463 17.965 19.0419 17.965 20.6926V26.9608H14.285V14.3016H17.8182V16.0285H17.8698C18.3616 15.0338 19.563 13.9842 21.3554 13.9842C25.0838 13.9842 25.7691 16.6041 25.7691 20.0069V26.9608H25.7652Z" fill="white"/>
</svg>
