<svg width="203" height="201" viewBox="0 0 203 201" fill="none" xmlns="http://www.w3.org/2000/svg">
<path d="M7.21289 196.211L38.7245 163.616L186.927 161.844L194.707 196.211H7.21289Z" fill="#D4D4D4" stroke="black" stroke-width="0.3"/>
<path d="M24.9381 26.0423L8.39453 12.9453V191.577L25.7259 173.851L24.9381 26.0423Z" fill="#F7F7F7" stroke="black" stroke-width="0.3"/>
<path d="M97.8097 37.3672H40.498V160.952H97.8097V37.3672Z" fill="#F7F7F7" stroke="black" stroke-width="0.3"/>
<path d="M165.755 37.3672H102.535V161.05H165.755V37.3672Z" fill="#F7F7F7" stroke="black" stroke-width="0.3"/>
<path d="M37.543 164.694V35.3984H38.7247V163.611L37.543 164.694Z" fill="#D4D4D4" stroke="black" stroke-width="0.3"/>
<path d="M25.7264 173.76L25.0371 26.1484L27.499 27.5271L27.8928 171.693L25.7264 173.76Z" fill="#D4D4D4" stroke="black" stroke-width="0.3"/>
<path d="M7.21426 192.961L37.5449 162.039L37.5451 164.699L7.21426 196.21L7.21426 192.961Z" fill="#D4D4D4" stroke="black" stroke-width="0.3"/>
<path d="M7.21289 192.865V26.1488L8.39457 25.1641V191.683L7.21289 192.865Z" fill="#D4D4D4" stroke="black" stroke-width="0.3"/>
<path d="M102.535 37.3695V35.2031H165.755V37.3695H102.535Z" fill="#D4D4D4" stroke="black" stroke-width="0.3"/>
<path d="M167.528 35.3047H165.756V131.317H167.528V35.3047Z" fill="#D4D4D4" stroke="black" stroke-width="0.3"/>
<path d="M40.4971 161.052H108.739V163.613H38.7246V35.4001L97.8088 35.2031V37.2711H40.4971V161.052Z" fill="#D4D4D4" stroke="black" stroke-width="0.3"/>
<path d="M201.699 196.305H2.68359V200.145H201.699V196.305Z" fill="#D4D4D4" stroke="black" stroke-width="0.3"/>
<path d="M201.698 0.148438V196.308H194.805V0.148438H201.698Z" fill="#D4D4D4" stroke="black" stroke-width="0.3"/>
<path d="M7.21338 2.32031V196.313H2.68359V2.32031H7.21338Z" fill="#D4D4D4" stroke="black" stroke-width="0.3"/>
<path d="M2.68359 2.31597L201.896 0.149537L201.896 4.58085L2.68359 5.66406L2.68359 2.31597Z" fill="#D4D4D4" stroke="black" stroke-width="0.3"/>
<path d="M37.5424 35.3966L27.498 27.6172L27.9904 171.586L37.5424 161.935V35.3966Z" fill="#F7F7F7" stroke="black" stroke-width="0.3"/>
<path d="M177.473 26.4453L168.217 35.2095V131.517H176.882L177.473 26.4453Z" fill="#F7F7F7" stroke="black" stroke-width="0.3"/>
<path d="M194.608 12.3594L178.754 27.7213V131.513L194.608 136.535V12.3594Z" fill="#F7F7F7" stroke="black" stroke-width="0.3"/>
<path d="M168.219 35.3047H167.529V131.317H168.219V35.3047Z" fill="#D4D4D4" stroke="black" stroke-width="0.3"/>
<path d="M179.443 25.0625L177.474 26.5396L176.883 131.316H178.655L179.443 25.0625Z" fill="#D4D4D4" stroke="black" stroke-width="0.3"/>
<path d="M7.21289 26.4424V5.66442L194.805 4.67969V26.4424H7.21289Z" fill="#F0F0F0" stroke="black" stroke-width="0.3"/>
<path d="M37.5424 35.4064L25.1348 26.4453H177.474L168.217 35.2095L37.5424 35.4064Z" fill="#D4D4D4" stroke="black" stroke-width="0.3"/>
<path d="M111.201 131.32L108.346 135.85L194.609 135.752L187.026 131.32H111.201Z" fill="#F0F0F0" stroke="black" stroke-width="0.3"/>
<path d="M97.8086 163.613V35.2031H102.535V163.613H97.8086Z" fill="#D4D4D4" stroke="black" stroke-width="0.3"/>
<path d="M108.346 135.742H194.609V196.008H108.346V135.742Z" fill="#F7F7F7" stroke="black" stroke-width="0.3"/>
<path d="M123.514 158.27V161.008H122.623V158.27L120.035 154.313H121.095L123.101 157.501L125.061 154.313H126.074L123.514 158.27ZM127.531 157.66C127.531 157.998 127.575 158.332 127.662 158.664C127.75 158.989 127.887 159.282 128.075 159.545C128.262 159.808 128.503 160.02 128.797 160.183C129.091 160.339 129.441 160.417 129.847 160.417C130.253 160.417 130.603 160.339 130.897 160.183C131.191 160.02 131.432 159.808 131.619 159.545C131.807 159.282 131.944 158.989 132.032 158.664C132.119 158.332 132.163 157.998 132.163 157.66C132.163 157.323 132.119 156.991 132.032 156.666C131.944 156.335 131.807 156.038 131.619 155.776C131.432 155.513 131.191 155.304 130.897 155.147C130.603 154.985 130.253 154.904 129.847 154.904C129.441 154.904 129.091 154.985 128.797 155.147C128.503 155.304 128.262 155.513 128.075 155.776C127.887 156.038 127.75 156.335 127.662 156.666C127.575 156.991 127.531 157.323 127.531 157.66ZM126.64 157.66C126.64 157.204 126.706 156.766 126.837 156.348C126.975 155.922 127.178 155.547 127.447 155.222C127.715 154.897 128.05 154.638 128.45 154.444C128.85 154.25 129.316 154.153 129.847 154.153C130.378 154.153 130.844 154.25 131.244 154.444C131.644 154.638 131.979 154.897 132.248 155.222C132.516 155.547 132.716 155.922 132.848 156.348C132.985 156.766 133.054 157.204 133.054 157.66C133.054 158.117 132.985 158.557 132.848 158.982C132.716 159.401 132.516 159.773 132.248 160.098C131.979 160.423 131.644 160.683 131.244 160.877C130.844 161.064 130.378 161.158 129.847 161.158C129.316 161.158 128.85 161.064 128.45 160.877C128.05 160.683 127.715 160.423 127.447 160.098C127.178 159.773 126.975 159.401 126.837 158.982C126.706 158.557 126.64 158.117 126.64 157.66ZM139.672 158.589C139.672 159.445 139.444 160.089 138.987 160.52C138.531 160.945 137.881 161.158 137.037 161.158C136.174 161.158 135.499 160.955 135.011 160.548C134.53 160.136 134.289 159.483 134.289 158.589V154.313H135.18V158.589C135.18 159.189 135.34 159.645 135.658 159.958C135.977 160.264 136.437 160.417 137.037 160.417C137.606 160.417 138.037 160.264 138.331 159.958C138.631 159.645 138.781 159.189 138.781 158.589V154.313H139.672V158.589ZM141.282 154.313H144.432C145.07 154.313 145.567 154.469 145.923 154.782C146.286 155.094 146.467 155.522 146.467 156.066C146.467 156.473 146.373 156.829 146.186 157.135C146.004 157.442 145.71 157.651 145.304 157.763V157.782C145.498 157.82 145.654 157.882 145.773 157.97C145.898 158.057 145.995 158.164 146.064 158.289C146.139 158.407 146.192 158.542 146.223 158.692C146.261 158.842 146.289 158.998 146.307 159.161C146.32 159.323 146.329 159.489 146.336 159.658C146.342 159.826 146.357 159.992 146.382 160.155C146.407 160.317 146.442 160.473 146.486 160.623C146.536 160.767 146.608 160.895 146.701 161.008H145.707C145.645 160.939 145.601 160.845 145.576 160.727C145.557 160.608 145.545 160.476 145.539 160.333C145.532 160.183 145.526 160.023 145.52 159.854C145.514 159.686 145.495 159.52 145.464 159.358C145.439 159.195 145.407 159.042 145.37 158.898C145.332 158.748 145.273 158.62 145.192 158.514C145.11 158.401 145.004 158.314 144.873 158.251C144.742 158.182 144.567 158.148 144.348 158.148H142.172V161.008H141.282V154.313ZM144.029 157.398C144.235 157.398 144.432 157.382 144.62 157.351C144.807 157.32 144.97 157.26 145.107 157.173C145.251 157.079 145.364 156.957 145.445 156.807C145.532 156.651 145.576 156.451 145.576 156.207C145.576 155.869 145.482 155.594 145.295 155.382C145.107 155.169 144.804 155.063 144.385 155.063H142.172V157.398H144.029ZM151.576 157.191H153.358C153.864 157.191 154.227 157.104 154.445 156.929C154.67 156.748 154.783 156.479 154.783 156.123C154.783 155.885 154.746 155.697 154.67 155.56C154.595 155.422 154.492 155.316 154.361 155.241C154.23 155.166 154.077 155.119 153.902 155.1C153.733 155.075 153.552 155.063 153.358 155.063H151.576V157.191ZM150.685 154.313H153.114C153.258 154.313 153.411 154.316 153.573 154.322C153.742 154.322 153.908 154.332 154.07 154.35C154.233 154.363 154.383 154.385 154.52 154.416C154.664 154.447 154.786 154.494 154.886 154.557C155.105 154.688 155.289 154.869 155.439 155.1C155.596 155.332 155.674 155.616 155.674 155.954C155.674 156.31 155.586 156.619 155.411 156.882C155.242 157.138 154.999 157.329 154.68 157.454V157.473C155.092 157.56 155.408 157.748 155.627 158.035C155.846 158.323 155.955 158.673 155.955 159.086C155.955 159.329 155.911 159.567 155.824 159.798C155.736 160.03 155.605 160.236 155.43 160.417C155.261 160.592 155.049 160.736 154.792 160.848C154.542 160.955 154.252 161.008 153.92 161.008H150.685V154.313ZM151.576 160.258H153.808C154.202 160.258 154.508 160.151 154.727 159.939C154.952 159.726 155.064 159.433 155.064 159.057C155.064 158.839 155.024 158.657 154.942 158.514C154.861 158.37 154.752 158.257 154.614 158.176C154.483 158.089 154.33 158.029 154.155 157.998C153.98 157.96 153.798 157.942 153.611 157.942H151.576V160.258ZM157.292 154.313H160.443C161.08 154.313 161.577 154.469 161.933 154.782C162.296 155.094 162.477 155.522 162.477 156.066C162.477 156.473 162.384 156.829 162.196 157.135C162.015 157.442 161.721 157.651 161.315 157.763V157.782C161.508 157.82 161.665 157.882 161.783 157.97C161.908 158.057 162.005 158.164 162.074 158.289C162.149 158.407 162.202 158.542 162.234 158.692C162.271 158.842 162.299 158.998 162.318 159.161C162.33 159.323 162.34 159.489 162.346 159.658C162.352 159.826 162.368 159.992 162.393 160.155C162.418 160.317 162.452 160.473 162.496 160.623C162.546 160.767 162.618 160.895 162.712 161.008H161.718C161.655 160.939 161.612 160.845 161.587 160.727C161.568 160.608 161.555 160.476 161.549 160.333C161.543 160.183 161.536 160.023 161.53 159.854C161.524 159.686 161.505 159.52 161.474 159.358C161.449 159.195 161.418 159.042 161.38 158.898C161.343 158.748 161.283 158.62 161.202 158.514C161.121 158.401 161.015 158.314 160.883 158.251C160.752 158.182 160.577 158.148 160.358 158.148H158.183V161.008H157.292V154.313ZM160.039 157.398C160.246 157.398 160.443 157.382 160.63 157.351C160.818 157.32 160.98 157.26 161.118 157.173C161.261 157.079 161.374 156.957 161.455 156.807C161.543 156.651 161.587 156.451 161.587 156.207C161.587 155.869 161.493 155.594 161.305 155.382C161.118 155.169 160.814 155.063 160.396 155.063H158.183V157.398H160.039ZM165.052 158.242H167.321L166.205 155.119H166.186L165.052 158.242ZM165.718 154.313H166.702L169.318 161.008H168.334L167.602 158.992H164.771L164.02 161.008H163.111L165.718 154.313ZM170.157 154.313H171.104L174.63 159.742H174.648V154.313H175.492V161.008H174.517L171.02 155.635H171.001V161.008H170.157V154.313ZM178.012 160.258H179.493C179.593 160.258 179.718 160.251 179.868 160.239C180.018 160.22 180.178 160.183 180.346 160.126C180.515 160.064 180.681 159.976 180.843 159.864C181.012 159.751 181.162 159.598 181.293 159.404C181.425 159.211 181.531 158.97 181.612 158.682C181.7 158.389 181.744 158.035 181.744 157.623C181.744 157.223 181.703 156.866 181.622 156.554C181.547 156.235 181.419 155.966 181.237 155.747C181.062 155.522 180.834 155.354 180.553 155.241C180.271 155.122 179.924 155.063 179.512 155.063H178.012V160.258ZM177.121 154.313H179.418C180.45 154.313 181.243 154.575 181.8 155.1C182.356 155.626 182.634 156.426 182.634 157.501C182.634 158.064 182.572 158.564 182.447 159.001C182.322 159.433 182.128 159.798 181.865 160.098C181.603 160.392 181.268 160.617 180.862 160.773C180.456 160.93 179.974 161.008 179.418 161.008H177.121V154.313ZM139.629 165.313H140.519V168.191H144.045V165.313H144.936V172.008H144.045V168.942H140.519V172.008H139.629V165.313ZM146.583 165.313H151.206V166.063H147.474V168.191H150.953V168.942H147.474V171.258H151.234V172.008H146.583V165.313ZM152.503 165.313H155.654C156.291 165.313 156.788 165.469 157.145 165.782C157.507 166.094 157.688 166.522 157.688 167.066C157.688 167.473 157.595 167.829 157.407 168.135C157.226 168.442 156.932 168.651 156.526 168.763V168.782C156.719 168.82 156.876 168.882 156.995 168.97C157.12 169.057 157.216 169.164 157.285 169.289C157.36 169.407 157.413 169.542 157.445 169.692C157.482 169.842 157.51 169.998 157.529 170.161C157.541 170.323 157.551 170.489 157.557 170.658C157.563 170.826 157.579 170.992 157.604 171.155C157.629 171.317 157.663 171.473 157.707 171.623C157.757 171.767 157.829 171.895 157.923 172.008H156.929C156.866 171.939 156.823 171.845 156.798 171.727C156.779 171.608 156.766 171.476 156.76 171.333C156.754 171.183 156.748 171.023 156.741 170.854C156.735 170.686 156.716 170.52 156.685 170.358C156.66 170.195 156.629 170.042 156.591 169.898C156.554 169.748 156.494 169.62 156.413 169.514C156.332 169.401 156.226 169.314 156.094 169.251C155.963 169.182 155.788 169.148 155.569 169.148H153.394V172.008H152.503V165.313ZM155.25 168.398C155.457 168.398 155.654 168.382 155.841 168.351C156.029 168.32 156.191 168.26 156.329 168.173C156.473 168.079 156.585 167.957 156.666 167.807C156.754 167.651 156.798 167.451 156.798 167.207C156.798 166.869 156.704 166.594 156.516 166.382C156.329 166.169 156.026 166.063 155.607 166.063H153.394V168.398H155.25ZM159.11 165.313H163.732V166.063H160V168.191H163.479V168.942H160V171.258H163.76V172.008H159.11V165.313Z" fill="black"/>
<path d="M58.9147 15.4104V18.1484H58.0239V15.4104L55.4359 11.4534H56.4955L58.5021 14.6415L60.4619 11.4534H61.4746L58.9147 15.4104ZM62.9321 14.8009C62.9321 15.1385 62.9758 15.4729 63.0633 15.8043C63.1508 16.1293 63.2884 16.4231 63.4759 16.6857C63.6634 16.9482 63.9041 17.1608 64.1979 17.3233C64.4917 17.4796 64.8418 17.5577 65.2481 17.5577C65.6544 17.5577 66.0045 17.4796 66.2983 17.3233C66.5921 17.1608 66.8328 16.9482 67.0203 16.6857C67.2078 16.4231 67.3454 16.1293 67.4329 15.8043C67.5204 15.4729 67.5642 15.1385 67.5642 14.8009C67.5642 14.4634 67.5204 14.1321 67.4329 13.807C67.3454 13.4757 67.2078 13.1788 67.0203 12.9162C66.8328 12.6537 66.5921 12.4443 66.2983 12.288C66.0045 12.1254 65.6544 12.0442 65.2481 12.0442C64.8418 12.0442 64.4917 12.1254 64.1979 12.288C63.9041 12.4443 63.6634 12.6537 63.4759 12.9162C63.2884 13.1788 63.1508 13.4757 63.0633 13.807C62.9758 14.1321 62.9321 14.4634 62.9321 14.8009ZM62.0413 14.8009C62.0413 14.3446 62.1069 13.907 62.2382 13.4882C62.3757 13.0631 62.5789 12.688 62.8477 12.363C63.1165 12.0379 63.4509 11.7785 63.851 11.5847C64.251 11.3909 64.7168 11.294 65.2481 11.294C65.7795 11.294 66.2452 11.3909 66.6452 11.5847C67.0453 11.7785 67.3798 12.0379 67.6486 12.363C67.9174 12.688 68.1174 13.0631 68.2487 13.4882C68.3862 13.907 68.455 14.3446 68.455 14.8009C68.455 15.2573 68.3862 15.698 68.2487 16.1231C68.1174 16.5419 67.9174 16.9138 67.6486 17.2389C67.3798 17.564 67.0453 17.8234 66.6452 18.0172C66.2452 18.2047 65.7795 18.2985 65.2481 18.2985C64.7168 18.2985 64.251 18.2047 63.851 18.0172C63.4509 17.8234 63.1165 17.564 62.8477 17.2389C62.5789 16.9138 62.3757 16.5419 62.2382 16.1231C62.1069 15.698 62.0413 15.2573 62.0413 14.8009ZM75.0727 15.7292C75.0727 16.5856 74.8446 17.2295 74.3882 17.6608C73.9319 18.0859 73.2818 18.2985 72.4379 18.2985C71.5752 18.2985 70.9001 18.0953 70.4125 17.689C69.9312 17.2764 69.6905 16.6232 69.6905 15.7292V11.4534H70.5813V15.7292C70.5813 16.3293 70.7407 16.7857 71.0595 17.0982C71.3783 17.4045 71.8378 17.5577 72.4379 17.5577C73.0067 17.5577 73.4381 17.4045 73.7319 17.0982C74.0319 16.7857 74.1819 16.3293 74.1819 15.7292V11.4534H75.0727V15.7292ZM76.6825 11.4534H79.8331C80.4707 11.4534 80.9677 11.6097 81.324 11.9223C81.6866 12.2348 81.8679 12.663 81.8679 13.2069C81.8679 13.6132 81.7741 13.9695 81.5866 14.2758C81.4053 14.5821 81.1115 14.7916 80.7052 14.9041V14.9228C80.8989 14.9603 81.0552 15.0229 81.174 15.1104C81.299 15.1979 81.3959 15.3042 81.4647 15.4292C81.5397 15.548 81.5928 15.6824 81.6241 15.8324C81.6616 15.9824 81.6897 16.1387 81.7085 16.3012C81.721 16.4637 81.7304 16.6294 81.7366 16.7982C81.7429 16.967 81.7585 17.1326 81.7835 17.2952C81.8085 17.4577 81.8429 17.614 81.8866 17.764C81.9366 17.9078 82.0085 18.0359 82.1023 18.1484H81.1084C81.0458 18.0797 81.0021 17.9859 80.9771 17.8671C80.9583 17.7484 80.9458 17.6171 80.9396 17.4733C80.9333 17.3233 80.9271 17.1639 80.9208 16.9951C80.9146 16.8263 80.8958 16.6607 80.8646 16.4981C80.8396 16.3356 80.8083 16.1824 80.7708 16.0387C80.7333 15.8886 80.6739 15.7605 80.5926 15.6542C80.5114 15.5417 80.4051 15.4542 80.2738 15.3917C80.1426 15.3229 79.9675 15.2885 79.7487 15.2885H77.5733V18.1484H76.6825V11.4534ZM79.4299 14.5384C79.6362 14.5384 79.8331 14.5228 80.0207 14.4915C80.2082 14.4603 80.3707 14.4009 80.5082 14.3133C80.652 14.2196 80.7645 14.0977 80.8458 13.9477C80.9333 13.7914 80.9771 13.5913 80.9771 13.3475C80.9771 13.01 80.8833 12.7349 80.6958 12.5224C80.5082 12.3099 80.2051 12.2036 79.7862 12.2036H77.5733V14.5384H79.4299ZM86.9772 14.3321H88.7588C89.2651 14.3321 89.6277 14.2446 89.8465 14.0696C90.0715 13.8883 90.184 13.6195 90.184 13.2632C90.184 13.0256 90.1465 12.8381 90.0715 12.7005C89.9965 12.563 89.8933 12.4568 89.7621 12.3817C89.6308 12.3067 89.4776 12.2598 89.3026 12.2411C89.1338 12.2161 88.9525 12.2036 88.7588 12.2036H86.9772V14.3321ZM86.0864 11.4534H88.515C88.6587 11.4534 88.8119 11.4566 88.9744 11.4628C89.1432 11.4628 89.3089 11.4722 89.4714 11.4909C89.6339 11.5035 89.7839 11.5253 89.9215 11.5566C90.0653 11.5878 90.1871 11.6347 90.2872 11.6972C90.506 11.8285 90.6904 12.0098 90.8404 12.2411C90.9967 12.4724 91.0748 12.7568 91.0748 13.0944C91.0748 13.4507 90.9873 13.7601 90.8123 14.0227C90.6435 14.279 90.3997 14.4696 90.0809 14.5947V14.6134C90.4935 14.7009 90.8091 14.8885 91.0279 15.176C91.2467 15.4636 91.3561 15.8136 91.3561 16.2262C91.3561 16.47 91.3124 16.7075 91.2248 16.9388C91.1373 17.1701 91.0061 17.3764 90.831 17.5577C90.6622 17.7327 90.4497 17.8765 90.1934 17.989C89.9434 18.0953 89.6527 18.1484 89.3214 18.1484H86.0864V11.4534ZM86.9772 17.3983H89.2088C89.6027 17.3983 89.909 17.292 90.1278 17.0795C90.3528 16.8669 90.4653 16.5731 90.4653 16.1981C90.4653 15.9793 90.4247 15.798 90.3434 15.6542C90.2622 15.5104 90.1528 15.3979 90.0152 15.3167C89.884 15.2291 89.7308 15.1698 89.5558 15.1385C89.3807 15.101 89.1995 15.0822 89.0119 15.0822H86.9772V17.3983ZM92.693 11.4534H95.8435C96.4812 11.4534 96.9781 11.6097 97.3344 11.9223C97.697 12.2348 97.8783 12.663 97.8783 13.2069C97.8783 13.6132 97.7845 13.9695 97.597 14.2758C97.4157 14.5821 97.1219 14.7916 96.7156 14.9041V14.9228C96.9094 14.9603 97.0656 15.0229 97.1844 15.1104C97.3094 15.1979 97.4063 15.3042 97.4751 15.4292C97.5501 15.548 97.6032 15.6824 97.6345 15.8324C97.672 15.9824 97.7001 16.1387 97.7189 16.3012C97.7314 16.4637 97.7408 16.6294 97.747 16.7982C97.7533 16.967 97.7689 17.1326 97.7939 17.2952C97.8189 17.4577 97.8533 17.614 97.8971 17.764C97.9471 17.9078 98.019 18.0359 98.1127 18.1484H97.1188C97.0563 18.0797 97.0125 17.9859 96.9875 17.8671C96.9688 17.7484 96.9563 17.6171 96.95 17.4733C96.9438 17.3233 96.9375 17.1639 96.9312 16.9951C96.925 16.8263 96.9062 16.6607 96.875 16.4981C96.85 16.3356 96.8187 16.1824 96.7812 16.0387C96.7437 15.8886 96.6843 15.7605 96.6031 15.6542C96.5218 15.5417 96.4155 15.4542 96.2843 15.3917C96.153 15.3229 95.9779 15.2885 95.7592 15.2885H93.5838V18.1484H92.693V11.4534ZM95.4403 14.5384C95.6466 14.5384 95.8435 14.5228 96.0311 14.4915C96.2186 14.4603 96.3811 14.4009 96.5187 14.3133C96.6624 14.2196 96.775 14.0977 96.8562 13.9477C96.9438 13.7914 96.9875 13.5913 96.9875 13.3475C96.9875 13.01 96.8937 12.7349 96.7062 12.5224C96.5187 12.3099 96.2155 12.2036 95.7967 12.2036H93.5838V14.5384H95.4403ZM100.453 15.3823H102.722L101.606 12.2598H101.587L100.453 15.3823ZM101.119 11.4534H102.103L104.719 18.1484H103.735L103.003 16.1324H100.172L99.4214 18.1484H98.5119L101.119 11.4534ZM105.558 11.4534H106.505L110.031 16.8826H110.049V11.4534H110.893V18.1484H109.918L106.421 12.7756H106.402V18.1484H105.558V11.4534ZM113.413 17.3983H114.894C114.994 17.3983 115.119 17.392 115.269 17.3795C115.419 17.3608 115.579 17.3233 115.747 17.267C115.916 17.2045 116.082 17.117 116.244 17.0045C116.413 16.892 116.563 16.7388 116.694 16.545C116.826 16.3512 116.932 16.1106 117.013 15.823C117.101 15.5292 117.145 15.176 117.145 14.7634C117.145 14.3634 117.104 14.007 117.023 13.6945C116.948 13.3757 116.82 13.1069 116.638 12.8881C116.463 12.663 116.235 12.4943 115.954 12.3817C115.672 12.263 115.325 12.2036 114.913 12.2036H113.413V17.3983ZM112.522 11.4534H114.819C115.851 11.4534 116.644 11.716 117.201 12.2411C117.757 12.7662 118.035 13.5663 118.035 14.6415C118.035 15.2041 117.973 15.7042 117.848 16.1418C117.723 16.5731 117.529 16.9388 117.266 17.2389C117.004 17.5327 116.669 17.7577 116.263 17.914C115.857 18.0703 115.376 18.1484 114.819 18.1484H112.522V11.4534ZM122.109 11.4534H123V14.3321H126.525V11.4534H127.416V18.1484H126.525V15.0822H123V18.1484H122.109V11.4534ZM129.063 11.4534H133.686V12.2036H129.954V14.3321H133.433V15.0822H129.954V17.3983H133.714V18.1484H129.063V11.4534ZM134.983 11.4534H138.134C138.771 11.4534 139.268 11.6097 139.625 11.9223C139.987 12.2348 140.169 12.663 140.169 13.2069C140.169 13.6132 140.075 13.9695 139.887 14.2758C139.706 14.5821 139.412 14.7916 139.006 14.9041V14.9228C139.2 14.9603 139.356 15.0229 139.475 15.1104C139.6 15.1979 139.697 15.3042 139.765 15.4292C139.84 15.548 139.893 15.6824 139.925 15.8324C139.962 15.9824 139.99 16.1387 140.009 16.3012C140.022 16.4637 140.031 16.6294 140.037 16.7982C140.043 16.967 140.059 17.1326 140.084 17.2952C140.109 17.4577 140.144 17.614 140.187 17.764C140.237 17.9078 140.309 18.0359 140.403 18.1484H139.409C139.346 18.0797 139.303 17.9859 139.278 17.8671C139.259 17.7484 139.246 17.6171 139.24 17.4733C139.234 17.3233 139.228 17.1639 139.221 16.9951C139.215 16.8263 139.196 16.6607 139.165 16.4981C139.14 16.3356 139.109 16.1824 139.071 16.0387C139.034 15.8886 138.975 15.7605 138.893 15.6542C138.812 15.5417 138.706 15.4542 138.574 15.3917C138.443 15.3229 138.268 15.2885 138.049 15.2885H135.874V18.1484H134.983V11.4534ZM137.731 14.5384C137.937 14.5384 138.134 14.5228 138.321 14.4915C138.509 14.4603 138.671 14.4009 138.809 14.3133C138.953 14.2196 139.065 14.0977 139.146 13.9477C139.234 13.7914 139.278 13.5913 139.278 13.3475C139.278 13.01 139.184 12.7349 138.996 12.5224C138.809 12.3099 138.506 12.2036 138.087 12.2036H135.874V14.5384H137.731ZM141.59 11.4534H146.212V12.2036H142.481V14.3321H145.959V15.0822H142.481V17.3983H146.241V18.1484H141.59V11.4534Z" fill="black"/>
<path d="M53.6808 88.0688L54.5091 89.5035L54.0423 89.7731L53.214 88.3383L50.6606 87.0477L51.2159 86.7271L53.2319 87.7907L53.2943 85.5271L53.825 85.2207L53.6808 88.0688ZM55.6016 86.5339C55.7037 86.7108 55.8278 86.8728 55.9739 87.02C56.1181 87.1638 56.2791 87.2762 56.4568 87.357C56.6345 87.4379 56.8249 87.4764 57.0281 87.4727C57.2293 87.4657 57.4364 87.4008 57.6493 87.2778C57.8622 87.1549 58.022 87.008 58.1287 86.8372C58.2335 86.6632 58.2953 86.479 58.3142 86.2847C58.333 86.0903 58.3162 85.8948 58.2637 85.698C58.2093 85.4979 58.1311 85.3094 58.0289 85.1325C57.9268 84.9556 57.8036 84.7952 57.6594 84.6513C57.5133 84.5042 57.3514 84.3902 57.1737 84.3094C56.996 84.2285 56.8065 84.1916 56.6053 84.1986C56.4022 84.2023 56.1941 84.2656 55.9812 84.3886C55.7683 84.5115 55.6094 84.66 55.5046 84.8341C55.398 85.0048 55.3352 85.1874 55.3164 85.3817C55.2975 85.576 55.3153 85.7733 55.3697 85.9733C55.4221 86.1702 55.4994 86.357 55.6016 86.5339ZM55.1348 86.8034C54.9967 86.5643 54.8987 86.3151 54.8408 86.0559C54.7843 85.7916 54.7772 85.5336 54.8198 85.2819C54.8623 85.0302 54.959 84.7931 55.1101 84.5705C55.2611 84.3479 55.4758 84.1562 55.7543 83.9955C56.0327 83.8347 56.3061 83.7446 56.5743 83.7251C56.8426 83.7056 57.0964 83.7404 57.3356 83.8294C57.5748 83.9184 57.7931 84.0544 57.9905 84.2375C58.1893 84.4153 58.3577 84.6238 58.4957 84.863C58.6338 85.1021 58.7311 85.3538 58.7877 85.6182C58.8456 85.8774 58.8533 86.1328 58.8108 86.3845C58.7683 86.6362 58.6715 86.8733 58.5205 87.0959C58.3676 87.3152 58.1519 87.5052 57.8734 87.666C57.595 87.8268 57.3226 87.9185 57.0562 87.9413C56.7879 87.9608 56.5342 87.926 56.295 87.837C56.0557 87.748 55.8368 87.6145 55.638 87.4367C55.4406 87.2536 55.2728 87.0426 55.1348 86.8034ZM62.2445 83.3472C62.5036 83.796 62.5789 84.2024 62.4702 84.5665C62.3597 84.9274 62.0833 85.2354 61.6411 85.4907C61.189 85.7517 60.7738 85.8495 60.3953 85.7841C60.0183 85.7136 59.6945 85.4441 59.4241 84.9756L58.1304 82.735L58.5972 82.4655L59.8909 84.7061C60.0724 85.0206 60.294 85.2115 60.5556 85.2788C60.8154 85.3429 61.1025 85.2841 61.417 85.1026C61.7151 84.9305 61.8948 84.7197 61.9561 84.4703C62.0187 84.2157 61.9593 83.9312 61.7777 83.6167L60.4841 81.3761L60.9509 81.1066L62.2445 83.3472ZM61.7945 80.6195L63.4455 79.6663C63.7796 79.4734 64.0873 79.405 64.3686 79.4609C64.6531 79.515 64.8777 79.6846 65.0422 79.9696C65.1652 80.1825 65.2238 80.3976 65.2182 80.6148C65.2159 80.8302 65.1253 81.0288 64.9464 81.2107L64.9521 81.2206C65.065 81.1816 65.1658 81.1671 65.2545 81.177C65.3465 81.185 65.4294 81.2114 65.5033 81.2561C65.5785 81.2957 65.6471 81.35 65.7088 81.4192C65.7739 81.4864 65.8359 81.5598 65.8949 81.6393C65.9506 81.7207 66.0057 81.8047 66.06 81.8912C66.1143 81.9778 66.1726 82.0599 66.2349 82.1375C66.2972 82.2151 66.3625 82.2866 66.4308 82.352C66.5005 82.4122 66.577 82.4576 66.6601 82.4882L66.1393 82.7889C66.0857 82.7718 66.0344 82.7359 65.9854 82.6812C65.9396 82.6246 65.8934 82.5596 65.8466 82.4862C65.7979 82.4094 65.7464 82.3278 65.6921 82.2412C65.6377 82.1547 65.5778 82.0735 65.5122 81.9978C65.45 81.9202 65.3872 81.8494 65.3241 81.7854C65.259 81.7182 65.1892 81.669 65.1144 81.6379C65.0378 81.6035 64.9556 81.5898 64.8679 81.5967C64.7783 81.6004 64.6762 81.6354 64.5615 81.7016L63.4216 82.3597L64.2868 83.8584L63.82 84.1279L61.7945 80.6195ZM64.1675 81.4049C64.2756 81.3425 64.3741 81.2747 64.4629 81.2016C64.5517 81.1285 64.6189 81.0482 64.6645 80.9607C64.7115 80.8681 64.7336 80.7702 64.7308 80.667C64.7293 80.5586 64.6918 80.4405 64.618 80.3128C64.5159 80.1359 64.3835 80.0201 64.2209 79.9655C64.0584 79.9109 63.8673 79.9469 63.6479 80.0736L62.4882 80.7431L63.1946 81.9666L64.1675 81.4049ZM68.0601 79.0134L68.9937 78.4744C69.259 78.3212 69.4226 78.1656 69.4843 78.0077C69.5473 77.8446 69.525 77.6697 69.4172 77.483C69.3453 77.3585 69.2689 77.2716 69.188 77.2222C69.1071 77.1729 69.0209 77.1484 68.9294 77.1488C68.8379 77.1492 68.7435 77.171 68.6461 77.2141C68.5501 77.2521 68.4513 77.3004 68.3497 77.359L67.4161 77.898L68.0601 79.0134ZM66.7224 77.7744L67.995 77.0396C68.0704 76.9961 68.1516 76.9514 68.2386 76.9055C68.3271 76.8545 68.4167 76.8093 68.5076 76.7699C68.5965 76.7273 68.6817 76.6934 68.7633 76.6682C68.8481 76.641 68.9261 76.6287 68.9975 76.6312C69.1518 76.6338 69.3033 76.673 69.4519 76.7488C69.6038 76.8228 69.7308 76.9482 69.8329 77.1251C69.9407 77.3118 69.9885 77.5004 69.9762 77.691C69.9653 77.8763 69.8952 78.05 69.766 78.212L69.7716 78.2218C70.0143 78.1428 70.2365 78.1456 70.4381 78.2301C70.6398 78.3146 70.803 78.4649 70.9279 78.6811C71.0016 78.8089 71.0506 78.9466 71.0747 79.0943C71.0988 79.242 71.0924 79.3898 71.0555 79.5377C71.02 79.6805 70.9522 79.8202 70.8519 79.9567C70.753 80.088 70.6168 80.2038 70.4432 80.304L68.7479 81.2828L66.7224 77.7744ZM68.9878 80.6202L70.1572 79.945C70.3636 79.8258 70.492 79.6775 70.5423 79.4999C70.5959 79.3204 70.566 79.1324 70.4525 78.9359C70.3863 78.8212 70.3102 78.7385 70.2241 78.6878C70.138 78.637 70.0467 78.6112 69.95 78.6102C69.8547 78.604 69.7565 78.6193 69.6553 78.6558C69.5523 78.6891 69.4516 78.7341 69.3533 78.7909L68.2871 79.4065L68.9878 80.6202ZM70.1844 75.7756L71.8354 74.8224C72.1695 74.6295 72.4772 74.561 72.7585 74.617C73.0431 74.6711 73.2676 74.8406 73.4322 75.1256C73.5551 75.3386 73.6138 75.5537 73.6082 75.7709C73.6059 75.9863 73.5153 76.1849 73.3364 76.3668L73.342 76.3766C73.4549 76.3376 73.5558 76.3231 73.6445 76.333C73.7365 76.3411 73.8194 76.3675 73.8932 76.4122C73.9685 76.4517 74.037 76.5061 74.0988 76.5752C74.1638 76.6425 74.2258 76.7159 74.2848 76.7954C74.3406 76.8768 74.3956 76.9607 74.4499 77.0473C74.5043 77.1339 74.5626 77.2159 74.6249 77.2935C74.6871 77.3711 74.7524 77.4426 74.8208 77.508C74.8905 77.5682 74.9669 77.6136 75.0501 77.6442L74.5292 77.9449C74.4757 77.9278 74.4244 77.8919 74.3753 77.8373C74.3296 77.7807 74.2833 77.7157 74.2365 77.6422C74.1879 77.5655 74.1364 77.4839 74.082 77.3973C74.0277 77.3107 73.9677 77.2296 73.9022 77.1539C73.8399 77.0763 73.7772 77.0055 73.714 76.9415C73.649 76.8742 73.5791 76.825 73.5044 76.7939C73.4277 76.7596 73.3456 76.7458 73.2579 76.7528C73.1683 76.7565 73.0661 76.7914 72.9515 76.8576L71.8115 77.5158L72.6768 79.0145L72.21 79.284L70.1844 75.7756ZM72.5575 76.561C72.6656 76.4986 72.764 76.4308 72.8528 76.3577C72.9417 76.2846 73.0089 76.2043 73.0545 76.1168C73.1014 76.0242 73.1235 75.9262 73.1207 75.823C73.1193 75.7147 73.0817 75.5966 73.0079 75.4689C72.9058 75.292 72.7735 75.1762 72.6109 75.1216C72.4483 75.0669 72.2573 75.103 72.0378 75.2297L70.8782 75.8992L71.5846 77.1227L72.5575 76.561ZM75.4395 75.4867L76.6286 74.8001L75.0992 73.5015L75.0894 73.5072L75.4395 75.4867ZM74.5997 73.2264L75.1156 72.9285L78.5121 75.6454L77.9962 75.9433L77.003 75.1081L75.5191 75.9649L75.7359 77.2483L75.2593 77.5235L74.5997 73.2264ZM76.926 71.8833L77.4223 71.5968L80.9125 73.3751L80.9223 73.3695L79.2797 70.5244L79.7219 70.2691L81.7475 73.7775L81.2365 74.0725L77.7781 72.3151L77.7683 72.3208L79.3938 75.1364L78.9516 75.3917L76.926 71.8833ZM82.8408 72.6222L83.6171 72.1739C83.6695 72.1437 83.7332 72.1026 83.808 72.0506C83.8809 71.9954 83.9531 71.9275 84.0245 71.847C84.0941 71.7632 84.1544 71.6672 84.2055 71.559C84.2599 71.449 84.2922 71.3234 84.3024 71.1821C84.3125 71.0408 84.2954 70.8826 84.251 70.7073C84.208 70.5268 84.1241 70.3285 83.9992 70.1123C83.8782 69.9027 83.7491 69.7282 83.6119 69.589C83.4762 69.4447 83.3277 69.3426 83.1665 69.2828C83.0067 69.2178 82.8361 69.1984 82.6546 69.2245C82.4713 69.2474 82.2715 69.3212 82.0553 69.4461L81.2691 69.9L82.8408 72.6222ZM80.5753 69.7764L81.7792 69.0813C82.3197 68.7693 82.8152 68.6667 83.2656 68.7735C83.716 68.8804 84.1038 69.2155 84.4291 69.7789C84.5994 70.0738 84.7179 70.3547 84.7848 70.6219C84.8498 70.8857 84.8589 71.136 84.8121 71.3727C84.7634 71.6061 84.6562 71.8252 84.4905 72.03C84.3249 72.2348 84.0963 72.4214 83.8048 72.5897L82.6009 73.2848L80.5753 69.7764ZM64.4775 87.1534L64.9443 86.8839L65.8152 88.3924L67.6628 87.3257L66.7918 85.8172L67.2586 85.5477L69.2842 89.0561L68.8174 89.3256L67.8897 87.7188L66.0422 88.7855L66.9698 90.3923L66.503 90.6618L64.4775 87.1534ZM68.1219 85.0493L70.5443 83.6507L70.7713 84.0438L68.8156 85.1729L69.4596 86.2883L71.2826 85.2358L71.5095 85.6289L69.6865 86.6814L70.3873 87.8951L72.3577 86.7575L72.5846 87.1506L70.1474 88.5577L68.1219 85.0493ZM71.224 83.2583L72.875 82.3051C73.2091 82.1122 73.5168 82.0437 73.7981 82.0997C74.0827 82.1538 74.3072 82.3233 74.4718 82.6083C74.5947 82.8213 74.6534 83.0363 74.6478 83.2536C74.6455 83.469 74.5549 83.6676 74.376 83.8495L74.3816 83.8593C74.4945 83.8203 74.5954 83.8058 74.6841 83.8157C74.7761 83.8238 74.859 83.8501 74.9328 83.8949C75.0081 83.9344 75.0766 83.9888 75.1384 84.0579C75.2034 84.1252 75.2654 84.1986 75.3244 84.2781C75.3802 84.3595 75.4352 84.4434 75.4895 84.53C75.5439 84.6165 75.6022 84.6986 75.6645 84.7762C75.7267 84.8538 75.792 84.9253 75.8604 84.9907C75.9301 85.0509 76.0065 85.0963 76.0897 85.1269L75.5688 85.4276C75.5153 85.4105 75.464 85.3746 75.4149 85.3199C75.3692 85.2634 75.3229 85.1984 75.2761 85.1249C75.2275 85.0482 75.176 84.9665 75.1216 84.88C75.0673 84.7934 75.0073 84.7123 74.9418 84.6366C74.8795 84.559 74.8168 84.4882 74.7536 84.4242C74.6886 84.3569 74.6187 84.3077 74.544 84.2766C74.4673 84.2422 74.3852 84.2285 74.2975 84.2355C74.2079 84.2392 74.1057 84.2741 73.9911 84.3403L72.8511 84.9985L73.7164 86.4972L73.2496 86.7667L71.224 83.2583ZM73.5971 84.0437C73.7052 83.9813 73.8036 83.9135 73.8924 83.8404C73.9813 83.7673 74.0485 83.687 74.0941 83.5995C74.141 83.5069 74.1631 83.4089 74.1603 83.3057C74.1589 83.1974 74.1213 83.0793 74.0475 82.9515C73.9454 82.7746 73.8131 82.6589 73.6505 82.6042C73.4879 82.5496 73.2969 82.5856 73.0774 82.7124L71.9178 83.3819L72.6242 84.6054L73.5971 84.0437ZM74.6861 81.2595L77.1085 79.8609L77.3355 80.254L75.3798 81.3831L76.0238 82.4985L77.8468 81.446L78.0737 81.8391L76.2507 82.8916L76.9515 84.1052L78.9219 82.9676L79.1488 83.3607L76.7116 84.7679L74.6861 81.2595Z" fill="black"/>
<path d="M121.228 88.0688L122.056 89.5035L121.589 89.7731L120.761 88.3383L118.207 87.0477L118.763 86.7271L120.779 87.7907L120.841 85.5271L121.372 85.2207L121.228 88.0688ZM123.148 86.5339C123.251 86.7108 123.375 86.8728 123.521 87.02C123.665 87.1638 123.826 87.2762 124.004 87.357C124.181 87.4379 124.372 87.4764 124.575 87.4727C124.776 87.4657 124.983 87.4008 125.196 87.2778C125.409 87.1549 125.569 87.008 125.676 86.8372C125.78 86.6632 125.842 86.479 125.861 86.2847C125.88 86.0903 125.863 85.8948 125.811 85.698C125.756 85.4979 125.678 85.3094 125.576 85.1325C125.474 84.9556 125.351 84.7952 125.206 84.6513C125.06 84.5042 124.898 84.3902 124.721 84.3094C124.543 84.2285 124.353 84.1916 124.152 84.1986C123.949 84.2023 123.741 84.2656 123.528 84.3886C123.315 84.5115 123.156 84.66 123.052 84.8341C122.945 85.0048 122.882 85.1874 122.863 85.3817C122.844 85.576 122.862 85.7733 122.917 85.9733C122.969 86.1702 123.046 86.357 123.148 86.5339ZM122.682 86.8034C122.544 86.5643 122.446 86.3151 122.388 86.0559C122.331 85.7916 122.324 85.5336 122.367 85.2819C122.409 85.0302 122.506 84.7931 122.657 84.5705C122.808 84.3479 123.023 84.1562 123.301 83.9955C123.58 83.8347 123.853 83.7446 124.121 83.7251C124.389 83.7056 124.643 83.7404 124.882 83.8294C125.122 83.9184 125.34 84.0544 125.537 84.2375C125.736 84.4153 125.905 84.6238 126.043 84.863C126.181 85.1021 126.278 85.3538 126.335 85.6182C126.392 85.8774 126.4 86.1328 126.358 86.3845C126.315 86.6362 126.218 86.8733 126.067 87.0959C125.914 87.3152 125.699 87.5052 125.42 87.666C125.142 87.8268 124.869 87.9185 124.603 87.9413C124.335 87.9608 124.081 87.926 123.842 87.837C123.603 87.748 123.384 87.6145 123.185 87.4367C122.987 87.2536 122.82 87.0426 122.682 86.8034ZM129.791 83.3472C130.05 83.796 130.126 84.2024 130.017 84.5665C129.907 84.9274 129.63 85.2354 129.188 85.4907C128.736 85.7517 128.321 85.8495 127.942 85.7841C127.565 85.7136 127.241 85.4441 126.971 84.9756L125.677 82.735L126.144 82.4655L127.438 84.7061C127.619 85.0206 127.841 85.2115 128.103 85.2788C128.362 85.3429 128.649 85.2841 128.964 85.1026C129.262 84.9305 129.442 84.7197 129.503 84.4703C129.566 84.2157 129.506 83.9312 129.325 83.6167L128.031 81.3761L128.498 81.1066L129.791 83.3472ZM129.341 80.6195L130.992 79.6663C131.326 79.4734 131.634 79.405 131.915 79.4609C132.2 79.515 132.425 79.6846 132.589 79.9696C132.712 80.1825 132.771 80.3976 132.765 80.6148C132.763 80.8302 132.672 81.0288 132.493 81.2107L132.499 81.2206C132.612 81.1816 132.713 81.1671 132.801 81.177C132.893 81.185 132.976 81.2114 133.05 81.2561C133.125 81.2957 133.194 81.35 133.256 81.4192C133.321 81.4864 133.383 81.5598 133.442 81.6393C133.497 81.7207 133.553 81.8047 133.607 81.8912C133.661 81.9778 133.72 82.0599 133.782 82.1375C133.844 82.2151 133.909 82.2866 133.978 82.352C134.047 82.4122 134.124 82.4576 134.207 82.4882L133.686 82.7889C133.633 82.7718 133.581 82.7359 133.532 82.6812C133.487 82.6246 133.44 82.5596 133.393 82.4862C133.345 82.4094 133.293 82.3278 133.239 82.2412C133.185 82.1547 133.125 82.0735 133.059 81.9978C132.997 81.9202 132.934 81.8494 132.871 81.7854C132.806 81.7182 132.736 81.669 132.661 81.6379C132.585 81.6035 132.502 81.5898 132.415 81.5967C132.325 81.6004 132.223 81.6354 132.108 81.7016L130.968 82.3597L131.834 83.8584L131.367 84.1279L129.341 80.6195ZM131.714 81.4049C131.823 81.3425 131.921 81.2747 132.01 81.2016C132.099 81.1285 132.166 81.0482 132.211 80.9607C132.258 80.8681 132.28 80.7702 132.278 80.667C132.276 80.5586 132.239 80.4405 132.165 80.3128C132.063 80.1359 131.93 80.0201 131.768 79.9655C131.605 79.9109 131.414 79.9469 131.195 80.0736L130.035 80.7431L130.741 81.9666L131.714 81.4049ZM135.607 79.0134L136.541 78.4744C136.806 78.3212 136.969 78.1656 137.031 78.0077C137.094 77.8446 137.072 77.6697 136.964 77.483C136.892 77.3585 136.816 77.2716 136.735 77.2222C136.654 77.1729 136.568 77.1484 136.476 77.1488C136.385 77.1492 136.29 77.171 136.193 77.2141C136.097 77.2521 135.998 77.3004 135.897 77.359L134.963 77.898L135.607 79.0134ZM134.269 77.7744L135.542 77.0396C135.617 76.9961 135.698 76.9514 135.785 76.9055C135.874 76.8545 135.964 76.8093 136.054 76.7699C136.143 76.7273 136.229 76.6934 136.31 76.6682C136.395 76.641 136.473 76.6287 136.544 76.6312C136.699 76.6338 136.85 76.673 136.999 76.7488C137.151 76.8228 137.278 76.9482 137.38 77.1251C137.488 77.3118 137.535 77.5004 137.523 77.691C137.512 77.8763 137.442 78.05 137.313 78.212L137.319 78.2218C137.561 78.1428 137.783 78.1456 137.985 78.2301C138.187 78.3146 138.35 78.4649 138.475 78.6811C138.548 78.8089 138.597 78.9466 138.622 79.0943C138.646 79.242 138.639 79.3898 138.602 79.5377C138.567 79.6805 138.499 79.8202 138.399 79.9567C138.3 80.088 138.164 80.2038 137.99 80.304L136.295 81.2828L134.269 77.7744ZM136.535 80.6202L137.704 79.945C137.91 79.8258 138.039 79.6775 138.089 79.4999C138.143 79.3204 138.113 79.1324 137.999 78.9359C137.933 78.8212 137.857 78.7385 137.771 78.6878C137.685 78.637 137.594 78.6112 137.497 78.6102C137.402 78.604 137.303 78.6193 137.202 78.6558C137.099 78.6891 136.998 78.7341 136.9 78.7909L135.834 79.4065L136.535 80.6202ZM137.731 75.7756L139.382 74.8224C139.716 74.6295 140.024 74.561 140.305 74.617C140.59 74.6711 140.815 74.8406 140.979 75.1256C141.102 75.3386 141.161 75.5537 141.155 75.7709C141.153 75.9863 141.062 76.1849 140.883 76.3668L140.889 76.3766C141.002 76.3376 141.103 76.3231 141.191 76.333C141.283 76.3411 141.366 76.3675 141.44 76.4122C141.515 76.4517 141.584 76.5061 141.646 76.5752C141.711 76.6425 141.773 76.7159 141.832 76.7954C141.887 76.8768 141.942 76.9607 141.997 77.0473C142.051 77.1339 142.109 77.2159 142.172 77.2935C142.234 77.3711 142.299 77.4426 142.368 77.508C142.437 77.5682 142.514 77.6136 142.597 77.6442L142.076 77.9449C142.023 77.9278 141.971 77.8919 141.922 77.8373C141.876 77.7807 141.83 77.7157 141.783 77.6422C141.735 77.5655 141.683 77.4839 141.629 77.3973C141.575 77.3107 141.515 77.2296 141.449 77.1539C141.387 77.0763 141.324 77.0055 141.261 76.9415C141.196 76.8742 141.126 76.825 141.051 76.7939C140.975 76.7596 140.892 76.7458 140.805 76.7528C140.715 76.7565 140.613 76.7914 140.498 76.8576L139.358 77.5158L140.224 79.0145L139.757 79.284L137.731 75.7756ZM140.104 76.561C140.212 76.4986 140.311 76.4308 140.4 76.3577C140.489 76.2846 140.556 76.2043 140.601 76.1168C140.648 76.0242 140.67 75.9262 140.668 75.823C140.666 75.7147 140.629 75.5966 140.555 75.4689C140.453 75.292 140.32 75.1762 140.158 75.1216C139.995 75.0669 139.804 75.103 139.585 75.2297L138.425 75.8992L139.131 77.1227L140.104 76.561ZM142.986 75.4867L144.175 74.8001L142.646 73.5015L142.636 73.5072L142.986 75.4867ZM142.147 73.2264L142.663 72.9285L146.059 75.6454L145.543 75.9433L144.55 75.1081L143.066 75.9649L143.283 77.2483L142.806 77.5235L142.147 73.2264ZM144.473 71.8833L144.969 71.5968L148.459 73.3751L148.469 73.3695L146.827 70.5244L147.269 70.2691L149.294 73.7775L148.783 74.0725L145.325 72.3151L145.315 72.3208L146.941 75.1364L146.498 75.3917L144.473 71.8833ZM150.388 72.6222L151.164 72.1739C151.216 72.1437 151.28 72.1026 151.355 72.0506C151.428 71.9954 151.5 71.9275 151.571 71.847C151.641 71.7632 151.701 71.6672 151.752 71.559C151.807 71.449 151.839 71.3234 151.849 71.1821C151.859 71.0408 151.842 70.8826 151.798 70.7073C151.755 70.5268 151.671 70.3285 151.546 70.1123C151.425 69.9027 151.296 69.7282 151.159 69.589C151.023 69.4447 150.875 69.3426 150.713 69.2828C150.554 69.2178 150.383 69.1984 150.201 69.2245C150.018 69.2474 149.818 69.3212 149.602 69.4461L148.816 69.9L150.388 72.6222ZM148.122 69.7764L149.326 69.0813C149.867 68.7693 150.362 68.6667 150.812 68.7735C151.263 68.8804 151.651 69.2155 151.976 69.7789C152.146 70.0738 152.265 70.3547 152.332 70.6219C152.397 70.8857 152.406 71.136 152.359 71.3727C152.31 71.6061 152.203 71.8252 152.037 72.03C151.872 72.2348 151.643 72.4214 151.352 72.5897L150.148 73.2848L148.122 69.7764ZM132.024 87.1534L132.491 86.8839L133.362 88.3924L135.21 87.3257L134.339 85.8172L134.805 85.5477L136.831 89.0561L136.364 89.3256L135.437 87.7188L133.589 88.7855L134.517 90.3923L134.05 90.6618L132.024 87.1534ZM135.669 85.0493L138.091 83.6507L138.318 84.0438L136.362 85.1729L137.006 86.2883L138.829 85.2358L139.056 85.6289L137.233 86.6814L137.934 87.8951L139.905 86.7575L140.131 87.1506L137.694 88.5577L135.669 85.0493ZM138.771 83.2583L140.422 82.3051C140.756 82.1122 141.064 82.0437 141.345 82.0997C141.63 82.1538 141.854 82.3233 142.019 82.6083C142.142 82.8213 142.2 83.0363 142.195 83.2536C142.192 83.469 142.102 83.6676 141.923 83.8495L141.929 83.8593C142.041 83.8203 142.142 83.8058 142.231 83.8157C142.323 83.8238 142.406 83.8501 142.48 83.8949C142.555 83.9344 142.623 83.9888 142.685 84.0579C142.75 84.1252 142.812 84.1986 142.871 84.2781C142.927 84.3595 142.982 84.4434 143.036 84.53C143.091 84.6165 143.149 84.6986 143.211 84.7762C143.274 84.8538 143.339 84.9253 143.407 84.9907C143.477 85.0509 143.553 85.0963 143.637 85.1269L143.116 85.4276C143.062 85.4105 143.011 85.3746 142.962 85.3199C142.916 85.2634 142.87 85.1984 142.823 85.1249C142.774 85.0482 142.723 84.9665 142.668 84.88C142.614 84.7934 142.554 84.7123 142.489 84.6366C142.426 84.559 142.364 84.4882 142.301 84.4242C142.235 84.3569 142.166 84.3077 142.091 84.2766C142.014 84.2422 141.932 84.2285 141.844 84.2355C141.755 84.2392 141.653 84.2741 141.538 84.3403L140.398 84.9985L141.263 86.4972L140.796 86.7667L138.771 83.2583ZM141.144 84.0437C141.252 83.9813 141.351 83.9135 141.439 83.8404C141.528 83.7673 141.595 83.687 141.641 83.5995C141.688 83.5069 141.71 83.4089 141.707 83.3057C141.706 83.1974 141.668 83.0793 141.594 82.9515C141.492 82.7746 141.36 82.6589 141.197 82.6042C141.035 82.5496 140.844 82.5856 140.624 82.7124L139.465 83.3819L140.171 84.6054L141.144 84.0437ZM142.233 81.2595L144.655 79.8609L144.882 80.254L142.927 81.3831L143.571 82.4985L145.394 81.446L145.621 81.8391L143.798 82.8916L144.498 84.1052L146.469 82.9676L146.696 83.3607L144.258 84.7679L142.233 81.2595Z" fill="black"/>
</svg>
