<svg width="103" height="183" viewBox="0 0 103 183" fill="none" xmlns="http://www.w3.org/2000/svg">
<path d="M3.65116 178.848L3.05664 110.153L76.8614 112.011L100.302 107.055V173.659L76.8614 182.256L3.65116 178.848Z" fill="white"/>
<path d="M76.8614 112.011L3.05664 110.153L3.65116 178.848L76.8614 182.256M76.8614 112.011V182.256M76.8614 112.011L100.302 107.055V173.659L76.8614 182.256" stroke="black" stroke-width="0.509763"/>
<path d="M37.8782 111.081V108.912L0.253906 107.828V109.919L37.8782 111.081Z" fill="#E1E1E1" stroke="black" stroke-width="0.509763"/>
<path d="M27.5987 104.805L0.335938 107.825L37.8753 108.909V104.96L27.5987 104.805Z" fill="white" stroke="black" stroke-width="0.509763"/>
<path d="M41.446 111.162L37.8789 111.085V0.257812H41.446V111.162Z" fill="white" stroke="black" stroke-width="0.509763"/>
<path d="M64.6304 4.12304L41.4443 0.328125L41.3594 111.155L65.14 105.502L64.6304 4.12304Z" fill="white" stroke="black" stroke-width="0.509763"/>
<path d="M40.4238 111.245V109.154L76.7742 109.928L102.253 105.281V106.83L76.7742 112.097L40.4238 111.245Z" fill="#E1E1E1" stroke="black" stroke-width="0.509763"/>
<path d="M65.988 105.436L40.4238 109.154L76.7742 109.928L102.253 105.281L65.988 105.436Z" fill="white" stroke="black" stroke-width="0.509763"/>
<path d="M14.7144 142.611L12.5293 139.384H13.7115L15.2525 141.763L16.769 139.384H17.9105L15.7336 142.611V144.693H14.7144V142.611Z" fill="black"/>
<path d="M21.1265 140.016C20.8167 140.016 20.5476 140.073 20.3193 140.187C20.0964 140.301 19.9144 140.455 19.773 140.648C19.6317 140.836 19.5257 141.052 19.4551 141.295C19.3898 141.538 19.3572 141.786 19.3572 142.038C19.3572 142.291 19.3898 142.539 19.4551 142.782C19.5257 143.025 19.6317 143.243 19.773 143.436C19.9144 143.625 20.0964 143.776 20.3193 143.89C20.5476 144.004 20.8167 144.061 21.1265 144.061C21.4363 144.061 21.7027 144.004 21.9255 143.89C22.1538 143.776 22.3386 143.625 22.4799 143.436C22.6213 143.243 22.7245 143.025 22.7898 142.782C22.8604 142.539 22.8958 142.291 22.8958 142.038C22.8958 141.786 22.8604 141.538 22.7898 141.295C22.7245 141.052 22.6213 140.836 22.4799 140.648C22.3386 140.455 22.1538 140.301 21.9255 140.187C21.7027 140.073 21.4363 140.016 21.1265 140.016ZM21.1265 139.258C21.5613 139.258 21.95 139.332 22.2924 139.481C22.6403 139.63 22.9338 139.83 23.173 140.083C23.4121 140.336 23.5942 140.631 23.7192 140.968C23.8497 141.305 23.9149 141.662 23.9149 142.038C23.9149 142.42 23.8497 142.779 23.7192 143.117C23.5942 143.454 23.4121 143.749 23.173 144.001C22.9338 144.254 22.6403 144.455 22.2924 144.604C21.95 144.747 21.5613 144.819 21.1265 144.819C20.6916 144.819 20.3003 144.747 19.9524 144.604C19.61 144.455 19.3192 144.254 19.08 144.001C18.8408 143.749 18.656 143.454 18.5256 143.117C18.4006 142.779 18.338 142.42 18.338 142.038C18.338 141.662 18.4006 141.305 18.5256 140.968C18.656 140.631 18.8408 140.336 19.08 140.083C19.3192 139.83 19.61 139.63 19.9524 139.481C20.3003 139.332 20.6916 139.258 21.1265 139.258Z" fill="black"/>
<path d="M24.9403 139.384H25.9595V142.477C25.9595 142.656 25.9677 142.836 25.984 143.02C26.0057 143.203 26.0601 143.369 26.147 143.518C26.2394 143.662 26.3753 143.781 26.5547 143.875C26.7395 143.969 26.9977 144.016 27.3293 144.016C27.6608 144.016 27.9163 143.969 28.0957 143.875C28.2805 143.781 28.4164 143.662 28.5034 143.518C28.5958 143.369 28.6501 143.203 28.6664 143.02C28.6882 142.836 28.699 142.656 28.699 142.477V139.384H29.7182V142.782C29.7182 143.124 29.6611 143.421 29.547 143.674C29.4328 143.927 29.2698 144.14 29.0578 144.314C28.8512 144.482 28.6012 144.608 28.3077 144.693C28.0141 144.777 27.688 144.819 27.3293 144.819C26.9705 144.819 26.6444 144.777 26.3509 144.693C26.0573 144.608 25.8046 144.482 25.5926 144.314C25.3861 144.14 25.2257 143.927 25.1116 143.674C24.9974 143.421 24.9403 143.124 24.9403 142.782V139.384Z" fill="black"/>
<path d="M31.0527 139.384H33.833C34.4744 139.384 34.9555 139.511 35.2762 139.763C35.5969 140.016 35.7572 140.368 35.7572 140.819C35.7572 141.072 35.7164 141.283 35.6349 141.451C35.5534 141.615 35.4583 141.749 35.3495 141.853C35.2408 141.952 35.1321 142.024 35.0234 142.068C34.9201 142.113 34.844 142.143 34.7951 142.157V142.172C34.8821 142.182 34.9745 142.207 35.0723 142.247C35.1756 142.286 35.2707 142.351 35.3577 142.44C35.4447 142.524 35.5153 142.636 35.5697 142.775C35.6295 142.913 35.6594 143.087 35.6594 143.295C35.6594 143.607 35.6838 143.892 35.7328 144.15C35.7871 144.403 35.8686 144.584 35.9774 144.693H34.8848C34.8087 144.579 34.7625 144.452 34.7462 144.314C34.7353 144.175 34.7299 144.041 34.7299 143.912C34.7299 143.669 34.7136 143.461 34.681 143.288C34.6484 143.109 34.5886 142.963 34.5016 142.849C34.4146 142.73 34.295 142.643 34.1429 142.589C33.9961 142.534 33.8058 142.507 33.5721 142.507H32.0719V144.693H31.0527V139.384ZM32.0719 141.801H33.7433C34.0695 141.801 34.3168 141.731 34.4853 141.592C34.6538 141.449 34.738 141.236 34.738 140.953C34.738 140.784 34.7109 140.648 34.6565 140.544C34.6022 140.435 34.5261 140.351 34.4282 140.291C34.3358 140.232 34.2271 140.192 34.1021 140.172C33.9825 140.152 33.8575 140.143 33.727 140.143H32.0719V141.801Z" fill="black"/>
<path d="M40.4081 141.607H42.0713C42.3159 141.607 42.5198 141.545 42.6828 141.421C42.8459 141.293 42.9274 141.109 42.9274 140.871C42.9274 140.604 42.8541 140.415 42.7073 140.306C42.5605 140.197 42.3486 140.143 42.0713 140.143H40.4081V141.607ZM39.3889 139.384H42.2181C42.7399 139.384 43.1585 139.493 43.4737 139.711C43.789 139.929 43.9466 140.259 43.9466 140.7C43.9466 140.968 43.8732 141.198 43.7265 141.392C43.5851 141.58 43.3813 141.726 43.115 141.83V141.845C43.4737 141.915 43.7455 142.071 43.9303 142.314C44.1151 142.551 44.2075 142.851 44.2075 143.213C44.2075 143.421 44.1667 143.617 44.0852 143.801C44.0037 143.979 43.8759 144.135 43.702 144.269C43.5281 144.398 43.3052 144.502 43.0334 144.581C42.7617 144.656 42.4382 144.693 42.0632 144.693H39.3889V139.384ZM40.4081 143.934H42.2099C42.5198 143.934 42.7589 143.863 42.9274 143.719C43.1014 143.57 43.1883 143.362 43.1883 143.094C43.1883 142.832 43.1014 142.631 42.9274 142.492C42.7589 142.348 42.5198 142.276 42.2099 142.276H40.4081V143.934Z" fill="black"/>
<path d="M45.2927 139.384H48.073C48.7144 139.384 49.1955 139.511 49.5162 139.763C49.8369 140.016 49.9972 140.368 49.9972 140.819C49.9972 141.072 49.9565 141.283 49.8749 141.451C49.7934 141.615 49.6983 141.749 49.5896 141.853C49.4808 141.952 49.3721 142.024 49.2634 142.068C49.1601 142.113 49.084 142.143 49.0351 142.157V142.172C49.1221 142.182 49.2145 142.207 49.3123 142.247C49.4156 142.286 49.5107 142.351 49.5977 142.44C49.6847 142.524 49.7553 142.636 49.8097 142.775C49.8695 142.913 49.8994 143.087 49.8994 143.295C49.8994 143.607 49.9238 143.892 49.9728 144.15C50.0271 144.403 50.1086 144.584 50.2174 144.693H49.1248C49.0487 144.579 49.0025 144.452 48.9862 144.314C48.9753 144.175 48.9699 144.041 48.9699 143.912C48.9699 143.669 48.9536 143.461 48.921 143.288C48.8884 143.109 48.8286 142.963 48.7416 142.849C48.6546 142.73 48.5351 142.643 48.3829 142.589C48.2361 142.534 48.0459 142.507 47.8121 142.507H46.3119V144.693H45.2927V139.384ZM46.3119 141.801H47.9833C48.3095 141.801 48.5568 141.731 48.7253 141.592C48.8938 141.449 48.9781 141.236 48.9781 140.953C48.9781 140.784 48.9509 140.648 48.8965 140.544C48.8422 140.435 48.7661 140.351 48.6682 140.291C48.5758 140.232 48.4671 140.192 48.3421 140.172C48.2225 140.152 48.0975 140.143 47.967 140.143H46.3119V141.801Z" fill="black"/>
<path d="M52.7539 139.384H53.8383L56.0804 144.693H54.9879L54.4416 143.288H52.1179L51.5716 144.693H50.5199L52.7539 139.384ZM52.3951 142.581H54.1726L53.3002 140.299H53.2757L52.3951 142.581Z" fill="black"/>
<path d="M56.7571 139.384H57.8333L60.4913 143.295H60.5076V139.384H61.4779V144.693H60.4016L57.7518 140.789H57.7274V144.693H56.7571V139.384Z" fill="black"/>
<path d="M62.845 139.384H65.2584C65.7041 139.384 66.0901 139.454 66.4162 139.592C66.7423 139.731 67.0087 139.922 67.2152 140.165C67.4218 140.403 67.574 140.683 67.6718 141.005C67.7751 141.327 67.8267 141.672 67.8267 142.038C67.8267 142.405 67.7751 142.75 67.6718 143.072C67.574 143.394 67.4218 143.677 67.2152 143.92C67.0087 144.157 66.7423 144.346 66.4162 144.485C66.0901 144.623 65.7041 144.693 65.2584 144.693H62.845V139.384ZM63.8642 143.934H64.8671C65.2639 143.934 65.5873 143.887 65.8373 143.793C66.0928 143.694 66.2912 143.56 66.4325 143.392C66.5793 143.218 66.6771 143.017 66.726 142.789C66.7804 142.556 66.8076 142.306 66.8076 142.038C66.8076 141.771 66.7804 141.523 66.726 141.295C66.6771 141.062 66.5793 140.861 66.4325 140.693C66.2912 140.519 66.0928 140.385 65.8373 140.291C65.5873 140.192 65.2639 140.143 64.8671 140.143H63.8642V143.934Z" fill="black"/>
<path d="M29.8279 148.368H30.8471V150.48H33.4969V148.368H34.5161V153.677H33.4969V151.283H30.8471V153.677H29.8279V148.368Z" fill="black"/>
<path d="M35.8995 148.368H40.0903V149.171H36.9187V150.561H39.8539V151.32H36.9187V152.874H40.1474V153.677H35.8995V148.368Z" fill="black"/>
<path d="M41.1982 148.368H43.9785C44.6199 148.368 45.101 148.494 45.4217 148.747C45.7424 149 45.9027 149.352 45.9027 149.803C45.9027 150.056 45.8619 150.266 45.7804 150.435C45.6989 150.599 45.6038 150.732 45.495 150.836C45.3863 150.936 45.2776 151.008 45.1689 151.052C45.0656 151.097 44.9895 151.126 44.9406 151.141V151.156C45.0276 151.166 45.12 151.191 45.2178 151.231C45.3211 151.27 45.4162 151.335 45.5032 151.424C45.5902 151.508 45.6608 151.62 45.7152 151.758C45.775 151.897 45.8049 152.071 45.8049 152.279C45.8049 152.591 45.8293 152.876 45.8783 153.134C45.9326 153.387 46.0141 153.568 46.1228 153.677H45.0303C44.9542 153.563 44.908 153.436 44.8917 153.297C44.8808 153.159 44.8754 153.025 44.8754 152.896C44.8754 152.653 44.8591 152.445 44.8265 152.271C44.7939 152.093 44.7341 151.947 44.6471 151.833C44.5601 151.714 44.4405 151.627 44.2884 151.573C44.1416 151.518 43.9513 151.491 43.7176 151.491H42.2174V153.677H41.1982V148.368ZM42.2174 150.784H43.8888C44.215 150.784 44.4623 150.715 44.6308 150.576C44.7993 150.433 44.8835 150.219 44.8835 149.937C44.8835 149.768 44.8564 149.632 44.802 149.528C44.7477 149.419 44.6716 149.335 44.5737 149.275C44.4813 149.216 44.3726 149.176 44.2476 149.156C44.128 149.136 44.003 149.126 43.8725 149.126H42.2174V150.784Z" fill="black"/>
<path d="M47.1021 148.368H51.2929V149.171H48.1213V150.561H51.0565V151.32H48.1213V152.874H51.35V153.677H47.1021V148.368Z" fill="black"/>
<path d="M44.5362 41.3266L43.7441 38.1028H44.1727L44.7312 40.4798L45.2809 38.1028H45.6947L44.9056 41.3266V43.4064H44.5362V41.3266Z" fill="black"/>
<path d="M46.8604 38.7342C46.7481 38.7342 46.6505 38.7912 46.5678 38.9051C46.487 39.0189 46.421 39.1725 46.3698 39.3656C46.3185 39.5538 46.2801 39.7692 46.2545 40.0118C46.2309 40.2545 46.2191 40.5021 46.2191 40.7546C46.2191 41.0072 46.2309 41.2547 46.2545 41.4974C46.2801 41.74 46.3185 41.9579 46.3698 42.1511C46.421 42.3392 46.487 42.4903 46.5678 42.6042C46.6505 42.718 46.7481 42.775 46.8604 42.775C46.9727 42.775 47.0692 42.718 47.15 42.6042C47.2327 42.4903 47.2997 42.3392 47.3509 42.1511C47.4022 41.9579 47.4396 41.74 47.4632 41.4974C47.4889 41.2547 47.5017 41.0072 47.5017 40.7546C47.5017 40.5021 47.4889 40.2545 47.4632 40.0118C47.4396 39.7692 47.4022 39.5538 47.3509 39.3656C47.2997 39.1725 47.2327 39.0189 47.15 38.9051C47.0692 38.7912 46.9727 38.7342 46.8604 38.7342ZM46.8604 37.9766C47.018 37.9766 47.1588 38.0508 47.283 38.1994C47.4091 38.348 47.5155 38.5485 47.6021 38.8011C47.6888 39.0536 47.7548 39.3483 47.8002 39.685C47.8474 40.0217 47.8711 40.3783 47.8711 40.7546C47.8711 41.1359 47.8474 41.4949 47.8002 41.8317C47.7548 42.1684 47.6888 42.463 47.6021 42.7156C47.5155 42.9681 47.4091 43.1687 47.283 43.3172C47.1588 43.4608 47.018 43.5326 46.8604 43.5326C46.7027 43.5326 46.5609 43.4608 46.4348 43.3172C46.3107 43.1687 46.2053 42.9681 46.1186 42.7156C46.0319 42.463 45.9649 42.1684 45.9176 41.8317C45.8723 41.4949 45.8496 41.1359 45.8496 40.7546C45.8496 40.3783 45.8723 40.0217 45.9176 39.685C45.9649 39.3483 46.0319 39.0536 46.1186 38.8011C46.2053 38.5485 46.3107 38.348 46.4348 38.1994C46.5609 38.0508 46.7027 37.9766 46.8604 37.9766Z" fill="black"/>
<path d="M48.2428 38.1028H48.6122V41.1929C48.6122 41.3711 48.6151 41.5519 48.621 41.7351C48.6289 41.9183 48.6486 42.0842 48.6802 42.2328C48.7136 42.3764 48.7629 42.4952 48.8279 42.5893C48.8949 42.6834 48.9885 42.7304 49.1087 42.7304C49.2289 42.7304 49.3215 42.6834 49.3865 42.5893C49.4535 42.4952 49.5027 42.3764 49.5342 42.2328C49.5677 42.0842 49.5874 41.9183 49.5934 41.7351C49.6012 41.5519 49.6052 41.3711 49.6052 41.1929V38.1028H49.9746V41.4974C49.9746 41.8391 49.9539 42.1362 49.9125 42.3887C49.8712 42.6413 49.8121 42.8542 49.7352 43.0275C49.6603 43.1959 49.5697 43.3222 49.4633 43.4064C49.3569 43.4906 49.2387 43.5326 49.1087 43.5326C48.9786 43.5326 48.8604 43.4906 48.754 43.4064C48.6476 43.3222 48.556 43.1959 48.4792 43.0275C48.4043 42.8542 48.3462 42.6413 48.3048 42.3887C48.2635 42.1362 48.2428 41.8391 48.2428 41.4974V38.1028Z" fill="black"/>
<path d="M50.4583 38.1028H51.4661C51.6986 38.1028 51.8729 38.2291 51.9892 38.4817C52.1054 38.7342 52.1636 39.0858 52.1636 39.5364C52.1636 39.789 52.1488 39.9994 52.1192 40.1678C52.0897 40.3312 52.0552 40.4649 52.0158 40.5689C51.9764 40.6679 51.937 40.7397 51.8976 40.7843C51.8601 40.8289 51.8326 40.8586 51.8148 40.8734V40.8883C51.8463 40.8982 51.8798 40.923 51.9153 40.9626C51.9527 41.0022 51.9872 41.0666 52.0187 41.1557C52.0503 41.2399 52.0759 41.3513 52.0956 41.49C52.1173 41.6286 52.1281 41.8019 52.1281 42.0099C52.1281 42.3219 52.137 42.6066 52.1547 42.8641C52.1744 43.1167 52.2039 43.2974 52.2433 43.4064H51.8473C51.8197 43.2925 51.803 43.1662 51.7971 43.0275C51.7931 42.8889 51.7912 42.7552 51.7912 42.6264C51.7912 42.3838 51.7853 42.1758 51.7734 42.0025C51.7616 41.8242 51.74 41.6781 51.7084 41.5642C51.6769 41.4454 51.6336 41.3587 51.5784 41.3043C51.5252 41.2498 51.4562 41.2226 51.3715 41.2226H50.8277V43.4064H50.4583V38.1028ZM50.8277 40.5169H51.4336C51.5518 40.5169 51.6414 40.4476 51.7025 40.3089C51.7636 40.1653 51.7941 39.9524 51.7941 39.6701C51.7941 39.5018 51.7843 39.3656 51.7646 39.2616C51.7449 39.1526 51.7173 39.0685 51.6818 39.009C51.6483 38.9496 51.6089 38.91 51.5636 38.8902C51.5203 38.8704 51.475 38.8605 51.4277 38.8605H50.8277V40.5169Z" fill="black"/>
<path d="M53.8493 40.3238H54.4522C54.5409 40.3238 54.6148 40.2619 54.6739 40.1381C54.733 40.0093 54.7625 39.8261 54.7625 39.5884C54.7625 39.321 54.7359 39.1328 54.6827 39.0239C54.6296 38.915 54.5527 38.8605 54.4522 38.8605H53.8493V40.3238ZM53.4799 38.1028H54.5054C54.6946 38.1028 54.8463 38.2118 54.9605 38.4297C55.0748 38.6476 55.132 38.9769 55.132 39.4176C55.132 39.685 55.1054 39.9152 55.0522 40.1084C55.0009 40.2965 54.9271 40.4426 54.8305 40.5466V40.5615C54.9606 40.6308 55.0591 40.7868 55.126 41.0294C55.193 41.2671 55.2265 41.5667 55.2265 41.9282C55.2265 42.1362 55.2118 42.3318 55.1822 42.515C55.1526 42.6933 55.1063 42.8493 55.0433 42.983C54.9803 43.1117 54.8995 43.2157 54.801 43.295C54.7024 43.3692 54.5852 43.4064 54.4493 43.4064H53.4799V38.1028ZM53.8493 42.6487H54.5025C54.6148 42.6487 54.7015 42.5769 54.7625 42.4333C54.8256 42.2848 54.8571 42.0768 54.8571 41.8094C54.8571 41.5469 54.8256 41.3464 54.7625 41.2077C54.7015 41.0641 54.6148 40.9923 54.5025 40.9923H53.8493V42.6487Z" fill="black"/>
<path d="M55.6199 38.1028H56.6277C56.8601 38.1028 57.0345 38.2291 57.1508 38.4817C57.267 38.7342 57.3251 39.0858 57.3251 39.5364C57.3251 39.789 57.3103 39.9994 57.2808 40.1678C57.2512 40.3312 57.2168 40.4649 57.1774 40.5689C57.1379 40.6679 57.0985 40.7397 57.0591 40.7843C57.0217 40.8289 56.9941 40.8586 56.9764 40.8734V40.8883C57.0079 40.8982 57.0414 40.923 57.0769 40.9626C57.1143 41.0022 57.1488 41.0666 57.1803 41.1557C57.2118 41.2399 57.2374 41.3513 57.2571 41.49C57.2788 41.6286 57.2897 41.8019 57.2897 42.0099C57.2897 42.3219 57.2985 42.6066 57.3163 42.8641C57.336 43.1167 57.3655 43.2974 57.4049 43.4064H57.0089C56.9813 43.2925 56.9646 43.1662 56.9587 43.0275C56.9547 42.8889 56.9527 42.7552 56.9527 42.6264C56.9527 42.3838 56.9468 42.1758 56.935 42.0025C56.9232 41.8242 56.9015 41.6781 56.87 41.5642C56.8385 41.4454 56.7951 41.3587 56.74 41.3043C56.6868 41.2498 56.6178 41.2226 56.5331 41.2226H55.9893V43.4064H55.6199V38.1028ZM55.9893 40.5169H56.5952C56.7134 40.5169 56.803 40.4476 56.8641 40.3089C56.9252 40.1653 56.9557 39.9524 56.9557 39.6701C56.9557 39.5018 56.9459 39.3656 56.9261 39.2616C56.9064 39.1526 56.8789 39.0685 56.8434 39.009C56.8099 38.9496 56.7705 38.91 56.7252 38.8902C56.6818 38.8704 56.6365 38.8605 56.5892 38.8605H55.9893V40.5169Z" fill="black"/>
<path d="M58.3243 38.1028H58.7174L59.5301 43.4064H59.1341L58.9361 42.0025H58.0938L57.8958 43.4064H57.5146L58.3243 38.1028ZM58.1943 41.2968H58.8386L58.5223 39.0165H58.5135L58.1943 41.2968Z" fill="black"/>
<path d="M59.7754 38.1028H60.1655L61.1289 42.0099H61.1348V38.1028H61.4865V43.4064H61.0964L60.1359 39.5067H60.1271V43.4064H59.7754V38.1028Z" fill="black"/>
<path d="M61.9821 38.1028H62.8568C63.0184 38.1028 63.1583 38.1722 63.2765 38.3108C63.3947 38.4495 63.4913 38.6401 63.5661 38.8828C63.641 39.1205 63.6962 39.4002 63.7316 39.7221C63.7691 40.044 63.7878 40.3882 63.7878 40.7546C63.7878 41.121 63.7691 41.4652 63.7316 41.7871C63.6962 42.109 63.641 42.3912 63.5661 42.6339C63.4913 42.8716 63.3947 43.0597 63.2765 43.1984C63.1583 43.337 63.0184 43.4064 62.8568 43.4064H61.9821V38.1028ZM62.3515 42.6487H62.715C62.8588 42.6487 62.976 42.6017 63.0667 42.5076C63.1593 42.4086 63.2312 42.2749 63.2824 42.1065C63.3356 41.9332 63.3711 41.7326 63.3888 41.5048C63.4085 41.2721 63.4184 41.022 63.4184 40.7546C63.4184 40.4872 63.4085 40.2396 63.3888 40.0118C63.3711 39.7791 63.3356 39.5785 63.2824 39.4102C63.2312 39.2368 63.1593 39.1031 63.0667 39.009C62.976 38.91 62.8588 38.8605 62.715 38.8605H62.3515V42.6487Z" fill="black"/>
<path d="M50.0144 47.0782H50.3838V49.1878H51.3443V47.0782H51.7137V52.3818H51.3443V49.99H50.3838V52.3818H50.0144V47.0782Z" fill="black"/>
<path d="M52.2151 47.0782H53.7342V47.8805H52.5845V49.2695H53.6485V50.0271H52.5845V51.5796H53.7549V52.3818H52.2151V47.0782Z" fill="black"/>
<path d="M54.1358 47.0782H55.1435C55.376 47.0782 55.5504 47.2045 55.6666 47.4571C55.7829 47.7096 55.841 48.0612 55.841 48.5118C55.841 48.7644 55.8262 48.9748 55.7967 49.1432C55.7671 49.3066 55.7326 49.4403 55.6932 49.5443C55.6538 49.6433 55.6144 49.7151 55.575 49.7597C55.5376 49.8043 55.51 49.834 55.4923 49.8488V49.8637C55.5238 49.8736 55.5573 49.8984 55.5927 49.938C55.6302 49.9776 55.6647 50.042 55.6962 50.1311C55.7277 50.2153 55.7533 50.3267 55.773 50.4654C55.7947 50.604 55.8055 50.7773 55.8055 50.9853C55.8055 51.2973 55.8144 51.582 55.8321 51.8395C55.8518 52.0921 55.8814 52.2728 55.9208 52.3818H55.5248C55.4972 52.2679 55.4804 52.1416 55.4745 52.0029C55.4706 51.8643 55.4686 51.7306 55.4686 51.6018C55.4686 51.3592 55.4627 51.1512 55.4509 50.9779C55.4391 50.7996 55.4174 50.6535 55.3859 50.5396C55.3543 50.4208 55.311 50.3341 55.2558 50.2797C55.2026 50.2252 55.1337 50.198 55.049 50.198H54.5052V52.3818H54.1358V47.0782ZM54.5052 49.4923H55.111C55.2292 49.4923 55.3189 49.423 55.38 49.2843C55.441 49.1407 55.4716 48.9278 55.4716 48.6455C55.4716 48.4772 55.4617 48.341 55.442 48.237C55.4223 48.128 55.3947 48.0439 55.3593 47.9844C55.3258 47.925 55.2864 47.8854 55.2411 47.8656C55.1977 47.8458 55.1524 47.8359 55.1051 47.8359H54.5052V49.4923Z" fill="black"/>
<path d="M56.2757 47.0782H57.7948V47.8805H56.6451V49.2695H57.7091V50.0271H56.6451V51.5796H57.8155V52.3818H56.2757V47.0782Z" fill="black"/>
<path d="M79.5291 141.688L78.432 138.54L78.8589 138.506L79.6425 140.829L79.9629 138.418L80.3751 138.385L79.8971 141.659L80.0959 143.731L79.7279 143.76L79.5291 141.688Z" fill="black"/>
<path d="M81.5967 138.921C81.4848 138.93 81.3931 138.995 81.3216 139.115C81.252 139.234 81.2009 139.393 81.1683 139.589C81.1353 139.781 81.1176 139.998 81.1153 140.242C81.1149 140.486 81.1268 140.733 81.1509 140.985C81.1751 141.236 81.2105 141.482 81.2573 141.722C81.306 141.962 81.3651 142.176 81.4345 142.364C81.5036 142.547 81.5838 142.693 81.6751 142.8C81.7684 142.907 81.871 142.955 81.9829 142.947C82.0948 142.938 82.1855 142.873 82.2551 142.753C82.3266 142.633 82.3789 142.478 82.412 142.286C82.4446 142.09 82.461 141.87 82.4614 141.626C82.4637 141.382 82.4528 141.134 82.4287 140.883C82.4045 140.631 82.3681 140.386 82.3194 140.146C82.2727 139.906 82.2148 139.695 82.1458 139.511C82.0763 139.323 81.9949 139.175 81.9015 139.068C81.8102 138.961 81.7086 138.912 81.5967 138.921ZM81.5243 138.166C81.6813 138.154 81.8287 138.217 81.9666 138.355C82.1064 138.493 82.2316 138.684 82.3421 138.929C82.4526 139.174 82.5465 139.462 82.6238 139.794C82.7031 140.125 82.7607 140.479 82.7967 140.854C82.8331 141.233 82.8439 141.593 82.829 141.932C82.816 142.271 82.7784 142.57 82.7162 142.828C82.654 143.087 82.5672 143.295 82.4557 143.453C82.3458 143.606 82.2123 143.689 82.0553 143.701C81.8983 143.714 81.7501 143.654 81.6108 143.521C81.4729 143.382 81.3488 143.191 81.2383 142.946C81.1278 142.702 81.0329 142.413 80.9536 142.082C80.8762 141.75 80.8194 141.394 80.7829 141.014C80.747 140.639 80.7354 140.282 80.7484 139.943C80.7633 139.604 80.8019 139.305 80.8641 139.047C80.9263 138.788 81.0122 138.58 81.1216 138.422C81.233 138.264 81.3673 138.179 81.5243 138.166Z" fill="black"/>
<path d="M82.9135 138.182L83.2815 138.153L83.5768 141.231C83.5939 141.409 83.6141 141.589 83.6375 141.771C83.6629 141.953 83.6983 142.116 83.7439 142.262C83.791 142.402 83.8515 142.517 83.9252 142.605C84.001 142.694 84.0987 142.733 84.2184 142.723C84.3381 142.714 84.4259 142.66 84.4817 142.561C84.5394 142.462 84.5771 142.339 84.5948 142.194C84.614 142.043 84.6177 141.876 84.6061 141.693C84.5964 141.51 84.5831 141.33 84.5661 141.152L84.2707 138.074L84.6387 138.045L84.9632 141.426C84.9958 141.767 85.0036 142.064 84.9865 142.319C84.9695 142.574 84.9309 142.791 84.871 142.97C84.8125 143.143 84.7342 143.276 84.6363 143.369C84.5384 143.461 84.4246 143.512 84.2951 143.523C84.1655 143.533 84.0438 143.5 83.9297 143.425C83.8157 143.35 83.7124 143.231 83.6197 143.07C83.5286 142.903 83.4503 142.695 83.385 142.447C83.3196 142.199 83.2706 141.904 83.2379 141.564L82.9135 138.182Z" fill="black"/>
<path d="M85.1206 138.006L86.1246 137.926C86.3562 137.908 86.5419 138.02 86.6819 138.262C86.8218 138.504 86.9133 138.85 86.9564 139.299C86.9805 139.55 86.9859 139.761 86.9726 139.931C86.9587 140.096 86.9372 140.232 86.9079 140.339C86.8781 140.441 86.8457 140.516 86.8107 140.563C86.7777 140.61 86.753 140.642 86.7368 140.658L86.7382 140.673C86.7705 140.681 86.8063 140.703 86.8454 140.739C86.8865 140.776 86.927 140.837 86.9669 140.923C87.0063 141.005 87.0425 141.114 87.0754 141.25C87.1102 141.387 87.1376 141.559 87.1575 141.766C87.1873 142.077 87.2233 142.359 87.2656 142.615C87.3094 142.865 87.3561 143.042 87.4058 143.148L87.0112 143.179C86.9729 143.068 86.9441 142.943 86.925 142.806C86.9078 142.668 86.8931 142.535 86.8808 142.407C86.8576 142.165 86.8318 141.958 86.8035 141.787C86.7746 141.61 86.7391 141.466 86.6968 141.355C86.654 141.239 86.6026 141.156 86.5424 141.106C86.4842 141.056 86.4129 141.035 86.3285 141.042L85.7868 141.085L85.9955 143.26L85.6275 143.29L85.1206 138.006ZM85.7194 140.382L86.3229 140.334C86.4407 140.324 86.5233 140.248 86.5709 140.105C86.6181 139.957 86.6281 139.743 86.6012 139.461C86.5851 139.294 86.5622 139.159 86.5327 139.057C86.5026 138.95 86.4671 138.868 86.4261 138.812C86.387 138.755 86.344 138.719 86.297 138.703C86.2519 138.686 86.2058 138.68 86.1587 138.684L85.561 138.732L85.7194 140.382Z" fill="black"/>
<path d="M88.711 139.949L89.3116 139.901C89.3999 139.894 89.4676 139.827 89.5147 139.699C89.5612 139.566 89.5732 139.381 89.5505 139.144C89.5249 138.878 89.4804 138.692 89.417 138.588C89.3536 138.484 89.2718 138.436 89.1717 138.444L88.5712 138.491L88.711 139.949ZM88.1307 137.766L89.1523 137.685C89.3407 137.67 89.5023 137.766 89.637 137.974C89.7716 138.182 89.86 138.505 89.9021 138.945C89.9277 139.211 89.9232 139.442 89.8887 139.639C89.8556 139.831 89.796 139.982 89.7097 140.093L89.7112 140.108C89.8473 140.167 89.9604 140.314 90.0503 140.551C90.1398 140.782 90.2018 141.078 90.2363 141.438C90.2562 141.645 90.2602 141.841 90.2482 142.026C90.2358 142.206 90.2046 142.365 90.1546 142.503C90.1041 142.637 90.0335 142.747 89.943 142.833C89.8519 142.915 89.7387 142.962 89.6033 142.972L88.6376 143.049L88.1307 137.766ZM88.9332 142.265L89.5839 142.213C89.6957 142.204 89.7752 142.126 89.8224 141.978C89.871 141.825 89.8825 141.615 89.8569 141.349C89.8319 141.088 89.7813 140.89 89.7052 140.757C89.6306 140.619 89.5374 140.554 89.4256 140.563L88.7749 140.615L88.9332 142.265Z" fill="black"/>
<path d="M90.2625 137.596L91.2665 137.516C91.4981 137.497 91.6839 137.609 91.8238 137.852C91.9637 138.094 92.0552 138.44 92.0983 138.889C92.1224 139.14 92.1278 139.351 92.1145 139.521C92.1007 139.686 92.0791 139.822 92.0498 139.929C92.02 140.031 91.9876 140.105 91.9526 140.153C91.9196 140.2 91.8949 140.232 91.8787 140.248L91.8801 140.263C91.9125 140.27 91.9482 140.292 91.9873 140.329C92.0284 140.366 92.0689 140.427 92.1088 140.513C92.1483 140.595 92.1844 140.704 92.2173 140.84C92.2522 140.977 92.2795 141.148 92.2994 141.356C92.3292 141.666 92.3653 141.949 92.4075 142.204C92.4513 142.454 92.498 142.632 92.5477 142.737L92.1532 142.769C92.1148 142.658 92.0861 142.533 92.0669 142.396C92.0497 142.258 92.035 142.125 92.0227 141.996C91.9995 141.755 91.9737 141.548 91.9454 141.376C91.9166 141.2 91.881 141.056 91.8387 140.945C91.796 140.829 91.7445 140.746 91.6843 140.696C91.6261 140.646 91.5548 140.625 91.4704 140.631L90.9287 140.675L91.1375 142.85L90.7694 142.879L90.2625 137.596ZM90.8613 139.972L91.4648 139.923C91.5826 139.914 91.6653 139.838 91.7129 139.695C91.76 139.547 91.7701 139.332 91.7431 139.051C91.727 138.883 91.7042 138.749 91.6746 138.647C91.6445 138.54 91.609 138.458 91.568 138.402C91.529 138.345 91.4859 138.309 91.4389 138.293C91.3938 138.276 91.3477 138.27 91.3006 138.274L90.703 138.321L90.8613 139.972Z" fill="black"/>
<path d="M92.9567 137.381L93.3483 137.35L94.6648 142.569L94.2703 142.6L93.9388 141.217L93.0998 141.284L93.0367 142.698L92.6569 142.729L92.9567 137.381ZM93.1324 140.573L93.7742 140.522L93.2413 138.275L93.2324 138.276L93.1324 140.573Z" fill="black"/>
<path d="M94.4022 137.266L94.7908 137.235L96.124 141.05L96.1299 141.05L95.7565 137.158L96.1068 137.13L96.6137 142.413L96.2251 142.444L94.8956 138.636L94.8867 138.636L95.2595 142.521L94.9091 142.549L94.4022 137.266Z" fill="black"/>
<path d="M96.6005 137.09L97.472 137.021C97.6329 137.008 97.7789 137.066 97.9099 137.195C98.0409 137.323 98.1553 137.506 98.2531 137.741C98.3504 137.972 98.4321 138.247 98.4982 138.564C98.5662 138.882 98.6178 139.223 98.6528 139.589C98.6878 139.954 98.7021 140.298 98.6955 140.622C98.691 140.945 98.663 141.231 98.6116 141.478C98.5597 141.721 98.4816 141.916 98.377 142.064C98.2725 142.211 98.1398 142.291 97.9789 142.304L97.1074 142.374L96.6005 137.09ZM97.403 141.59L97.7651 141.561C97.9084 141.549 98.0207 141.493 98.102 141.392C98.1848 141.286 98.2436 141.147 98.2786 140.975C98.315 140.799 98.3312 140.596 98.3271 140.368C98.3244 140.134 98.3103 139.884 98.2848 139.618C98.2592 139.352 98.2258 139.106 98.1844 138.88C98.1444 138.65 98.09 138.453 98.0209 138.289C97.9533 138.121 97.8689 137.993 97.7676 137.907C97.6679 137.815 97.5463 137.775 97.4031 137.787L97.0409 137.816L97.403 141.59Z" fill="black"/>
<path d="M85.5362 146.983L85.9042 146.953L86.1058 149.055L87.0626 148.979L86.861 146.877L87.229 146.848L87.7359 152.131L87.3679 152.16L87.1393 149.778L86.1825 149.854L86.4111 152.237L86.0431 152.266L85.5362 146.983Z" fill="black"/>
<path d="M87.7286 146.808L89.2419 146.687L89.3185 147.486L88.1733 147.578L88.306 148.961L89.3659 148.877L89.4383 149.632L88.3784 149.716L88.5268 151.263L89.6927 151.17L89.7694 151.969L88.2355 152.091L87.7286 146.808Z" fill="black"/>
<path d="M89.6419 146.655L90.6458 146.575C90.8774 146.557 91.0632 146.669 91.2032 146.911C91.3431 147.153 91.4346 147.499 91.4777 147.948C91.5018 148.199 91.5072 148.41 91.4938 148.58C91.48 148.745 91.4585 148.881 91.4291 148.988C91.3994 149.09 91.367 149.165 91.332 149.212C91.2989 149.259 91.2743 149.291 91.2581 149.307L91.2595 149.322C91.2918 149.33 91.3276 149.352 91.3667 149.388C91.4077 149.425 91.4482 149.486 91.4882 149.572C91.5276 149.654 91.5638 149.763 91.5967 149.899C91.6315 150.036 91.6589 150.208 91.6787 150.415C91.7086 150.726 91.7446 151.008 91.7869 151.264C91.8307 151.514 91.8774 151.691 91.927 151.797L91.5325 151.828C91.4942 151.717 91.4654 151.592 91.4463 151.455C91.4291 151.317 91.4143 151.184 91.402 151.056C91.3789 150.814 91.3531 150.607 91.3247 150.436C91.2959 150.259 91.2604 150.115 91.2181 150.004C91.1753 149.888 91.1239 149.805 91.0637 149.755C91.0055 149.705 90.9342 149.684 90.8498 149.69L90.3081 149.734L90.5168 151.909L90.1488 151.939L89.6419 146.655ZM90.2406 149.031L90.8442 148.983C90.962 148.973 91.0446 148.897 91.0922 148.754C91.1393 148.606 91.1494 148.392 91.1224 148.11C91.1063 147.943 91.0835 147.808 91.0539 147.706C91.0239 147.599 90.9884 147.517 90.9474 147.461C90.9083 147.404 90.8653 147.368 90.8183 147.352C90.7732 147.335 90.7271 147.329 90.68 147.333L90.0823 147.381L90.2406 149.031Z" fill="black"/>
<path d="M91.7737 146.485L93.287 146.364L93.3637 147.164L92.2184 147.255L92.3512 148.639L93.411 148.554L93.4835 149.309L92.4236 149.393L92.572 150.94L93.7378 150.847L93.8145 151.646L92.2806 151.768L91.7737 146.485Z" fill="black"/>
</svg>
